<svg width="187" height="187" viewBox="0 0 187 187" fill="none" xmlns="http://www.w3.org/2000/svg">
<path d="M89.1416 65.5438C88.2571 65.7766 84.1607 66.1489 80.0177 66.3816C68.5664 66.9868 69.4973 67.685 61.5838 75.6917C58.8373 78.4847 59.3494 80.6726 57.9995 86.0259C54.7409 98.9668 67.0767 98.9202 73.6868 90.5877C79.1798 83.6517 82.671 81.4174 91.8414 79.0434C100.314 76.8555 102.641 75.0866 102.641 70.8971C102.641 66.3352 96.2172 63.7284 89.1416 65.5438ZM90.7242 75.9712C81.1815 78.2522 74.7575 81.4641 70.8938 86.1191C64.7958 93.4275 62.6079 94.9637 62.282 92.031C62.0958 90.5414 64.7492 82.0226 65.7733 80.6726L69.2181 76.1572C74.0128 69.8263 73.6869 70.0591 81.8797 69.6401C85.7899 69.4539 89.9329 69.0819 91.0501 68.8491C98.3119 67.313 97.6602 74.2954 90.7242 75.9712Z" fill="#416BF5"/>
<path d="M153.474 71.4562C150.681 67.8253 146.445 61.867 144.071 58.2826C129.873 36.9626 119.539 33.3314 93.3315 40.5467C82.8577 43.4328 81.5543 43.3399 64.9358 37.7073C43.6159 30.4921 19.177 45.2018 24.67 65.0787C28.1147 77.6007 28.1611 77.4147 24.7164 89.4712C19.9218 106.415 20.2476 113.631 26.3457 125.082C44.6865 159.483 88.3971 158.179 100.36 122.941C104.084 112.001 105.481 109.208 108.972 105.764C115.117 99.7123 117.305 99.5726 124.799 105.066C135.413 112.839 144.956 114.841 154.126 111.21C168.231 105.624 168.044 90.4487 153.474 71.4562ZM130.618 102.598C114.558 91.1006 101.059 97.8502 93.3779 121.265C88.6764 135.602 86.1627 138.907 76.3406 143.842C59.536 152.267 38.3556 139.745 30.3955 116.703C27.4629 108.138 28.0681 100.783 33.049 85.4213C35.4696 77.9732 35.5626 76.2041 33.9334 70.1061C31.4662 60.8426 31.3266 59.7722 32.0714 56.1878C35.3299 40.6401 48.4571 36.8695 65.6341 42.4555C80.856 47.4364 84.58 47.4828 100.081 43.2002C117.305 38.4055 124.38 41.2918 135.32 57.5844C140.254 64.9393 143 68.7564 147.749 74.8079C166.881 99.2468 154.312 119.589 130.618 102.598Z" fill="#416BF5"/>
<path d="M122.89 64.7993C111.02 55.5824 113.441 50.1824 93.3309 51.5789C83.8347 52.2306 88.0242 54.1857 69.5903 55.7684C56.1839 56.9322 44.9187 59.6321 44.9187 73.2247C44.9187 77.0884 44.6859 79.0902 43.9411 81.5574C38.3551 99.9447 46.5013 120.613 59.2561 120.566C67.542 120.52 72.4764 116.563 79.3659 104.367C83.5554 96.9655 89.3741 91.2863 94.867 89.6105C95.7049 89.3777 100.872 89.0052 106.365 88.819C122.239 88.2604 127.08 85.7466 129.407 76.8556C130.664 72.1074 129.5 69.9199 122.89 64.7993ZM103.805 86.9107C87.9776 86.9107 82.7639 90.3086 74.6177 105.717C60.1871 132.949 39.5189 113.584 50.272 82.8143C51.8547 78.299 51.9478 77.8332 51.6219 74.1557C50.8306 64.5199 56.9286 60.3771 74.0591 58.7478C83.7415 57.8168 86.0691 56.9789 91.9344 55.2566C95.0067 54.3255 100.313 54.0929 103.106 54.6515C105.713 55.1635 111.02 62.1459 118.514 67.9647C131.316 77.8798 124.333 86.8641 103.805 86.9107Z" fill="#416BF5"/>
</svg>
