<svg width="118" height="118" viewBox="0 0 118 118" fill="none" xmlns="http://www.w3.org/2000/svg">
<path d="M52.3993 44.8076C54.4825 43.1939 66.1016 35.3011 68.2142 34.0981C70.004 33.1005 70.4147 32.7194 70.7962 31.7218C71.8231 28.993 73.4075 20.0731 74.0237 13.5007C74.3464 10.2439 72.2926 8.48357 69.7399 9.8626C69.1824 10.156 67.598 10.9482 66.219 11.6231C64.8399 12.2686 60.8495 14.7919 57.3286 17.1979C49.4359 22.626 49.6706 19.9266 48.3209 33.4823C48.0275 36.6218 45.7096 50.001 52.3993 44.8076ZM53.6023 26.4695C53.6023 25.5306 54.5999 24.7092 60.9376 20.4254C64.0771 18.2835 67.1285 16.1708 67.686 15.7013C69.065 14.5863 69.1237 14.6158 68.8303 16.4056C67.2752 25.8828 66.219 28.2595 65.192 31.047C58.6783 34.3625 51.343 39.8783 51.079 39.7316C50.9616 39.5556 53.6023 28.9048 53.6023 26.4695Z" fill="#FDB513"/>
<path d="M49.7294 75.8803C51.93 75.8803 66.1897 63.117 67.5394 62.1487C70.3268 60.1535 73.7891 44.368 71.6472 43.3704C70.7669 42.9597 70.943 42.9303 68.8304 43.4585C67.9209 43.6932 64.1359 45.395 60.4095 47.2728C51.93 51.5273 52.8102 50.0895 51.8126 52.6129C49.2013 59.1853 47.5288 72.1244 46.854 73.21C46.1791 74.1783 48.0276 75.8803 49.7294 75.8803ZM52.2527 66.1978C53.397 62.5888 54.6 57.5422 55.4509 54.0799C66.1604 49.2387 67.9795 47.8593 67.9795 48.4755C67.9795 49.209 66.8352 50.7644 65.4855 60.0948C62.9622 61.6499 57.6808 64.7598 54.3653 67.2538C50.8737 69.8651 51.0791 69.9534 52.2527 66.1978Z" fill="#FDB513"/>
<path d="M40.7802 56.1922C38.3449 52.0551 34.1492 56.4272 33.5623 56.8673C27.0193 61.7966 24.3199 64.9361 20.8577 67.9583C19.0679 69.5427 20.0655 69.1026 17.3661 78.6678C14.3733 89.2892 16.0458 91.5485 24.5547 85.1228C29.836 81.1324 30.1294 81.1908 35.939 77.0244C38.4329 75.2639 38.1689 73.4741 39.5186 68.6622C41.1323 62.9407 41.6605 57.6593 40.7802 56.1922ZM33.2102 73.2983C32.8875 75.3229 30.0707 75.1468 24.7307 78.9612C20.8577 81.7486 22.7062 80.692 23.6744 73.122L24.0265 70.3642C34.0024 62.4128 36.291 59.5667 36.291 60.623C36.291 60.623 33.445 71.8313 33.2102 73.2983Z" fill="#FDB513"/>
<path d="M96.3229 21.5406C91.8337 24.2987 80.1853 33.0424 79.0997 33.9813C78.1901 34.7442 77.3099 35.3897 77.1632 35.3897C76.0775 35.3897 76.8991 39.5268 76.0775 46.4513C74.8159 57.1901 75.4907 59.6251 86.2002 53.2581C88.1367 52.1138 91.0415 50.7057 92.7139 50.0896C97.7899 48.2117 97.4378 48.5638 97.6432 45.6591C97.7312 44.28 98.2594 41.4633 98.7582 39.3507C99.9612 34.4801 100.9 29.0518 101.193 25.6776C101.634 20.895 99.2276 19.7508 96.3229 21.5406ZM95.8534 30.167C94.9732 34.7442 92.6846 44.0157 92.5672 45.0426C92.4205 46.2456 88.078 47.2432 82.4152 50.4707C79.4811 52.1431 79.7158 52.4075 80.332 48.1531C80.9482 44.016 81.3296 39.9376 81.5937 37.1502C81.5937 37.1502 92.6552 29.3748 93.9463 28.4065C96.7923 26.2647 96.6163 26.1473 95.8534 30.167Z" fill="#FDB513"/>
<path d="M85.2907 57.8059C78.7183 61.9724 74.6106 64.7304 74.2585 64.7304C73.2022 64.7304 69.8573 79.9291 70.2094 83.0686C70.3268 84.0368 70.5909 86.7362 70.5909 86.9123C70.9136 89.3476 77.6327 86.1201 87.1979 78.8728C89.8679 76.8483 90.22 76.6722 91.335 76.7309C93.1248 76.8189 93.6236 75.8507 94.2691 71.1855C96.411 55.3119 94.2691 52.1138 85.2907 57.8059ZM88.9877 74.0022C88.9584 74.0315 87.1099 74.9998 84.8506 76.2028C76.6351 80.5159 74.2585 82.8045 74.5226 81.6896C74.6693 81.1027 75.9016 72.4178 76.3417 68.9555C76.4591 68.1046 76.6645 67.6645 77.1339 67.4298C77.486 67.2538 90.1027 59.8598 90.1027 59.8598C90.132 59.8891 89.5452 74.0022 88.9877 74.0022Z" fill="#FDB513"/>
<path d="M63.2848 71.5075C62.1112 72.241 56.0669 76.5835 52.5753 79.2242C47.4113 83.1266 46.6778 84.2418 44.976 90.8436C44.4185 93.0148 43.6263 95.8609 43.2155 97.1519C39.6946 108.331 43.5676 108.829 46.0616 107.157C47.8221 105.954 58.2968 97.2106 60.5854 95.0393C62.2872 93.3962 62.874 93.0148 63.4315 93.1322C65.2213 93.4843 65.8375 91.9582 66.9524 84.2709C67.862 77.9625 68.7129 68.1333 63.2848 71.5075ZM63.4022 77.4347C63.1088 79.4005 61.5243 88.819 61.5243 89.7286C61.5243 90.2274 47.0592 100.291 47.2939 99.4111C49.4652 90.8436 49.1131 85.2688 50.0813 85.2688C50.5801 85.2688 51.8125 84.4472 59.001 79.3125C64.077 75.6742 63.6369 75.8503 63.4022 77.4347Z" fill="#FDB513"/>
<path d="M23.2637 58.1877C24.3787 57.6009 27.4008 54.8132 31.4498 51.5564C41.6312 43.3115 42.0713 42.725 43.597 35.0963C45.2694 26.646 46.003 16.4351 39.3132 21.8632C37.3767 23.4476 26.3152 31.8685 24.7014 32.9835C22.4422 34.5679 19.9775 52.3779 19.0973 56.2509C18.7745 57.7473 21.5619 59.0386 23.2637 58.1877ZM27.5768 36.7101C38.345 28.5825 39.812 27.4089 39.812 27.9077C39.812 28.2597 37.8168 37.2089 37.6408 38.9693C37.4647 40.9059 31.3911 45.1013 24.2026 51.1749C23.2637 51.9378 24.32 50.7058 27.5768 36.7101Z" fill="#FDB513"/>
</svg>
