<svg width="420" height="280" viewBox="0 0 420 280" fill="none" xmlns="http://www.w3.org/2000/svg">
<rect width="420" height="280" rx="11.5848" fill="white"/>
<path d="M36.32 58L38.09 52.93H46.28L48.05 58H52.1L44.18 36.07H40.25L32.33 58H36.32ZM41.72 42.61C41.93 42.01 42.11 41.35 42.2 40.93C42.26 41.38 42.47 42.04 42.65 42.61L45.17 49.69H39.23L41.72 42.61ZM57.9699 58V49.6C57.9699 47.2 59.3799 46.06 61.1199 46.06C62.8599 46.06 63.9699 47.17 63.9699 49.24V58H67.6299V49.6C67.6299 47.17 68.9799 46.03 70.7499 46.03C72.4899 46.03 73.6299 47.14 73.6299 49.27V58H77.2599V48.31C77.2599 44.89 75.2799 42.73 71.6799 42.73C69.4299 42.73 67.6899 43.84 66.9399 45.55C66.1599 43.84 64.5999 42.73 62.3499 42.73C60.2199 42.73 58.7199 43.69 57.9699 44.92L57.6699 43.18H54.3099V58H57.9699ZM79.9829 50.56C79.9829 55.18 83.3129 58.36 87.9029 58.36C92.4929 58.36 95.8229 55.18 95.8229 50.56C95.8229 45.94 92.4929 42.76 87.9029 42.76C83.3129 42.76 79.9829 45.94 79.9829 50.56ZM83.6429 50.56C83.6429 47.86 85.3829 46.03 87.9029 46.03C90.4229 46.03 92.1629 47.86 92.1629 50.56C92.1629 53.26 90.4229 55.09 87.9029 55.09C85.3829 55.09 83.6429 53.26 83.6429 50.56ZM108.422 43.18V50.95C108.422 53.77 107.312 55.12 105.002 55.12C102.962 55.12 101.852 53.98 101.852 51.16V43.18H98.1924V52.45C98.1924 56.08 100.202 58.39 103.622 58.39C105.602 58.39 107.522 57.43 108.422 56.02L108.692 58H112.082V43.18H108.422ZM119.523 58V50.02C119.523 47.62 120.903 46.06 123.153 46.06C125.043 46.06 126.273 47.26 126.273 49.75V58H129.933V48.88C129.933 45.04 128.013 42.73 124.293 42.73C122.283 42.73 120.483 43.6 119.553 45.1L119.253 43.18H115.863V58H119.523ZM138.569 58V46.24H141.449V43.18H138.569V38.56H134.909V43.18H132.059V46.24H134.909V58H138.569ZM160.24 58C166.6 58 170.98 53.53 170.98 47.08C170.98 40.54 166.51 36.07 160.03 36.07H152.35V58H160.24ZM159.67 39.61C164.2 39.61 166.93 42.43 166.93 47.08C166.93 51.64 164.26 54.46 159.88 54.46H156.19V39.61H159.67ZM180.647 58.39C184.517 58.39 187.217 56.44 187.847 53.2H184.457C184.037 54.61 182.717 55.39 180.707 55.39C178.277 55.39 176.897 54.07 176.627 51.46L187.787 51.43V50.32C187.787 45.7 184.967 42.73 180.527 42.73C176.177 42.73 173.147 45.94 173.147 50.59C173.147 55.18 176.237 58.39 180.647 58.39ZM180.557 45.73C182.747 45.73 184.157 47.08 184.157 49.12H176.717C177.077 46.9 178.397 45.73 180.557 45.73ZM195.61 58V46.24H198.49V43.18H195.61V38.56H191.95V43.18H189.1V46.24H191.95V58H195.61ZM205.087 58.39C207.397 58.39 209.407 57.34 210.037 55.81L210.307 58H213.517V49C213.517 44.89 211.057 42.73 207.067 42.73C203.047 42.73 200.407 44.83 200.407 48.04H203.527C203.527 46.48 204.727 45.58 206.887 45.58C208.747 45.58 209.947 46.39 209.947 48.4V48.73L205.507 49.06C201.997 49.33 200.017 51.04 200.017 53.77C200.017 56.56 201.937 58.39 205.087 58.39ZM206.287 55.63C204.637 55.63 203.737 54.97 203.737 53.62C203.737 52.42 204.607 51.67 206.887 51.46L209.977 51.22V52C209.977 54.28 208.537 55.63 206.287 55.63ZM218.943 40.21C220.143 40.21 221.133 39.22 221.133 37.99C221.133 36.76 220.143 35.8 218.943 35.8C217.683 35.8 216.693 36.76 216.693 37.99C216.693 39.22 217.683 40.21 218.943 40.21ZM217.113 58H220.773V43.18H217.113V58ZM228.244 58V35.68H224.614V58H228.244ZM230.943 53.5C230.943 56.41 233.283 58.39 236.973 58.39C240.633 58.39 243.183 56.53 243.183 53.53C243.183 51.25 241.923 50.11 239.433 49.54L236.763 48.91C235.503 48.61 234.843 48.07 234.843 47.23C234.843 46.12 235.683 45.46 237.123 45.46C238.533 45.46 239.373 46.27 239.403 47.53H242.883C242.853 44.65 240.603 42.73 237.273 42.73C233.853 42.73 231.393 44.47 231.393 47.38C231.393 49.75 232.683 51.01 235.353 51.61L238.023 52.24C239.343 52.54 239.733 53.08 239.733 53.83C239.733 54.91 238.803 55.6 237.093 55.6C235.413 55.6 234.453 54.79 234.423 53.5H230.943Z" fill="#1C233E"/>
<path opacity="0.6" d="M33.596 124.393C33.596 128.005 35.948 130.252 39.665 130.252C43.403 130.252 45.755 127.984 45.755 124.393V114.649H43.067V124.225C43.067 126.409 41.849 127.648 39.665 127.648C37.481 127.648 36.284 126.43 36.284 124.225V114.649H33.596V124.393ZM48.6834 134.809H51.2454V128.614C51.8964 129.664 53.2404 130.273 54.7944 130.273C57.8814 130.273 59.6454 127.921 59.6454 124.687C59.6454 121.432 57.7134 119.311 54.7944 119.311C53.2194 119.311 51.8544 120.004 51.2244 121.201L51.0564 119.626H48.6834V134.809ZM51.2664 124.813C51.2664 122.944 52.4214 121.642 54.1854 121.642C55.9914 121.642 57.0624 122.965 57.0624 124.813C57.0624 126.661 55.9914 127.963 54.1854 127.963C52.4214 127.963 51.2664 126.682 51.2664 124.813ZM65.9483 130.273C67.5233 130.273 68.8673 129.58 69.4973 128.383L69.6653 130H72.0173V114.376H69.4763V120.949C68.8253 119.92 67.5443 119.311 66.0953 119.311C62.9663 119.311 61.0763 121.621 61.0763 124.855C61.0763 128.068 62.9453 130.273 65.9483 130.273ZM66.5153 127.921C64.7303 127.921 63.6383 126.619 63.6383 124.771C63.6383 122.923 64.7303 121.6 66.5153 121.6C68.3003 121.6 69.4553 122.902 69.4553 124.771C69.4553 126.64 68.3003 127.921 66.5153 127.921ZM77.7743 130.273C79.3913 130.273 80.7983 129.538 81.2393 128.467L81.4283 130H83.6753V123.7C83.6753 120.823 81.9533 119.311 79.1603 119.311C76.3463 119.311 74.4983 120.781 74.4983 123.028H76.6823C76.6823 121.936 77.5223 121.306 79.0343 121.306C80.3363 121.306 81.1763 121.873 81.1763 123.28V123.511L78.0683 123.742C75.6113 123.931 74.2253 125.128 74.2253 127.039C74.2253 128.992 75.5693 130.273 77.7743 130.273ZM78.6143 128.341C77.4593 128.341 76.8293 127.879 76.8293 126.934C76.8293 126.094 77.4383 125.569 79.0343 125.422L81.1973 125.254V125.8C81.1973 127.396 80.1893 128.341 78.6143 128.341ZM89.5766 130V121.768H91.5926V119.626H89.5766V116.392H87.0146V119.626H85.0196V121.768H87.0146V130H89.5766ZM97.7238 130.273C100.433 130.273 102.323 128.908 102.764 126.64H100.391C100.097 127.627 99.1728 128.173 97.7658 128.173C96.0648 128.173 95.0988 127.249 94.9098 125.422L102.722 125.401V124.624C102.722 121.39 100.748 119.311 97.6398 119.311C94.5948 119.311 92.4738 121.558 92.4738 124.813C92.4738 128.026 94.6368 130.273 97.7238 130.273ZM97.6608 121.411C99.1938 121.411 100.181 122.356 100.181 123.784H94.9728C95.2248 122.23 96.1488 121.411 97.6608 121.411ZM113.519 130.273C115.136 130.273 116.543 129.538 116.984 128.467L117.173 130H119.42V123.7C119.42 120.823 117.698 119.311 114.905 119.311C112.091 119.311 110.243 120.781 110.243 123.028H112.427C112.427 121.936 113.267 121.306 114.779 121.306C116.081 121.306 116.921 121.873 116.921 123.28V123.511L113.813 123.742C111.356 123.931 109.97 125.128 109.97 127.039C109.97 128.992 111.314 130.273 113.519 130.273ZM114.359 128.341C113.204 128.341 112.574 127.879 112.574 126.934C112.574 126.094 113.183 125.569 114.779 125.422L116.942 125.254V125.8C116.942 127.396 115.934 128.341 114.359 128.341ZM124.499 130V124.12C124.499 122.44 125.486 121.642 126.704 121.642C127.922 121.642 128.699 122.419 128.699 123.868V130H131.261V124.12C131.261 122.419 132.206 121.621 133.445 121.621C134.663 121.621 135.461 122.398 135.461 123.889V130H138.002V123.217C138.002 120.823 136.616 119.311 134.096 119.311C132.521 119.311 131.303 120.088 130.778 121.285C130.232 120.088 129.14 119.311 127.565 119.311C126.074 119.311 125.024 119.983 124.499 120.844L124.289 119.626H121.937V130H124.499ZM139.908 124.792C139.908 128.026 142.239 130.252 145.452 130.252C148.665 130.252 150.996 128.026 150.996 124.792C150.996 121.558 148.665 119.332 145.452 119.332C142.239 119.332 139.908 121.558 139.908 124.792ZM142.47 124.792C142.47 122.902 143.688 121.621 145.452 121.621C147.216 121.621 148.434 122.902 148.434 124.792C148.434 126.682 147.216 127.963 145.452 127.963C143.688 127.963 142.47 126.682 142.47 124.792ZM159.816 119.626V125.065C159.816 127.039 159.039 127.984 157.422 127.984C155.994 127.984 155.217 127.186 155.217 125.212V119.626H152.655V126.115C152.655 128.656 154.062 130.273 156.456 130.273C157.842 130.273 159.186 129.601 159.816 128.614L160.005 130H162.378V119.626H159.816ZM167.586 130V124.414C167.586 122.734 168.552 121.642 170.127 121.642C171.45 121.642 172.311 122.482 172.311 124.225V130H174.873V123.616C174.873 120.928 173.529 119.311 170.925 119.311C169.518 119.311 168.258 119.92 167.607 120.97L167.397 119.626H165.024V130H167.586ZM180.918 130V121.768H182.934V119.626H180.918V116.392H178.356V119.626H176.361V121.768H178.356V130H180.918Z" fill="#3D3D3D"/>
<rect x="32" y="152" width="201" height="20" rx="10" fill="#C5CDD6"/>
<rect x="32" y="188" width="134" height="20" rx="10" fill="#C5CDD6"/>
<rect x="32" y="224" width="186" height="20" rx="10" fill="#C5CDD6"/>
<rect x="308" y="26" width="80" height="40" rx="20" fill="#00CA00"/>
<rect x="352" y="30" width="32" height="32" rx="16" fill="white"/>
</svg>
