<svg width="420" height="280" viewBox="0 0 420 280" fill="none" xmlns="http://www.w3.org/2000/svg">
<rect width="420" height="280" rx="11.5848" fill="white"/>
<path d="M38.15 58V50.14C38.15 47.41 38.12 45.34 37.91 44.02L43.46 58H47L52.58 43.99C52.37 45.55 52.37 46.84 52.37 51.25V58H56.09V36.07H52.31L45.23 53.53L38.15 36.07H34.43V58H38.15ZM64.8137 58.39C67.1237 58.39 69.1337 57.34 69.7637 55.81L70.0337 58H73.2437V49C73.2437 44.89 70.7837 42.73 66.7937 42.73C62.7737 42.73 60.1337 44.83 60.1337 48.04H63.2537C63.2537 46.48 64.4537 45.58 66.6137 45.58C68.4737 45.58 69.6737 46.39 69.6737 48.4V48.73L65.2337 49.06C61.7237 49.33 59.7437 51.04 59.7437 53.77C59.7437 56.56 61.6637 58.39 64.8137 58.39ZM66.0137 55.63C64.3637 55.63 63.4637 54.97 63.4637 53.62C63.4637 52.42 64.3337 51.67 66.6137 51.46L69.7037 51.22V52C69.7037 54.28 68.2637 55.63 66.0137 55.63ZM78.6692 40.21C79.8692 40.21 80.8592 39.22 80.8592 37.99C80.8592 36.76 79.8692 35.8 78.6692 35.8C77.4092 35.8 76.4192 36.76 76.4192 37.99C76.4192 39.22 77.4092 40.21 78.6692 40.21ZM76.8392 58H80.4992V43.18H76.8392V58ZM87.9406 58V50.02C87.9406 47.62 89.3206 46.06 91.5706 46.06C93.4606 46.06 94.6906 47.26 94.6906 49.75V58H98.3506V48.88C98.3506 45.04 96.4306 42.73 92.7106 42.73C90.7006 42.73 88.9006 43.6 87.9706 45.1L87.6706 43.18H84.2806V58H87.9406ZM115.073 58V46.24H117.953V43.18H115.073V38.56H111.413V43.18H108.563V46.24H111.413V58H115.073ZM129.528 43.12C128.928 42.97 128.418 42.91 127.908 42.91C125.928 42.91 124.518 43.9 123.888 45.37L123.678 43.21H120.228V58H123.888V50.8C123.888 47.92 125.538 46.51 128.178 46.51H129.528V43.12ZM142.055 43.18V50.95C142.055 53.77 140.945 55.12 138.635 55.12C136.595 55.12 135.485 53.98 135.485 51.16V43.18H131.825V52.45C131.825 56.08 133.835 58.39 137.255 58.39C139.235 58.39 141.155 57.43 142.055 56.02L142.325 58H145.715V43.18H142.055ZM148.333 50.56C148.333 55.27 151.272 58.39 155.773 58.39C159.643 58.39 162.523 56.02 162.973 52.57H159.283C158.893 54.19 157.603 55.09 155.773 55.09C153.433 55.09 151.993 53.35 151.993 50.56C151.993 47.77 153.553 46 155.893 46C157.633 46 158.863 46.87 159.283 48.55H162.943C162.553 44.98 159.793 42.73 155.743 42.73C151.363 42.73 148.333 45.97 148.333 50.56ZM169.387 58V54.01L171.547 51.76L175.417 58H179.617L174.097 49.06L179.737 43.18H175.147L169.387 49.39V35.68H165.757V58H169.387Z" fill="#1C233E"/>
<path opacity="0.6" d="M35.024 130L36.263 126.451H41.996L43.235 130H46.07L40.526 114.649H37.775L32.231 130H35.024ZM38.804 119.227C38.951 118.807 39.077 118.345 39.14 118.051C39.182 118.366 39.329 118.828 39.455 119.227L41.219 124.183H37.061L38.804 119.227ZM50.1789 130V124.12C50.1789 122.44 51.1659 121.642 52.3839 121.642C53.6019 121.642 54.3789 122.419 54.3789 123.868V130H56.9409V124.12C56.9409 122.419 57.8859 121.621 59.1249 121.621C60.3429 121.621 61.1409 122.398 61.1409 123.889V130H63.6819V123.217C63.6819 120.823 62.2959 119.311 59.7759 119.311C58.2009 119.311 56.9829 120.088 56.4579 121.285C55.9119 120.088 54.8199 119.311 53.2449 119.311C51.7539 119.311 50.7039 119.983 50.1789 120.844L49.9689 119.626H47.6169V130H50.1789ZM65.588 124.792C65.588 128.026 67.919 130.252 71.132 130.252C74.345 130.252 76.676 128.026 76.676 124.792C76.676 121.558 74.345 119.332 71.132 119.332C67.919 119.332 65.588 121.558 65.588 124.792ZM68.15 124.792C68.15 122.902 69.368 121.621 71.132 121.621C72.896 121.621 74.114 122.902 74.114 124.792C74.114 126.682 72.896 127.963 71.132 127.963C69.368 127.963 68.15 126.682 68.15 124.792ZM85.4957 119.626V125.065C85.4957 127.039 84.7187 127.984 83.1017 127.984C81.6737 127.984 80.8967 127.186 80.8967 125.212V119.626H78.3347V126.115C78.3347 128.656 79.7417 130.273 82.1357 130.273C83.5217 130.273 84.8657 129.601 85.4957 128.614L85.6847 130H88.0577V119.626H85.4957ZM93.2659 130V124.414C93.2659 122.734 94.2319 121.642 95.8069 121.642C97.1299 121.642 97.9909 122.482 97.9909 124.225V130H100.553V123.616C100.553 120.928 99.2089 119.311 96.6049 119.311C95.1979 119.311 93.9379 119.92 93.2869 120.97L93.0769 119.626H90.7039V130H93.2659ZM106.598 130V121.768H108.614V119.626H106.598V116.392H104.036V119.626H102.041V121.768H104.036V130H106.598ZM118.45 130V114.376H115.909V130H118.45ZM120.528 124.792C120.528 128.026 122.859 130.252 126.072 130.252C129.285 130.252 131.616 128.026 131.616 124.792C131.616 121.558 129.285 119.332 126.072 119.332C122.859 119.332 120.528 121.558 120.528 124.792ZM123.09 124.792C123.09 122.902 124.308 121.621 126.072 121.621C127.836 121.621 129.054 122.902 129.054 124.792C129.054 126.682 127.836 127.963 126.072 127.963C124.308 127.963 123.09 126.682 123.09 124.792ZM136.734 130.273C138.351 130.273 139.758 129.538 140.199 128.467L140.388 130H142.635V123.7C142.635 120.823 140.913 119.311 138.12 119.311C135.306 119.311 133.458 120.781 133.458 123.028H135.642C135.642 121.936 136.482 121.306 137.994 121.306C139.296 121.306 140.136 121.873 140.136 123.28V123.511L137.028 123.742C134.571 123.931 133.185 125.128 133.185 127.039C133.185 128.992 134.529 130.273 136.734 130.273ZM137.574 128.341C136.419 128.341 135.789 127.879 135.789 126.934C135.789 126.094 136.398 125.569 137.994 125.422L140.157 125.254V125.8C140.157 127.396 139.149 128.341 137.574 128.341ZM149.415 130.273C150.99 130.273 152.334 129.58 152.964 128.383L153.132 130H155.484V114.376H152.943V120.949C152.292 119.92 151.011 119.311 149.562 119.311C146.433 119.311 144.543 121.621 144.543 124.855C144.543 128.068 146.412 130.273 149.415 130.273ZM149.982 127.921C148.197 127.921 147.105 126.619 147.105 124.771C147.105 122.923 148.197 121.6 149.982 121.6C151.767 121.6 152.922 122.902 152.922 124.771C152.922 126.64 151.767 127.921 149.982 127.921ZM162.795 130.273C165.504 130.273 167.394 128.908 167.835 126.64H165.462C165.168 127.627 164.244 128.173 162.837 128.173C161.136 128.173 160.17 127.249 159.981 125.422L167.793 125.401V124.624C167.793 121.39 165.819 119.311 162.711 119.311C159.666 119.311 157.545 121.558 157.545 124.813C157.545 128.026 159.708 130.273 162.795 130.273ZM162.732 121.411C164.265 121.411 165.252 122.356 165.252 123.784H160.044C160.296 122.23 161.22 121.411 162.732 121.411ZM174.107 130.273C175.682 130.273 177.026 129.58 177.656 128.383L177.824 130H180.176V114.376H177.635V120.949C176.984 119.92 175.703 119.311 174.254 119.311C171.125 119.311 169.235 121.621 169.235 124.855C169.235 128.068 171.104 130.273 174.107 130.273ZM174.674 127.921C172.889 127.921 171.797 126.619 171.797 124.771C171.797 122.923 172.889 121.6 174.674 121.6C176.459 121.6 177.614 122.902 177.614 124.771C177.614 126.64 176.459 127.921 174.674 127.921ZM187.477 119.626V121.768H188.968V130H191.509V121.768H193.987V119.626H191.509V118.366C191.509 117.337 191.824 116.665 193.126 116.665H194.029V114.481C193.588 114.397 193.105 114.376 192.706 114.376C190.459 114.376 188.968 115.552 188.968 118.366V119.626H187.477ZM194.705 124.792C194.705 128.026 197.036 130.252 200.249 130.252C203.462 130.252 205.793 128.026 205.793 124.792C205.793 121.558 203.462 119.332 200.249 119.332C197.036 119.332 194.705 121.558 194.705 124.792ZM197.267 124.792C197.267 122.902 198.485 121.621 200.249 121.621C202.013 121.621 203.231 122.902 203.231 124.792C203.231 126.682 202.013 127.963 200.249 127.963C198.485 127.963 197.267 126.682 197.267 124.792ZM214.334 119.584C213.914 119.479 213.557 119.437 213.2 119.437C211.814 119.437 210.827 120.13 210.386 121.159L210.239 119.647H207.824V130H210.386V124.96C210.386 122.944 211.541 121.957 213.389 121.957H214.334V119.584ZM224.29 130V124.12C224.29 122.44 225.277 121.642 226.495 121.642C227.713 121.642 228.49 122.419 228.49 123.868V130H231.052V124.12C231.052 122.419 231.997 121.621 233.236 121.621C234.454 121.621 235.252 122.398 235.252 123.889V130H237.793V123.217C237.793 120.823 236.407 119.311 233.887 119.311C232.312 119.311 231.094 120.088 230.569 121.285C230.023 120.088 228.931 119.311 227.356 119.311C225.865 119.311 224.815 119.983 224.29 120.844L224.08 119.626H221.728V130H224.29ZM243.395 130.273C245.012 130.273 246.419 129.538 246.86 128.467L247.049 130H249.296V123.7C249.296 120.823 247.574 119.311 244.781 119.311C241.967 119.311 240.119 120.781 240.119 123.028H242.303C242.303 121.936 243.143 121.306 244.655 121.306C245.957 121.306 246.797 121.873 246.797 123.28V123.511L243.689 123.742C241.232 123.931 239.846 125.128 239.846 127.039C239.846 128.992 241.19 130.273 243.395 130.273ZM244.235 128.341C243.08 128.341 242.45 127.879 242.45 126.934C242.45 126.094 243.059 125.569 244.655 125.422L246.818 125.254V125.8C246.818 127.396 245.81 128.341 244.235 128.341ZM253.094 117.547C253.934 117.547 254.627 116.854 254.627 115.993C254.627 115.132 253.934 114.46 253.094 114.46C252.212 114.46 251.519 115.132 251.519 115.993C251.519 116.854 252.212 117.547 253.094 117.547ZM251.813 130H254.375V119.626H251.813V130ZM259.584 130V124.414C259.584 122.734 260.55 121.642 262.125 121.642C263.448 121.642 264.309 122.482 264.309 124.225V130H266.871V123.616C266.871 120.928 265.527 119.311 262.923 119.311C261.516 119.311 260.256 119.92 259.605 120.97L259.395 119.626H257.022V130H259.584Z" fill="#3D3D3D"/>
<rect x="32" y="152" width="86" height="20" rx="10" fill="#C5CDD6"/>
<rect x="32" y="188" width="258" height="20" rx="10" fill="#C5CDD6"/>
<rect x="32" y="224" width="186" height="20" rx="10" fill="#C5CDD6"/>
<rect opacity="0.1" x="308" y="26" width="80" height="40" rx="20" fill="#565F73"/>
<rect x="312" y="30" width="32" height="32" rx="16" fill="white"/>
</svg>
