<svg width="135" height="129" viewBox="0 0 135 129" fill="none" xmlns="http://www.w3.org/2000/svg">
<path fill-rule="evenodd" clip-rule="evenodd" d="M89.24 24.2857C87.9195 23.8013 81.6138 21.4431 75.2085 18.954C60.0211 13.1368 58.2451 13.413 60.5382 20.9363C61.7862 25.0759 83.3318 35.9836 96.4587 39.1487C105.76 41.4195 99.143 27.8361 89.24 24.2857ZM113.53 36.787C109.342 35.9611 108.624 36.7564 109.902 40.5007C111.584 45.4273 122.976 50.1195 124.234 46.3899C125.166 43.3212 119.135 37.899 113.53 36.787ZM105.15 61.8703C86.8347 56.0756 94.5957 68.4983 97.5682 69.7939L105.364 73.2937C119.633 79.6443 124.787 77.5 117.739 68.1342C115.478 65.0555 115.809 65.2178 105.15 61.8703ZM43.992 36.7606C31.7614 34.6097 29.3966 35.4169 31.8737 41.0622C33.3464 44.41 35.1307 45.2861 45.9506 48.1386C55.5173 50.7037 57.19 49.8027 55.0038 43.3981C53.5924 39.4243 51.4429 38.1228 43.992 36.7606ZM67.811 70.7653C59.8244 68.1559 55.8878 70.1597 58.5596 75.4085C60.6968 79.5746 79.4119 86.0578 80.8397 83.1501C83.1111 78.5243 78.5035 74.2114 67.811 70.7653ZM88.4552 107.394C78.0424 106.218 82.1197 114.617 93.4683 117.729C98.4499 119.109 100.257 118.602 100.171 115.771C100.012 111.92 94.6829 108.074 88.4552 107.394ZM42.6063 86.6849C13.0641 76.3615 28.0653 92.9136 29.2548 93.4977C36.2585 96.7727 53.2543 102.248 55.4904 101.869C63.7442 100.427 56.1067 91.4277 42.6063 86.6849ZM4.86337 76.0254C2.03245 76.1116 1.57697 76.8722 2.3913 80.2246C3.44343 84.5961 12.3912 88.0876 15.4003 85.3002C18.1473 82.7123 10.4603 75.9851 4.86337 76.0254Z" fill="#FDB513"/>
</svg>
