<svg width="162" height="162" viewBox="0 0 162 162" fill="none" xmlns="http://www.w3.org/2000/svg">
<path fill-rule="evenodd" clip-rule="evenodd" d="M80.4443 17.0534C75.3008 18.4304 67.5248 23.0473 60.4373 28.9198C9.20473 71.4853 14.6316 133.37 70.6433 144.791C114.991 153.822 158.893 73.7128 124.508 46.4968C103.043 29.4869 69.4688 48.6028 63.2318 81.3268C57.9263 109.272 85.4258 129.644 103.732 111.378C122.605 92.5457 122.402 66.2203 103.327 66.0583C88.5038 65.9368 79.7558 88.8598 92.7563 93.7198C100.451 96.5953 109.523 87.6448 103.489 83.1493C101.504 81.6508 100.168 81.9748 99.4793 83.9998C98.1428 88.2118 93.6878 91.2088 92.9588 88.4143C90.8123 80.4763 103.448 66.1798 108.43 70.9183C115.517 77.6413 109.523 96.9193 96.6038 108.867C77.4878 126.565 60.9638 97.4057 74.6528 70.0682C90.4073 38.5995 123.536 34.9544 129.571 64.0333C136.091 95.3398 103.124 141.55 75.1793 140.052C39.3772 138.148 21.0306 101.577 39.4987 65.2082C49.1378 46.1732 69.8333 25.6394 85.1828 19.8884C91.3388 17.5799 87.3698 15.2309 80.4443 17.0534Z" fill="#C5CDD6"/>
</svg>
