<svg width="219" height="219" viewBox="0 0 219 219" fill="none" xmlns="http://www.w3.org/2000/svg">
<path d="M97.7763 83.6104C101.664 80.5991 123.345 65.8714 127.287 63.6266C130.626 61.7651 131.393 61.0539 132.105 59.1924C134.021 54.1004 136.977 37.4561 138.127 25.1921C138.729 19.1149 134.897 15.8302 130.134 18.4034C129.093 18.9509 126.137 20.4292 123.564 21.6884C120.99 22.8929 113.544 27.6014 106.974 32.0909C92.2466 42.2197 92.6846 37.1827 90.1661 62.4774C89.6186 68.3357 85.2933 93.3011 97.7763 83.6104ZM100.021 49.3917C100.021 47.6397 101.883 46.1069 113.709 38.1134C119.567 34.1167 125.261 30.1744 126.301 29.2984C128.874 27.2179 128.984 27.2728 128.436 30.6126C125.535 48.2968 123.564 52.7318 121.647 57.9332C109.493 64.1199 95.8053 74.4124 95.3126 74.1386C95.0936 73.8101 100.021 53.936 100.021 49.3917Z" fill="#51A57B"/>
<path d="M92.7946 141.591C96.9008 141.591 123.509 117.775 126.028 115.968C131.229 112.245 137.69 82.7896 133.693 80.9281C132.05 80.1616 132.379 80.1068 128.437 81.0923C126.74 81.5303 119.677 84.7058 112.724 88.2098C96.9008 96.1486 98.5433 93.4658 96.6818 98.1743C91.8091 110.438 88.6883 134.583 87.4291 136.608C86.1698 138.415 89.6191 141.591 92.7946 141.591ZM97.5031 123.524C99.6383 116.789 101.883 107.372 103.471 100.912C123.455 91.8781 126.849 89.3043 126.849 90.454C126.849 91.8228 124.714 94.7251 122.195 112.136C117.487 115.037 107.632 120.84 101.445 125.494C94.9298 130.367 95.3131 130.532 97.5031 123.524Z" fill="#51A57B"/>
<path d="M76.0955 104.853C71.5513 97.1336 63.722 105.292 62.627 106.113C50.4179 115.311 45.3808 121.169 38.9203 126.809C35.5806 129.765 37.4421 128.944 32.4051 146.792C26.8206 166.612 29.9414 170.828 45.8189 158.837C55.6738 151.391 56.2213 151.5 67.0618 143.726C71.7155 140.441 71.2227 137.101 73.7412 128.122C76.7525 117.446 77.738 107.591 76.0955 104.853ZM61.97 136.773C61.3678 140.551 56.1118 140.222 46.1473 147.34C38.9203 152.541 42.3696 150.57 44.1764 136.444L44.8334 131.298C63.4483 116.461 67.7187 111.15 67.7187 113.121C67.7187 113.121 62.408 134.036 61.97 136.773Z" fill="#51A57B"/>
<path d="M179.738 40.1933C171.361 45.3398 149.625 61.6554 147.599 63.4074C145.902 64.8309 144.26 66.0354 143.986 66.0354C141.96 66.0354 143.493 73.7552 141.96 86.6762C139.606 106.715 140.865 111.258 160.849 99.3776C164.462 97.2424 169.883 94.6149 173.003 93.4652C182.475 89.9612 181.818 90.6182 182.201 85.198C182.366 82.6247 183.351 77.3687 184.282 73.4267C186.527 64.3382 188.279 54.2091 188.826 47.9129C189.647 38.9886 185.158 36.8535 179.738 40.1933ZM178.862 56.2899C177.219 64.8309 172.949 82.1314 172.73 84.0476C172.456 86.2924 164.353 88.1539 153.786 94.1764C148.311 97.2971 148.749 97.7905 149.899 89.8517C151.049 82.132 151.76 74.5217 152.253 69.3204C152.253 69.3204 172.894 54.8117 175.303 53.005C180.614 49.0083 180.285 48.7893 178.862 56.2899Z" fill="#51A57B"/>
<path d="M159.152 107.865C146.888 115.639 139.223 120.786 138.566 120.786C136.595 120.786 130.353 149.146 131.01 155.004C131.229 156.811 131.722 161.848 131.722 162.177C132.324 166.721 144.862 160.698 162.71 147.175C167.693 143.397 168.35 143.069 170.43 143.178C173.77 143.343 174.701 141.536 175.905 132.831C179.902 103.211 175.905 97.2432 159.152 107.865ZM166.05 138.087C165.995 138.141 162.546 139.948 158.33 142.193C143 150.241 138.566 154.512 139.058 152.431C139.332 151.336 141.632 135.13 142.453 128.67C142.672 127.082 143.055 126.261 143.931 125.823C144.588 125.494 168.131 111.697 168.131 111.697C168.185 111.752 167.09 138.087 166.05 138.087Z" fill="#51A57B"/>
<path d="M118.088 133.432C115.898 134.801 104.62 142.904 98.1046 147.831C88.4686 155.113 87.0998 157.194 83.9243 169.513C82.8841 173.565 81.4058 178.875 80.6393 181.284C74.0693 202.144 81.2963 203.074 85.9501 199.954C89.2351 197.709 108.781 181.394 113.051 177.342C116.227 174.276 117.322 173.565 118.362 173.784C121.702 174.441 122.852 171.593 124.932 157.249C126.629 145.477 128.217 127.136 118.088 133.432ZM118.307 144.492C117.76 148.161 114.803 165.735 114.803 167.433C114.803 168.363 87.8116 187.143 88.2496 185.5C92.3011 169.513 91.6441 159.111 93.4508 159.111C94.3816 159.111 96.6811 157.578 110.095 147.996C119.567 141.207 118.745 141.536 118.307 144.492Z" fill="#51A57B"/>
<path d="M43.4094 108.577C45.4899 107.482 51.1292 102.28 58.6846 96.2031C77.6828 80.8184 78.5041 79.7239 81.3511 65.4889C84.4718 49.7207 85.8406 30.6674 73.3576 40.7961C69.7441 43.7526 49.1035 59.4659 46.0923 61.5464C41.8765 64.5029 37.2774 97.7361 35.6349 104.963C35.0327 107.755 40.2339 110.165 43.4094 108.577ZM51.4576 68.5002C71.5508 53.3342 74.2883 51.1442 74.2883 52.0749C74.2883 52.7319 70.5653 69.4309 70.2368 72.7159C69.9083 76.3294 58.5751 84.1581 45.1614 95.4914C43.4094 96.9149 45.3804 94.6159 51.4576 68.5002Z" fill="#51A57B"/>
</svg>
