<svg width="179" height="179" viewBox="0 0 179 179" fill="none" xmlns="http://www.w3.org/2000/svg">
<path d="M62.3122 92.5745C68.7562 83.0875 62.6254 74.0928 52.7804 78.5678C43.9646 82.5953 37.5654 91.9927 35.8649 103.449C34.5224 112.354 54.3914 104.165 62.3122 92.5745ZM43.6514 99.0633C46.7839 91.7243 51.3037 86.0412 56.3157 83.1324C59.0007 81.5662 59.3139 81.7453 58.8216 84.5645C58.1951 87.8313 50.0954 97.5867 45.3966 100.585C42.1746 102.643 42.1299 102.643 43.6514 99.0633Z" fill="#00CA00"/>
<path d="M129.929 69.8413C119.95 72.571 110.016 81.2972 110.016 87.4279C110.016 90.2919 112.79 92.3952 113.954 90.3367C114.312 89.7102 114.67 89.7549 117.176 91.0079C123.933 94.4089 135.747 88.6808 140.177 79.9546C143.668 73.1078 138.119 67.6038 129.929 69.8413ZM134.539 75.5246C132.749 80.7156 117.802 90.4263 116.549 87.1596C115.878 85.4591 125.186 78.1202 131.451 75.3904C135.165 73.7347 135.12 73.7793 134.539 75.5246Z" fill="#00CA00"/>
<path d="M53.8544 110.877C48.4844 112.801 39.7581 122.557 39.7581 126.674C39.7581 126.987 39.0421 128.732 38.1919 130.522C33.5379 140.233 44.2331 143.768 53.9439 135.758C68.9351 123.362 68.8904 105.507 53.8544 110.877ZM59.2244 116.829C56.0471 127.345 41.9061 136.25 43.7408 134.55C43.1143 134.773 42.443 134.237 42.5773 133.565C43.696 128.061 51.2588 118.843 57.3896 115.576C59.6718 114.368 59.9404 114.547 59.2244 116.829Z" fill="#00CA00"/>
<path d="M132.077 95.3045C120.487 98.9292 106.167 112.846 109.568 117.142C114.356 123.228 131.182 116.739 140.669 105.104C146.487 97.9445 141.564 92.3062 132.077 95.3045ZM136.687 100.943C134.181 105.597 115.072 118.037 113.059 116.739C111.716 115.889 112.745 114.233 114.401 114.502C116.057 114.815 116.146 114.726 118.831 111.727C122.232 107.924 127.916 102.912 132.435 100.406C136.463 98.213 137.358 99.7346 136.687 100.943Z" fill="#00CA00"/>
<path d="M124.246 60.9813C140.132 51.4943 141.654 35.7423 126.349 39.5013C116.37 41.9626 107.375 51.4048 105.406 55.298C103.437 59.2808 104.332 61.9658 107.554 61.4288C108.181 61.3393 108.673 61.384 108.673 61.563C108.673 64.964 118.205 64.6061 124.246 60.9813ZM117.802 51.5388C122.769 47.3323 130.601 43.0367 130.601 44.5134C130.601 47.0194 119.771 56.9985 114.714 59.1018C111.537 60.3995 113.775 54.9398 117.802 51.5388Z" fill="#00CA00"/>
<path d="M71.3068 96.3334C71.6648 95.9306 73.4994 92.5744 73.6784 92.3059C74.1707 93.8721 75.4684 95.125 77.0347 95.5725C82.2257 97.094 88.804 93.2007 96.143 84.0717C98.9175 80.6259 100.394 77.8962 100.573 75.7929C101.647 63.6209 71.083 72.9737 69.83 92.5742C69.651 95.4829 70.5013 97.6311 71.3068 96.3334ZM81.465 82.4159C87.9985 75.8376 95.8745 71.4524 95.0243 74.8534C94.3083 77.8069 90.3703 82.1924 86.298 85.5934C83.5683 87.9204 78.5562 91.5896 77.4822 90.4709C75.8264 88.7256 81.4203 82.4606 81.465 82.4159Z" fill="#00CA00"/>
<path d="M76.8109 70.0651C84.7764 70.0651 98.3805 57.2667 98.3805 49.7935C98.3805 45.0052 91.847 42.3203 85.6268 44.5131C68.8903 50.4201 62.1329 70.0651 76.8109 70.0651ZM76.8557 62.9947C78.3772 57.7142 82.4047 53.0155 87.909 50.0172C91.1757 48.2272 91.2653 48.2272 90.6388 50.0172C88.9383 55.1187 75.5132 67.7382 76.8557 62.9947Z" fill="#00CA00"/>
<path d="M90.3257 99.6899C80.0779 103.27 67.2794 119.245 71.7544 122.781C72.3809 123.273 72.8732 123.989 72.8732 124.392C72.8732 134.013 94.6217 124.347 100.26 112.264C104.422 103.493 98.9624 96.6469 90.3257 99.6899ZM95.0244 106.805C93.2344 112.309 81.6441 123.184 77.6166 123.318C74.8869 123.407 78.3327 118.53 79.0039 117.5C81.1967 114.055 88.8042 107.297 93.1002 104.926C95.8299 103.404 96.0537 103.672 95.0244 106.805Z" fill="#00CA00"/>
</svg>
