<svg width="271" height="271" viewBox="0 0 271 271" fill="none" xmlns="http://www.w3.org/2000/svg">
<path d="M131.894 151.639C133.52 148.049 127.693 145.203 122.612 147.168C119.631 148.32 111.027 155.366 111.23 156.45C112.517 163.089 128.303 159.431 131.894 151.639Z" fill="#51A57B"/>
<path d="M175.05 137.005C164.82 141.273 105.607 184.294 101.745 190.188C99.6445 193.373 106.284 196.421 110.62 194.321C115.701 191.95 159.197 158.549 178.167 142.086C180.809 139.85 178.234 135.717 175.05 137.005Z" fill="#51A57B"/>
<path d="M44.3606 133.415C34.8078 139.783 33.0463 142.222 36.5693 143.984C43.4798 147.507 47.9514 142.222 56.4201 136.735C62.1789 132.941 52.0163 128.266 44.3606 133.415Z" fill="#51A57B"/>
<path d="M74.1027 146.626C81.3519 143.103 91.7177 135.921 103.98 125.759C109.197 121.423 119.902 113.563 127.761 108.279C141.785 98.8614 143.343 97.5064 141.107 96.6934C139.21 95.9482 138.804 96.1521 115.769 110.041C92.6662 123.997 75.7287 134.973 67.8697 141.206C57.9783 148.997 64.5499 151.301 74.1027 146.626Z" fill="#51A57B"/>
<path d="M70.1734 125.284C75.1869 122.507 84.8074 115.732 105.336 101.369C133.723 81.518 151.406 70.0682 154.116 67.1549L156.148 64.9868C153.235 62.6155 151.473 60.4475 142.124 65.3255C129.522 71.8297 85.6204 103.062 69.1572 116.747C59.8755 124.335 62.5855 129.485 70.1734 125.284Z" fill="#51A57B"/>
<path d="M61.6369 168.577C54.5909 174.2 54.3875 174.471 57.0298 176.436C62.1788 180.23 81.1488 171.016 78.1001 166.138C75.1868 161.463 69.428 162.276 61.6369 168.577Z" fill="#51A57B"/>
<path d="M226.947 53.8757C222.069 56.3147 121.528 124.268 90.5661 147.913C77.3548 158.007 85.7558 159.566 94.9021 155.162C106.623 149.539 112.382 141.747 194.427 87.2086C227.286 65.3256 236.432 58.2115 236.432 54.4175C236.432 52.114 231.012 51.8432 226.947 53.8757Z" fill="#51A57B"/>
<path d="M180.199 115.325C186.229 109.837 201.066 98.7258 205.267 95.7448C207.028 94.3221 202.421 93.4413 200.05 94.7286C159.739 116.815 122.951 146.422 135.146 146.422C140.227 146.422 164.346 129.891 180.199 115.325Z" fill="#51A57B"/>
<path d="M201.202 115.461C184.129 125.014 180.877 128.401 186.568 131.111C191.039 133.211 192.394 132.601 204.657 123.319C220.714 111.124 214.616 107.941 201.202 115.461Z" fill="#51A57B"/>
<path d="M120.918 207.262C113.262 212.208 112.043 215.189 116.785 217.492C121.867 219.999 129.455 216.612 133.045 210.311C134.875 206.991 125.119 204.552 120.918 207.262Z" fill="#51A57B"/>
<path d="M200.186 146.558C192.733 151.978 175.321 165.392 157.164 177.52C132.029 194.322 127.083 199.809 134.739 202.045C139.414 203.4 149.78 196.219 168.343 178.333C175.05 171.829 192.462 157.262 201.676 150.149C206.69 146.287 205.199 142.899 200.186 146.558Z" fill="#51A57B"/>
</svg>
