<svg width="198" height="198" viewBox="0 0 198 198" fill="none" xmlns="http://www.w3.org/2000/svg">
<path d="M38.0172 148.507C32.0685 150.277 23.5142 157.897 27.4472 157.897C30.0037 157.897 40.967 151.162 40.967 149.588C40.967 147.327 38.3614 148.408 38.0172 148.507Z" fill="#416BF5"/>
<path d="M30.0527 98.2128C24.9397 97.4262 19.4827 97.5251 17.5161 98.41C12.1082 100.819 13.9765 102.589 21.99 102.589C29.6594 102.589 36.0505 99.0978 30.0527 98.2128Z" fill="#416BF5"/>
<path d="M33.7893 131.693C34.8217 130.021 32.8061 129.529 28.9222 130.414C21.4987 132.135 15.6975 135.085 16.9266 136.56C18.4014 138.33 32.1178 134.397 33.7893 131.693Z" fill="#416BF5"/>
<path d="M67.2199 132.135C66.335 131.791 66.3841 131.791 63.9751 132.381C57.9281 133.807 51.2916 137.15 51.2916 138.772C51.2916 141.132 57.5845 138.281 63.3857 136.757C67.0237 135.773 69.3831 132.971 67.2199 132.135Z" fill="#416BF5"/>
<path d="M60.9273 121.418C66.1877 118.566 62.4022 116.698 54.192 118.075C50.4065 118.714 48.194 120.336 49.5705 121.467C50.7014 122.401 59.1083 122.401 60.9273 121.418Z" fill="#416BF5"/>
<path d="M36.7881 71.763C30.9869 68.7149 30.4953 68.5679 28.7254 69.502C26.7589 70.4852 27.0045 71.2222 30.2493 73.6312C35.8538 77.7609 39.2461 78.9413 41.3601 77.4664C43.5725 75.9423 42.6385 74.8111 36.7881 71.763Z" fill="#416BF5"/>
<path d="M109.598 54.1627C111.172 54.1627 122.282 46.5919 123.167 44.9204C124.347 42.7572 121.249 41.8233 117.562 43.2981C109.352 46.5429 103.797 54.1627 109.598 54.1627Z" fill="#416BF5"/>
<path d="M120.119 74.6642C118.153 75.0083 111.122 78.5481 110.041 79.728C107.238 82.8252 112.351 82.8744 119.332 79.8263C127.247 76.3357 127.69 73.2876 120.119 74.6642Z" fill="#416BF5"/>
<path d="M133.442 60.6035C135.704 62.0292 150.599 58.3912 150.599 56.4247C150.599 54.8515 145.339 54.704 139.931 56.1297C134.327 57.6046 131.623 59.4236 133.442 60.6035Z" fill="#416BF5"/>
<path d="M59.5509 81.7433C58.3218 82.4316 58.4688 83.169 60.4845 85.9221C63.8767 90.4943 66.3845 91.7233 68.4493 89.806C71.1533 87.2495 62.8939 79.7768 59.5509 81.7433Z" fill="#416BF5"/>
<path d="M61.8613 103.817C66.3843 102.343 65.5977 100.425 59.1574 96.9839C56.1093 95.3615 55.9618 95.3123 54.4869 95.9023C50.3572 97.5246 57.4858 105.194 61.8613 103.817Z" fill="#416BF5"/>
<path d="M84.8691 80.5142C87.8189 77.122 90.8675 70.19 89.3434 68.666C88.1144 67.4369 86.344 67.8302 84.3283 69.6492C81.8702 71.8615 80.1008 76.0895 80.1008 79.7276C80.1008 79.7767 79.7562 86.3154 84.8691 80.5142Z" fill="#416BF5"/>
<path d="M56.7973 59.2761C61.4186 61.7342 63.6801 59.0302 62.746 52.0983C62.0577 46.936 59.0096 44.5762 55.9615 46.936C54.9291 47.7226 54.9783 48.4111 54.9783 56.3263C54.9783 57.5554 55.6666 58.6861 56.7973 59.2761Z" fill="#416BF5"/>
<path d="M83.4432 106.767C79.5593 108.341 88.4578 116.01 92.7349 114.781C94.9964 114.142 95.0456 112.569 92.9808 110.602C88.7036 106.522 86.2946 105.588 83.4432 106.767Z" fill="#416BF5"/>
<path d="M137.572 122.057C136.982 122.991 138.457 123.827 143.029 125.204C150.158 127.367 155.074 127.662 155.074 125.941C155.025 123.63 138.801 119.992 137.572 122.057Z" fill="#416BF5"/>
<path d="M150.551 106.079C150.944 104.162 136.883 102.196 134.278 103.818C131.672 105.44 133.442 106.227 141.456 107.013C148.093 107.653 150.256 107.456 150.551 106.079Z" fill="#416BF5"/>
<path d="M81.3301 49.4436C84.4274 43.2 83.5911 38.2342 79.7073 39.8074C76.4625 41.1348 72.3825 51.8034 74.4473 53.5241C77.0038 55.6381 78.8228 54.5074 81.3301 49.4436Z" fill="#416BF5"/>
<path d="M163.529 73.3368C161.071 72.6485 159.498 72.7469 154.582 73.8285C144.503 76.0408 146.077 78.4498 156.843 77.2699C164.758 76.3849 167.905 74.5167 163.529 73.3368Z" fill="#416BF5"/>
<path d="M182.408 118.124C180.687 116.698 168.987 115.125 166.087 115.911C163.432 116.649 164.267 118.272 167.463 118.763C168.593 118.911 171.936 119.402 174.837 119.796C181.769 120.73 184.817 120.09 182.408 118.124Z" fill="#416BF5"/>
<path d="M177.443 101.605C175.772 100.917 166.922 100.622 164.021 101.212C160.039 101.998 162.498 104.063 167.807 104.457C176.607 105.096 181.966 103.473 177.443 101.605Z" fill="#416BF5"/>
<path d="M142.636 91.1827C143.176 89.5603 132.508 88.4295 127.1 89.5603C123.954 90.1994 123.167 90.986 124.593 92.1168C126.707 93.8866 141.997 93.0509 142.636 91.1827Z" fill="#416BF5"/>
<path d="M113.728 127.465C110.483 128.006 109.647 128.645 110.975 129.628C112.99 131.152 124.544 130.218 124.544 128.546C124.544 127.022 119.628 126.482 113.728 127.465Z" fill="#416BF5"/>
<path d="M83.9353 128.399C81.1822 128.94 79.8051 130.021 80.69 130.906C82.4599 132.725 94.5544 131.742 94.5544 129.825C94.5544 129.088 92.2438 126.776 83.9353 128.399Z" fill="#416BF5"/>
<path d="M90.1301 121.123C87.672 119.599 77.3478 118.37 76.6104 119.55C75.7746 120.927 79.0685 122.401 85.3613 123.532C89.9826 124.368 92.9816 122.844 90.1301 121.123Z" fill="#416BF5"/>
<path d="M108.075 68.9121C108.91 66.3065 105.321 66.2573 102.076 68.8138C95.1443 74.2708 92.047 80.2195 96.1275 80.2195C97.8974 80.2195 107.337 71.2719 108.075 68.9121Z" fill="#416BF5"/>
<path d="M104.142 103.769C102.617 104.408 98.4878 109.078 98.4878 110.16C98.4878 111.93 102.125 111.585 103.994 109.619C107.877 105.391 107.976 102.196 104.142 103.769Z" fill="#416BF5"/>
<path d="M118.988 117.78C119.725 115.813 115.35 115.076 111.516 116.502C105.911 118.616 103.256 120.631 105.174 121.369C106.993 122.057 118.496 119.058 118.988 117.78Z" fill="#416BF5"/>
</svg>
