<svg width="560" height="560" viewBox="0 0 560 560" fill="none" xmlns="http://www.w3.org/2000/svg">
<rect width="560" height="560" rx="18" fill="#F5F7FB"/>
<rect x="41" y="95" width="477.543" height="370" rx="23.045" fill="white"/>
<path opacity="0.6" d="M76.333 222.002H77.4801V220.442C79.8461 220.227 81.3696 218.793 81.3696 216.66C81.3696 214.868 80.33 213.739 78.1792 213.255L77.4801 213.094V208.649C78.6452 208.81 79.3442 209.545 79.4159 210.692H81.1545C81.0291 208.613 79.6489 207.286 77.4801 207.089V205.548H76.333V207.107C74.0029 207.304 72.4794 208.756 72.4794 210.799C72.4794 212.646 73.5727 213.829 75.6877 214.312L76.333 214.456V218.919C74.9708 218.776 74.1284 218.023 74.0925 216.876H72.3001C72.4077 218.973 73.967 220.317 76.333 220.46V222.002ZM76.0462 212.753C74.7915 212.448 74.2001 211.785 74.2001 210.746C74.2001 209.598 75.0066 208.828 76.333 208.649V212.825L76.0462 212.753ZM77.8207 214.814C79.0574 215.101 79.6489 215.764 79.6489 216.804C79.6489 217.933 78.8244 218.704 77.4801 218.883V214.743L77.8207 214.814ZM87.3051 220.478C90.1012 220.478 92.0191 218.596 92.0191 215.908C92.0191 213.416 90.3163 211.57 87.6815 211.57C86.7136 211.57 85.8532 211.839 85.1721 212.359L86.0325 208.917H91.2483V207.304H84.7599L83.1826 213.954L84.6703 214.33C85.2617 213.596 86.2655 213.076 87.3588 213.076C89.1692 213.076 90.2267 214.312 90.2267 215.979C90.2267 217.736 89.0975 218.901 87.3409 218.901C85.6919 218.901 84.6703 217.879 84.6703 216.212H82.9316C82.9316 218.793 84.6523 220.478 87.3051 220.478ZM93.5394 213.793C93.5394 217.826 95.5289 220.496 98.8807 220.496C102.215 220.496 104.204 217.826 104.204 213.793C104.204 209.778 102.125 207.053 98.8807 207.053C95.6185 207.053 93.5394 209.778 93.5394 213.793ZM95.278 213.793C95.278 210.566 96.6043 208.631 98.8807 208.631C101.157 208.631 102.465 210.566 102.465 213.793C102.465 216.983 101.157 218.919 98.8807 218.919C96.6043 218.919 95.278 216.983 95.278 213.793ZM105.967 213.793C105.967 217.826 107.957 220.496 111.308 220.496C114.642 220.496 116.632 217.826 116.632 213.793C116.632 209.778 114.553 207.053 111.308 207.053C108.046 207.053 105.967 209.778 105.967 213.793ZM107.706 213.793C107.706 210.566 109.032 208.631 111.308 208.631C113.585 208.631 114.893 210.566 114.893 213.793C114.893 216.983 113.585 218.919 111.308 218.919C109.032 218.919 107.706 216.983 107.706 213.793ZM120.456 220.263V217.772L121.944 216.212L124.507 220.263H126.443L123.109 214.994L126.46 211.498H124.345L120.456 215.621V207.071H118.771V220.263H120.456Z" fill="#565F73"/>
<path opacity="0.6" d="M76.333 266.811H77.4801V265.252C79.8461 265.037 81.3696 263.603 81.3696 261.47C81.3696 259.678 80.33 258.548 78.1792 258.065L77.4801 257.903V253.458C78.6452 253.619 79.3442 254.354 79.4159 255.501H81.1545C81.0291 253.422 79.6489 252.096 77.4801 251.899V250.357H76.333V251.917C74.0029 252.114 72.4794 253.566 72.4794 255.609C72.4794 257.455 73.5727 258.638 75.6877 259.122L76.333 259.265V263.728C74.9708 263.585 74.1284 262.832 74.0925 261.685H72.3001C72.4077 263.782 73.967 265.127 76.333 265.27V266.811ZM76.0462 257.563C74.7915 257.258 74.2001 256.595 74.2001 255.555C74.2001 254.408 75.0066 253.637 76.333 253.458V257.634L76.0462 257.563ZM77.8207 259.624C79.0574 259.911 79.6489 260.574 79.6489 261.613C79.6489 262.743 78.8244 263.513 77.4801 263.693V259.552L77.8207 259.624ZM92.6105 262.456V260.896H91.0691V252.114H88.7928L82.6807 260.896V262.456H89.3842V265.073H91.0691V262.456H92.6105ZM84.5806 260.896L89.3842 253.978V260.896H84.5806ZM98.5075 265.288C101.304 265.288 103.221 263.406 103.221 260.717C103.221 258.226 101.519 256.38 98.8839 256.38C97.916 256.38 97.0557 256.649 96.3746 257.168L97.2349 253.727H102.451V252.114H95.9623L94.385 258.764L95.8727 259.14C96.4642 258.405 97.4679 257.885 98.5613 257.885C100.372 257.885 101.429 259.122 101.429 260.789C101.429 262.545 100.3 263.711 98.5433 263.711C96.8943 263.711 95.8727 262.689 95.8727 261.022H94.1341C94.1341 263.603 95.8548 265.288 98.5075 265.288ZM104.742 258.602C104.742 262.635 106.731 265.306 110.083 265.306C113.417 265.306 115.406 262.635 115.406 258.602C115.406 254.587 113.327 251.863 110.083 251.863C106.821 251.863 104.742 254.587 104.742 258.602ZM106.48 258.602C106.48 255.376 107.807 253.44 110.083 253.44C112.359 253.44 113.668 255.376 113.668 258.602C113.668 261.793 112.359 263.728 110.083 263.728C107.807 263.728 106.48 261.793 106.48 258.602ZM119.231 265.073V262.581L120.718 261.022L123.282 265.073H125.217L121.883 259.803L125.235 256.308H123.12L119.231 260.43V251.881H117.546V265.073H119.231Z" fill="#565F73"/>
<path opacity="0.6" d="M76.333 311.621H77.4801V310.062C79.8461 309.846 81.3696 308.413 81.3696 306.28C81.3696 304.487 80.33 303.358 78.1792 302.874L77.4801 302.713V298.268C78.6452 298.429 79.3442 299.164 79.4159 300.311H81.1545C81.0291 298.232 79.6489 296.905 77.4801 296.708V295.167H76.333V296.726C74.0029 296.923 72.4794 298.375 72.4794 300.419C72.4794 302.265 73.5727 303.448 75.6877 303.932L76.333 304.075V308.538C74.9708 308.395 74.1284 307.642 74.0925 306.495H72.3001C72.4077 308.592 73.967 309.936 76.333 310.079V311.621ZM76.0462 302.372C74.7915 302.068 74.2001 301.404 74.2001 300.365C74.2001 299.218 75.0066 298.447 76.333 298.268V302.444L76.0462 302.372ZM77.8207 304.433C79.0574 304.72 79.6489 305.383 79.6489 306.423C79.6489 307.552 78.8244 308.323 77.4801 308.502V304.362L77.8207 304.433ZM86.6598 303.179C88.7211 303.179 89.7965 304.218 89.7965 305.778C89.7965 307.445 88.7031 308.52 87.0183 308.52C85.3872 308.52 84.3476 307.534 84.3476 305.849H82.609C82.609 308.538 84.4373 310.097 86.9824 310.097C89.6173 310.097 91.5889 308.43 91.5889 305.814C91.5889 303.484 89.922 301.996 87.7173 301.727L91.2662 298.339V296.923H83.2184V298.483H89.0437L85.3693 302.014V303.179H86.6598ZM97.4573 310.097C100.253 310.097 102.171 308.215 102.171 305.527C102.171 303.035 100.468 301.189 97.8337 301.189C96.8658 301.189 96.0054 301.458 95.3243 301.978L96.1847 298.537H101.401V296.923H94.9121L93.3348 303.573L94.8225 303.95C95.4139 303.215 96.4177 302.695 97.511 302.695C99.3214 302.695 100.379 303.932 100.379 305.599C100.379 307.355 99.2497 308.52 97.4931 308.52C95.8441 308.52 94.8225 307.498 94.8225 305.832H93.0838C93.0838 308.413 94.8045 310.097 97.4573 310.097ZM103.692 303.412C103.692 307.445 105.681 310.115 109.033 310.115C112.367 310.115 114.356 307.445 114.356 303.412C114.356 299.397 112.277 296.672 109.033 296.672C105.771 296.672 103.692 299.397 103.692 303.412ZM105.43 303.412C105.43 300.186 106.757 298.25 109.033 298.25C111.309 298.25 112.618 300.186 112.618 303.412C112.618 306.602 111.309 308.538 109.033 308.538C106.757 308.538 105.43 306.602 105.43 303.412ZM118.18 309.882V307.391L119.668 305.832L122.231 309.882H124.167L120.833 304.613L124.185 301.118H122.07L118.18 305.24V296.69H116.496V309.882H118.18Z" fill="#565F73"/>
<path opacity="0.6" d="M76.333 356.431H77.4801V354.871C79.8461 354.656 81.3696 353.222 81.3696 351.089C81.3696 349.297 80.33 348.168 78.1792 347.684L77.4801 347.522V343.077C78.6452 343.239 79.3442 343.973 79.4159 345.121H81.1545C81.0291 343.041 79.6489 341.715 77.4801 341.518V339.976H76.333V341.536C74.0029 341.733 72.4794 343.185 72.4794 345.228C72.4794 347.074 73.5727 348.257 75.6877 348.741L76.333 348.885V353.348C74.9708 353.204 74.1284 352.451 74.0925 351.304H72.3001C72.4077 353.401 73.967 354.746 76.333 354.889V356.431ZM76.0462 347.182C74.7915 346.877 74.2001 346.214 74.2001 345.174C74.2001 344.027 75.0066 343.256 76.333 343.077V347.253L76.0462 347.182ZM77.8207 349.243C79.0574 349.53 79.6489 350.193 79.6489 351.233C79.6489 352.362 78.8244 353.133 77.4801 353.312V349.171L77.8207 349.243ZM86.6598 347.988C88.7211 347.988 89.7965 349.028 89.7965 350.587C89.7965 352.254 88.7031 353.33 87.0183 353.33C85.3872 353.33 84.3476 352.344 84.3476 350.659H82.609C82.609 353.348 84.4373 354.907 86.9824 354.907C89.6173 354.907 91.5889 353.24 91.5889 350.623C91.5889 348.293 89.922 346.805 87.7173 346.537L91.2662 343.149V341.733H83.2184V343.292H89.0437L85.3693 346.823V347.988H86.6598ZM93.1368 348.221C93.1368 352.254 95.1263 354.925 98.4781 354.925C101.812 354.925 103.801 352.254 103.801 348.221C103.801 344.206 101.722 341.482 98.4781 341.482C95.2159 341.482 93.1368 344.206 93.1368 348.221ZM94.8754 348.221C94.8754 344.995 96.2018 343.059 98.4781 343.059C100.754 343.059 102.063 344.995 102.063 348.221C102.063 351.412 100.754 353.348 98.4781 353.348C96.2018 353.348 94.8754 351.412 94.8754 348.221ZM105.564 348.221C105.564 352.254 107.554 354.925 110.906 354.925C114.24 354.925 116.229 352.254 116.229 348.221C116.229 344.206 114.15 341.482 110.906 341.482C107.644 341.482 105.564 344.206 105.564 348.221ZM107.303 348.221C107.303 344.995 108.629 343.059 110.906 343.059C113.182 343.059 114.491 344.995 114.491 348.221C114.491 351.412 113.182 353.348 110.906 353.348C108.629 353.348 107.303 351.412 107.303 348.221ZM120.053 354.692V352.2L121.541 350.641L124.104 354.692H126.04L122.706 349.422L126.058 345.927H123.943L120.053 350.05V341.5H118.369V354.692H120.053Z" fill="#565F73"/>
<path opacity="0.5" d="M165.443 421.655C165.443 423.256 166.416 424.382 168.183 424.382C169.834 424.382 170.948 423.332 170.948 421.668V414.972H169.693V421.617C169.693 422.577 169.232 423.217 168.183 423.217C167.158 423.217 166.659 422.564 166.659 421.655V421.194H165.443V421.655ZM174.665 424.382C175.676 424.382 176.534 423.934 176.854 423.217L176.982 424.229H178.006V420.298C178.006 418.608 176.956 417.789 175.407 417.789C173.794 417.789 172.719 418.647 172.719 419.952H173.768C173.768 419.197 174.345 418.749 175.356 418.749C176.201 418.749 176.828 419.12 176.828 420.17V420.349L174.857 420.503C173.384 420.618 172.527 421.335 172.527 422.487C172.527 423.627 173.32 424.382 174.665 424.382ZM175.01 423.448C174.229 423.448 173.743 423.115 173.743 422.449C173.743 421.834 174.178 421.425 175.241 421.322L176.841 421.194V421.527C176.841 422.705 176.15 423.448 175.01 423.448ZM180.876 424.229V420.913C180.876 419.696 181.529 418.89 182.656 418.89C183.578 418.89 184.167 419.402 184.167 420.669V424.229H185.37V420.4C185.37 418.8 184.615 417.789 182.963 417.789C182.08 417.789 181.286 418.211 180.889 418.928L180.761 417.968H179.673V424.229H180.876Z" fill="#565F73"/>
<path opacity="0.5" d="M210.842 420.298V419.159H207.206V416.124H211.533V414.972H205.951V424.229H207.206V420.298H210.842ZM215.061 424.382C216.611 424.382 217.66 423.627 217.968 422.282H216.841C216.636 422.999 216.022 423.384 215.087 423.384C213.896 423.384 213.205 422.654 213.115 421.335L217.955 421.322V420.874C217.955 419.018 216.79 417.789 215.01 417.789C213.192 417.789 211.95 419.146 211.95 421.105C211.95 423.051 213.218 424.382 215.061 424.382ZM215.01 418.8C216.073 418.8 216.751 419.491 216.751 420.529H213.141C213.295 419.427 213.96 418.8 215.01 418.8ZM220.387 424.229L220.477 423.089C220.887 423.947 221.719 424.382 222.705 424.382C224.523 424.382 225.649 423.025 225.649 421.13C225.649 419.197 224.574 417.789 222.781 417.789C221.757 417.789 220.912 418.224 220.502 419.043V414.806H219.299V424.229H220.387ZM220.515 421.079C220.515 419.799 221.258 418.877 222.487 418.877C223.716 418.877 224.446 419.799 224.446 421.079C224.446 422.372 223.716 423.294 222.487 423.294C221.258 423.294 220.515 422.385 220.515 421.079Z" fill="#565F73"/>
<path opacity="0.5" d="M246.868 424.229V420.272C246.868 418.979 246.843 418.032 246.779 417.584L249.467 424.229H250.645L253.347 417.558C253.283 418.211 253.27 418.839 253.27 420.567V424.229H254.499V414.972H253.244L250.056 422.756L246.868 414.972H245.639V424.229H246.868ZM258.28 424.382C259.292 424.382 260.149 423.934 260.47 423.217L260.598 424.229H261.622V420.298C261.622 418.608 260.572 417.789 259.023 417.789C257.41 417.789 256.334 418.647 256.334 419.952H257.384C257.384 419.197 257.96 418.749 258.972 418.749C259.817 418.749 260.444 419.12 260.444 420.17V420.349L258.472 420.503C257 420.618 256.142 421.335 256.142 422.487C256.142 423.627 256.936 424.382 258.28 424.382ZM258.626 423.448C257.845 423.448 257.358 423.115 257.358 422.449C257.358 421.834 257.794 421.425 258.856 421.322L260.457 421.194V421.527C260.457 422.705 259.765 423.448 258.626 423.448ZM266.873 417.917C266.63 417.866 266.451 417.84 266.233 417.84C265.375 417.84 264.748 418.275 264.492 418.928L264.415 417.981H263.288V424.229H264.492V420.913C264.492 419.709 265.196 419.018 266.335 419.018H266.873V417.917Z" fill="#565F73"/>
<path opacity="0.5" d="M285.712 424.229L286.532 421.924H290.424L291.256 424.229H292.574L289.182 414.972H287.786L284.406 424.229H285.712ZM288.324 416.969C288.388 416.777 288.452 416.56 288.478 416.432C288.503 416.572 288.567 416.79 288.631 416.969L290.052 420.836H286.916L288.324 416.969ZM293.6 427.032H294.804V423.204C295.213 423.972 296.045 424.395 297.044 424.395C298.9 424.395 299.95 422.961 299.95 421.053C299.95 419.133 298.836 417.789 297.044 417.789C296.045 417.789 295.2 418.237 294.778 419.095L294.688 417.968H293.6V427.032ZM294.816 421.105C294.816 419.799 295.559 418.89 296.788 418.89C298.017 418.89 298.747 419.812 298.747 421.105C298.747 422.385 298.017 423.307 296.788 423.307C295.559 423.307 294.816 422.385 294.816 421.105ZM304.862 417.917C304.618 417.866 304.439 417.84 304.221 417.84C303.364 417.84 302.736 418.275 302.48 418.928L302.403 417.981H301.277V424.229H302.48V420.913C302.48 419.709 303.184 419.018 304.324 419.018H304.862V417.917Z" fill="#565F73"/>
<path opacity="0.5" d="M326.246 424.229V420.272C326.246 418.979 326.22 418.032 326.156 417.584L328.845 424.229H330.022L332.724 417.558C332.66 418.211 332.647 418.839 332.647 420.567V424.229H333.876V414.972H332.621L329.434 422.756L326.246 414.972H325.017V424.229H326.246ZM337.657 424.382C338.669 424.382 339.527 423.934 339.847 423.217L339.975 424.229H340.999V420.298C340.999 418.608 339.949 417.789 338.4 417.789C336.787 417.789 335.711 418.647 335.711 419.952H336.761C336.761 419.197 337.337 418.749 338.349 418.749C339.194 418.749 339.821 419.12 339.821 420.17V420.349L337.849 420.503C336.377 420.618 335.519 421.335 335.519 422.487C335.519 423.627 336.313 424.382 337.657 424.382ZM338.003 423.448C337.222 423.448 336.736 423.115 336.736 422.449C336.736 421.834 337.171 421.425 338.234 421.322L339.834 421.194V421.527C339.834 422.705 339.143 423.448 338.003 423.448ZM341.914 427.032C342.234 427.109 342.567 427.16 342.964 427.16C343.924 427.16 344.551 426.712 344.974 425.637L347.931 417.968H346.689L344.833 423.012L343.015 417.968H341.747L344.27 424.561L344.052 425.163C343.757 425.957 343.297 426.047 342.72 426.047H341.914V427.032Z" fill="#565F73"/>
<path opacity="0.5" d="M363.886 421.655C363.886 423.256 364.859 424.382 366.626 424.382C368.277 424.382 369.391 423.332 369.391 421.668V414.972H368.136V421.617C368.136 422.577 367.676 423.217 366.626 423.217C365.602 423.217 365.102 422.564 365.102 421.655V421.194H363.886V421.655ZM375.604 417.968V421.271C375.604 422.615 375.003 423.32 373.902 423.32C372.98 423.32 372.404 422.807 372.404 421.463V417.968H371.2V421.86C371.2 423.396 372.019 424.382 373.479 424.382C374.401 424.382 375.233 423.934 375.591 423.281L375.719 424.229H376.795V417.968H375.604ZM379.744 424.229V420.913C379.744 419.696 380.397 418.89 381.524 418.89C382.446 418.89 383.035 419.402 383.035 420.669V424.229H384.238V420.4C384.238 418.8 383.483 417.789 381.831 417.789C380.948 417.789 380.154 418.211 379.757 418.928L379.629 417.968H378.541V424.229H379.744ZM388.606 424.382C390.156 424.382 391.205 423.627 391.513 422.282H390.386C390.181 422.999 389.567 423.384 388.632 423.384C387.441 423.384 386.75 422.654 386.66 421.335L391.5 421.322V420.874C391.5 419.018 390.335 417.789 388.555 417.789C386.737 417.789 385.495 419.146 385.495 421.105C385.495 423.051 386.763 424.382 388.606 424.382ZM388.555 418.8C389.618 418.8 390.296 419.491 390.296 420.529H386.686C386.84 419.427 387.505 418.8 388.555 418.8Z" fill="#565F73"/>
<path opacity="0.5" d="M403.574 421.655C403.574 423.256 404.547 424.382 406.314 424.382C407.966 424.382 409.08 423.332 409.08 421.668V414.972H407.825V421.617C407.825 422.577 407.364 423.217 406.314 423.217C405.29 423.217 404.791 422.564 404.791 421.655V421.194H403.574V421.655ZM415.293 417.968V421.271C415.293 422.615 414.691 423.32 413.59 423.32C412.668 423.32 412.092 422.807 412.092 421.463V417.968H410.889V421.86C410.889 423.396 411.708 424.382 413.167 424.382C414.089 424.382 414.921 423.934 415.28 423.281L415.408 424.229H416.483V417.968H415.293ZM419.459 424.229V414.806H418.255V424.229H419.459Z" fill="#565F73"/>
<path opacity="0.6" d="M75.0527 401.241H76.1999V399.681C78.5658 399.466 80.0893 398.032 80.0893 395.899C80.0893 394.107 79.0497 392.978 76.8989 392.494L76.1999 392.332V387.887C77.3649 388.049 78.0639 388.783 78.1356 389.931H79.8742C79.7488 387.851 78.3686 386.525 76.1999 386.328V384.786H75.0527V386.346C72.7226 386.543 71.1991 387.995 71.1991 390.038C71.1991 391.884 72.2924 393.067 74.4075 393.551L75.0527 393.695V398.158C73.6905 398.014 72.8481 397.261 72.8122 396.114H71.0199C71.1274 398.211 72.6868 399.556 75.0527 399.699V401.241ZM74.7659 391.992C73.5113 391.687 72.9198 391.024 72.9198 389.984C72.9198 388.837 73.7264 388.067 75.0527 387.887V392.064L74.7659 391.992ZM76.5404 394.053C77.7772 394.34 78.3686 395.003 78.3686 396.043C78.3686 397.172 77.5441 397.943 76.1999 398.122V393.981L76.5404 394.053ZM81.6693 393.031C81.6693 397.064 83.6588 399.735 87.0106 399.735C90.3445 399.735 92.334 397.064 92.334 393.031C92.334 389.016 90.2548 386.292 87.0106 386.292C83.7485 386.292 81.6693 389.016 81.6693 393.031ZM83.4079 393.031C83.4079 389.805 84.7343 387.869 87.0106 387.869C89.2869 387.869 90.5954 389.805 90.5954 393.031C90.5954 396.222 89.2869 398.158 87.0106 398.158C84.7343 398.158 83.4079 396.222 83.4079 393.031Z" fill="#565F73"/>
<path d="M79.0754 166.688V157.296C79.0754 154.034 79.0395 151.561 78.7886 149.983L85.4204 166.688H89.6504L96.3181 149.948C96.0672 151.812 96.0672 153.353 96.0672 158.623V166.688H100.512V140.484H95.9955L87.5354 161.347L79.0754 140.484H74.6302V166.688H79.0754ZM104.627 157.798C104.627 163.319 108.606 167.119 114.091 167.119C119.576 167.119 123.555 163.319 123.555 157.798C123.555 152.278 119.576 148.478 114.091 148.478C108.606 148.478 104.627 152.278 104.627 157.798ZM109.001 157.798C109.001 154.572 111.08 152.385 114.091 152.385C117.102 152.385 119.181 154.572 119.181 157.798C119.181 161.025 117.102 163.211 114.091 163.211C111.08 163.211 109.001 161.025 109.001 157.798ZM131.395 166.688V157.153C131.395 154.285 133.044 152.421 135.732 152.421C137.991 152.421 139.461 153.855 139.461 156.83V166.688H143.834V155.791C143.834 151.202 141.54 148.442 137.095 148.442C134.693 148.442 132.542 149.482 131.431 151.274L131.072 148.98H127.021V166.688H131.395ZM154.153 166.688V152.636H157.595V148.98H154.153V143.459H149.78V148.98H146.374V152.636H149.78V166.688H154.153ZM164.687 166.688V157.01C164.687 154.357 166.3 152.421 169.06 152.421C171.283 152.421 172.753 153.855 172.753 156.83V166.688H177.126V155.791C177.126 151.202 174.832 148.442 170.459 148.442C167.913 148.442 165.834 149.553 164.723 151.274V140.018H160.314V166.688H164.687ZM196.319 166.688V156.902H201.947L206.392 166.688H211.411L206.428 155.934C209.511 154.679 211.16 152.17 211.16 148.657C211.16 143.495 207.683 140.484 201.732 140.484H191.731V166.688H196.319ZM196.319 144.57H201.732C204.636 144.57 206.356 146.04 206.356 148.657C206.356 151.31 204.636 152.851 201.732 152.851H196.319V144.57ZM221.763 167.154C226.387 167.154 229.613 164.824 230.366 160.953H226.315C225.813 162.638 224.236 163.57 221.834 163.57C218.931 163.57 217.282 161.992 216.959 158.874L230.294 158.838V157.511C230.294 151.991 226.925 148.442 221.619 148.442C216.421 148.442 212.801 152.278 212.801 157.834C212.801 163.319 216.493 167.154 221.763 167.154ZM221.655 152.027C224.272 152.027 225.957 153.64 225.957 156.078H217.067C217.497 153.425 219.074 152.027 221.655 152.027ZM238.043 166.688H242.345L249.729 148.98H245.213L241.986 157.117C241.233 159.053 240.588 160.917 240.337 162.028C240.122 161.06 239.513 159.232 238.76 157.117L235.677 148.98H231.017L238.043 166.688ZM259.291 167.154C263.915 167.154 267.141 164.824 267.894 160.953H263.843C263.341 162.638 261.764 163.57 259.362 163.57C256.459 163.57 254.81 161.992 254.487 158.874L267.822 158.838V157.511C267.822 151.991 264.453 148.442 259.147 148.442C253.949 148.442 250.329 152.278 250.329 157.834C250.329 163.319 254.021 167.154 259.291 167.154ZM259.183 152.027C261.8 152.027 263.485 153.64 263.485 156.078H254.595C255.025 153.425 256.602 152.027 259.183 152.027ZM275.696 166.688V157.153C275.696 154.285 277.345 152.421 280.034 152.421C282.292 152.421 283.762 153.855 283.762 156.83V166.688H288.135V155.791C288.135 151.202 285.841 148.442 281.396 148.442C278.994 148.442 276.843 149.482 275.732 151.274L275.373 148.98H271.323V166.688H275.696ZM304.441 148.98V158.264C304.441 161.634 303.115 163.247 300.355 163.247C297.917 163.247 296.591 161.885 296.591 158.515V148.98H292.217V160.057C292.217 164.394 294.619 167.154 298.706 167.154C301.072 167.154 303.366 166.007 304.441 164.323L304.764 166.688H308.815V148.98H304.441ZM320.904 167.154C325.528 167.154 328.755 164.824 329.507 160.953H325.457C324.955 162.638 323.377 163.57 320.976 163.57C318.072 163.57 316.423 161.992 316.1 158.874L329.436 158.838V157.511C329.436 151.991 326.066 148.442 320.761 148.442C315.563 148.442 311.942 152.278 311.942 157.834C311.942 163.319 315.634 167.154 320.904 167.154ZM320.796 152.027C323.413 152.027 325.098 153.64 325.098 156.078H316.208C316.638 153.425 318.215 152.027 320.796 152.027Z" fill="#1C233E"/>
<rect x="415.948" y="138.529" width="76.1246" height="32.0069" rx="6.92042" fill="#C5CDD6" fill-opacity="0.5"/>
<path d="M425.351 159.315V156.142C425.351 155.04 425.339 154.204 425.254 153.671L427.495 159.315H428.924L431.176 153.659C431.092 154.289 431.092 154.81 431.092 156.59V159.315H432.593V150.462H431.067L428.209 157.51L425.351 150.462H423.849V159.315H425.351ZM433.984 156.311C433.984 158.177 435.328 159.46 437.181 159.46C439.034 159.46 440.378 158.177 440.378 156.311C440.378 154.446 439.034 153.163 437.181 153.163C435.328 153.163 433.984 154.446 433.984 156.311ZM435.461 156.311C435.461 155.222 436.163 154.483 437.181 154.483C438.198 154.483 438.9 155.222 438.9 156.311C438.9 157.401 438.198 158.14 437.181 158.14C436.163 158.14 435.461 157.401 435.461 156.311ZM443.027 159.315V156.093C443.027 155.125 443.584 154.495 444.492 154.495C445.255 154.495 445.752 154.979 445.752 155.984V159.315H447.229V155.633C447.229 154.083 446.454 153.151 444.952 153.151C444.141 153.151 443.414 153.502 443.039 154.107L442.918 153.332H441.549V159.315H443.027ZM450.715 159.315V154.568H451.878V153.332H450.715V151.467H449.238V153.332H448.087V154.568H449.238V159.315H450.715ZM454.274 159.315V156.045C454.274 155.149 454.819 154.495 455.751 154.495C456.502 154.495 456.999 154.979 456.999 155.984V159.315H458.476V155.633C458.476 154.083 457.701 153.151 456.224 153.151C455.364 153.151 454.662 153.526 454.286 154.107V150.305H452.796V159.315H454.274ZM461.418 159.315V150.305H459.952V159.315H461.418ZM462.447 162.088C462.774 162.173 463.137 162.222 463.549 162.222C464.53 162.222 465.16 161.761 465.608 160.647L468.539 153.332H467.013L465.39 157.692L463.852 153.332H462.289L464.699 159.569L464.53 160.017C464.276 160.72 463.912 160.853 463.331 160.853H462.447V162.088Z" fill="#565F73"/>
<path d="M473.317 154.1L476.759 157.703C477.557 158.538 478.912 158.467 479.618 157.552L482.282 154.1" stroke="#565F73" stroke-width="0.865052"/>
<rect opacity="0.4" x="165.187" y="212.786" width="326.471" height="1.53633" fill="#C5CDD6"/>
<rect opacity="0.4" x="165.187" y="258.875" width="326.471" height="1.53633" fill="#C5CDD6"/>
<rect opacity="0.4" x="165.187" y="304.965" width="326.471" height="1.53633" fill="#C5CDD6"/>
<rect opacity="0.4" x="165.187" y="351.055" width="326.471" height="1.53633" fill="#C5CDD6"/>
<rect opacity="0.4" x="165.187" y="397.146" width="326.471" height="1.53633" fill="#C5CDD6"/>
<rect x="165.187" y="324.169" width="16.6436" height="75.5363" rx="5.12111" fill="#416BF5"/>
<rect x="204.875" y="370.26" width="16.6436" height="29.4464" rx="5.12111" fill="#416BF5"/>
<rect x="244.564" y="290.882" width="16.6436" height="108.824" rx="5.12111" fill="#416BF5"/>
<rect x="284.253" y="246.073" width="16.6436" height="153.633" rx="5.12111" fill="#416BF5"/>
<rect x="323.941" y="335.692" width="16.6436" height="64.0138" rx="5.12111" fill="#416BF5"/>
<rect x="363.63" y="214.066" width="16.6436" height="185.64" rx="5.12111" fill="#416BF5"/>
<rect x="403.318" y="275.519" width="16.6436" height="124.187" rx="5.12111" fill="#416BF5"/>
</svg>
