<svg width="560" height="560" viewBox="0 0 560 560" fill="none" xmlns="http://www.w3.org/2000/svg">
<rect width="560" height="560" rx="18" fill="#F5F7FB"/>
<g filter="url(#filter0_d_56_1498)">
<rect x="40" y="50" width="480" height="100" rx="18" fill="white"/>
</g>
<g filter="url(#filter1_d_56_1498)">
<rect x="40" y="170" width="480" height="100" rx="18" fill="white"/>
</g>
<g filter="url(#filter2_d_56_1498)">
<rect x="40" y="290" width="480" height="100" rx="18" fill="#1C233E"/>
</g>
<g filter="url(#filter3_d_56_1498)">
<rect x="40" y="410" width="480" height="100" rx="18" fill="white"/>
</g>
<g clip-path="url(#clip0_56_1498)">
<path d="M106 228V206C106 204.409 106.632 202.883 107.757 201.757C108.882 200.632 110.409 200 112 200C112.53 200 113.039 199.789 113.414 199.414C113.789 199.039 114 198.53 114 198C114 197.47 113.789 196.961 113.414 196.586C113.039 196.211 112.53 196 112 196C109.349 196.003 106.807 197.058 104.932 198.932C103.058 200.807 102.003 203.349 102 206V228.558L96.5319 230.382C96.5419 229.702 96.4364 229.026 96.2199 228.382L93.1139 218.182C92.6282 216.668 91.5624 215.407 90.1497 214.677C88.737 213.946 87.0925 213.805 85.5759 214.284L72.1759 218.544C70.6785 219.029 69.4302 220.08 68.698 221.474C67.9658 222.867 67.8078 224.492 68.2579 226L71.5259 236.746C71.7395 237.345 72.0481 237.907 72.4399 238.408L67.3679 240.098C66.864 240.266 66.4473 240.627 66.2095 241.101C65.9717 241.576 65.9323 242.126 66.0999 242.63C66.2675 243.134 66.6285 243.551 67.1033 243.788C67.5781 244.026 68.128 244.066 68.6319 243.898L98.1999 234.046C97.9098 235.225 97.8905 236.454 98.1436 237.641C98.3967 238.829 98.9156 239.943 99.6613 240.901C100.407 241.859 101.36 242.635 102.449 243.172C103.538 243.709 104.734 243.992 105.948 244C116.464 243.728 116.51 228.338 106 228ZM75.3239 235.496L72.0859 224.842C71.9369 224.338 71.991 223.796 72.2365 223.331C72.4821 222.867 72.8996 222.517 73.3999 222.356L86.7999 218.096C87.3012 217.937 87.8451 217.981 88.3138 218.22C88.7825 218.459 89.1382 218.873 89.3039 219.372L92.3999 229.584L92.4219 229.646C92.5789 230.107 92.5623 230.609 92.3752 231.059C92.1882 231.509 91.8435 231.874 91.4059 232.088L77.6299 236.688C77.1666 236.796 76.6799 236.735 76.2573 236.517C75.8346 236.298 75.5037 235.936 75.3239 235.496ZM105.948 240C104.887 240 103.87 239.579 103.119 238.828C102.369 238.078 101.948 237.061 101.948 236C101.948 234.939 102.369 233.922 103.119 233.172C103.87 232.421 104.887 232 105.948 232C107.009 232 108.026 232.421 108.776 233.172C109.526 233.922 109.948 234.939 109.948 236C109.948 237.061 109.526 238.078 108.776 238.828C108.026 239.579 107.009 240 105.948 240ZM86.0999 224C86.1795 224.25 86.209 224.514 86.1867 224.776C86.1645 225.037 86.0909 225.292 85.9702 225.525C85.8495 225.759 85.684 225.966 85.4832 226.135C85.2824 226.304 85.0502 226.432 84.7999 226.512L79.8719 228.082C79.3661 228.243 78.8172 228.196 78.346 227.952C77.8747 227.708 77.5196 227.287 77.3589 226.781C77.1982 226.275 77.245 225.726 77.489 225.255C77.7329 224.784 78.1541 224.429 78.6599 224.268L83.5899 222.7C84.0952 222.54 84.6433 222.587 85.1139 222.831C85.5845 223.074 85.9392 223.495 86.0999 224Z" fill="#416BF5"/>
</g>
<g clip-path="url(#clip1_56_1498)">
<path d="M104 320H102V318C102 317.47 101.789 316.961 101.414 316.586C101.039 316.211 100.53 316 100 316C99.4696 316 98.9609 316.211 98.5858 316.586C98.2107 316.961 98 317.47 98 318V320H82V318C82 317.47 81.7893 316.961 81.4142 316.586C81.0391 316.211 80.5304 316 80 316C79.4696 316 78.9609 316.211 78.5858 316.586C78.2107 316.961 78 317.47 78 318V320H76C73.3488 320.003 70.8071 321.058 68.9324 322.932C67.0578 324.807 66.0032 327.349 66 330V354C66.0032 356.651 67.0578 359.193 68.9324 361.068C70.8071 362.942 73.3488 363.997 76 364H104C106.651 363.997 109.193 362.942 111.068 361.068C112.942 359.193 113.997 356.651 114 354V330C113.997 327.349 112.942 324.807 111.068 322.932C109.193 321.058 106.651 320.003 104 320ZM70 330C70 328.409 70.6321 326.883 71.7574 325.757C72.8826 324.632 74.4087 324 76 324H104C105.591 324 107.117 324.632 108.243 325.757C109.368 326.883 110 328.409 110 330V332H70V330ZM104 360H76C74.4087 360 72.8826 359.368 71.7574 358.243C70.6321 357.117 70 355.591 70 354V336H110V354C110 355.591 109.368 357.117 108.243 358.243C107.117 359.368 105.591 360 104 360Z" fill="#416BF5"/>
<path d="M90 349C91.6569 349 93 347.657 93 346C93 344.343 91.6569 343 90 343C88.3431 343 87 344.343 87 346C87 347.657 88.3431 349 90 349Z" fill="#416BF5"/>
<path d="M80 349C81.6569 349 83 347.657 83 346C83 344.343 81.6569 343 80 343C78.3431 343 77 344.343 77 346C77 347.657 78.3431 349 80 349Z" fill="#416BF5"/>
<path d="M100 349C101.657 349 103 347.657 103 346C103 344.343 101.657 343 100 343C98.3431 343 97 344.343 97 346C97 347.657 98.3431 349 100 349Z" fill="#416BF5"/>
</g>
<g clip-path="url(#clip2_56_1498)">
<path d="M114 458.494C113.711 453.814 112.058 449.321 109.246 445.569C106.435 441.817 102.586 438.97 98.1755 437.378C93.7649 435.787 88.9851 435.521 84.4252 436.613C79.8653 437.705 75.7247 440.108 72.514 443.525C69.3032 446.942 67.1625 451.224 66.3559 455.843C65.5493 460.462 66.1121 465.217 67.9747 469.52C69.8373 473.823 72.9185 477.487 76.8383 480.06C80.7581 482.633 85.3452 484.003 90.0341 484H104C106.651 483.998 109.193 482.943 111.068 481.068C112.943 479.194 113.997 476.652 114 474V458.494ZM110 474C110 475.591 109.368 477.118 108.243 478.243C107.117 479.368 105.591 480 104 480H90.0341C87.2119 479.999 84.4217 479.403 81.8455 478.251C79.2692 477.099 76.9646 475.417 75.0821 473.314C73.1904 471.213 71.7699 468.731 70.9158 466.036C70.0618 463.34 69.7939 460.494 70.1301 457.686C70.6609 453.258 72.6504 449.133 75.7849 445.96C78.9194 442.787 83.0207 440.748 87.4421 440.164C88.3045 440.056 89.1728 440.001 90.0421 440C94.703 439.987 99.2197 441.616 102.8 444.6C104.891 446.338 106.607 448.482 107.845 450.903C109.083 453.324 109.816 455.971 110 458.684V474Z" fill="#416BF5"/>
<path d="M82 454H90C90.5304 454 91.0391 453.789 91.4142 453.414C91.7893 453.039 92 452.53 92 452C92 451.47 91.7893 450.961 91.4142 450.586C91.0391 450.211 90.5304 450 90 450H82C81.4696 450 80.9609 450.211 80.5858 450.586C80.2107 450.961 80 451.47 80 452C80 452.53 80.2107 453.039 80.5858 453.414C80.9609 453.789 81.4696 454 82 454Z" fill="#416BF5"/>
<path d="M98 458H82C81.4696 458 80.9609 458.211 80.5858 458.586C80.2107 458.961 80 459.47 80 460C80 460.53 80.2107 461.039 80.5858 461.414C80.9609 461.789 81.4696 462 82 462H98C98.5304 462 99.0391 461.789 99.4142 461.414C99.7893 461.039 100 460.53 100 460C100 459.47 99.7893 458.961 99.4142 458.586C99.0391 458.211 98.5304 458 98 458Z" fill="#416BF5"/>
<path d="M98 466H82C81.4696 466 80.9609 466.211 80.5858 466.586C80.2107 466.961 80 467.47 80 468C80 468.53 80.2107 469.039 80.5858 469.414C80.9609 469.789 81.4696 470 82 470H98C98.5304 470 99.0391 469.789 99.4142 469.414C99.7893 469.039 100 468.53 100 468C100 467.47 99.7893 466.961 99.4142 466.586C99.0391 466.211 98.5304 466 98 466Z" fill="#416BF5"/>
</g>
<g clip-path="url(#clip3_56_1498)">
<path d="M104 78H76C73.3488 78.0032 70.8071 79.0578 68.9324 80.9324C67.0578 82.8071 66.0032 85.3488 66 88V104C66.0032 106.651 67.0578 109.193 68.9324 111.068C70.8071 112.942 73.3488 113.997 76 114H88V118H80C79.4696 118 78.9609 118.211 78.5858 118.586C78.2107 118.961 78 119.47 78 120C78 120.53 78.2107 121.039 78.5858 121.414C78.9609 121.789 79.4696 122 80 122H100C100.53 122 101.039 121.789 101.414 121.414C101.789 121.039 102 120.53 102 120C102 119.47 101.789 118.961 101.414 118.586C101.039 118.211 100.53 118 100 118H92V114H104C106.651 113.997 109.193 112.942 111.068 111.068C112.942 109.193 113.997 106.651 114 104V88C113.997 85.3488 112.942 82.8071 111.068 80.9324C109.193 79.0578 106.651 78.0032 104 78ZM76 82H104C105.591 82 107.117 82.6321 108.243 83.7574C109.368 84.8826 110 86.4087 110 88V102H70V88C70 86.4087 70.6321 84.8826 71.7574 83.7574C72.8826 82.6321 74.4087 82 76 82ZM104 110H76C74.7635 109.995 73.5587 109.608 72.5506 108.892C71.5425 108.176 70.7802 107.166 70.368 106H109.632C109.22 107.166 108.458 108.176 107.449 108.892C106.441 109.608 105.237 109.995 104 110Z" fill="#416BF5"/>
</g>
<path d="M141.615 95.2302C145.164 95.2302 147.811 93.1393 148.31 89.9743H145.087C144.704 91.3746 143.418 92.2378 141.673 92.2378C139.39 92.2378 137.971 90.5689 137.971 87.9026C137.971 85.1979 139.371 83.5674 141.673 83.5674C143.38 83.5674 144.589 84.373 145.011 85.7925H148.291C147.85 82.6083 145.298 80.575 141.75 80.575C137.51 80.575 134.691 83.4907 134.691 87.9218C134.691 92.4104 137.357 95.2302 141.615 95.2302ZM156.392 85.4089V90.3963C156.392 91.9692 155.874 92.6214 154.608 92.6214C153.4 92.6214 152.863 91.9308 152.863 90.3579V85.4089H149.909V91.4321C149.909 93.7915 151.251 95.2494 153.438 95.2494C154.589 95.2494 155.778 94.7123 156.373 93.9258L156.565 95H159.346V85.4089H156.392ZM160.685 91.9692C160.685 93.9066 162.277 95.2494 164.809 95.2494C167.303 95.2494 169.049 94.0025 169.049 91.95C169.049 90.4154 168.185 89.6865 166.612 89.3412L164.829 88.9576C164.157 88.8041 163.793 88.5548 163.793 88.1136C163.793 87.5957 164.215 87.2504 164.886 87.2504C165.596 87.2504 165.999 87.6916 165.999 88.3438H168.799C168.799 86.4064 167.245 85.102 165.02 85.102C162.718 85.102 161.011 86.2529 161.011 88.2479C161.011 89.9359 161.874 90.7032 163.639 91.0868L165.404 91.4705C166.114 91.6239 166.267 91.9308 166.267 92.2186C166.267 92.7173 165.845 93.0434 164.924 93.0434C164.023 93.0434 163.524 92.6406 163.486 91.9692H160.685ZM174.467 95V87.8642H176.289V85.4089H174.467V82.4356H171.513V85.4089H169.691V87.8642H171.513V95H174.467ZM177.005 90.1853C177.005 93.2161 179.23 95.2302 182.3 95.2302C185.35 95.2302 187.575 93.2161 187.575 90.1853C187.575 87.1545 185.35 85.1212 182.3 85.1212C179.23 85.1212 177.005 87.1545 177.005 90.1853ZM179.979 90.1661C179.979 88.7274 180.919 87.7683 182.3 87.7683C183.662 87.7683 184.602 88.7274 184.602 90.1661C184.602 91.6239 183.662 92.583 182.3 92.583C180.919 92.583 179.979 91.6239 179.979 90.1661ZM192.241 95V89.8592C192.241 88.2479 193.105 87.7875 193.949 87.7875C194.889 87.7875 195.502 88.363 195.502 89.5522V95H198.456V89.8592C198.456 88.2287 199.3 87.7683 200.145 87.7683C201.084 87.7683 201.717 88.3438 201.717 89.5522V95H204.672V88.7274C204.672 86.5406 203.444 85.102 200.969 85.102C199.588 85.102 198.456 85.7733 197.958 86.79C197.401 85.7733 196.481 85.102 195.042 85.102C193.661 85.102 192.721 85.735 192.241 86.4064L192.05 85.4089H189.287V95H192.241ZM214.814 95V89.8592C214.814 88.2479 215.677 87.7875 216.521 87.7875C217.461 87.7875 218.075 88.363 218.075 89.5522V95H221.029V89.8592C221.029 88.2287 221.873 87.7683 222.717 87.7683C223.657 87.7683 224.29 88.3438 224.29 89.5522V95H227.244V88.7274C227.244 86.5406 226.017 85.102 223.542 85.102C222.161 85.102 221.029 85.7733 220.531 86.79C219.974 85.7733 219.054 85.102 217.615 85.102C216.234 85.102 215.294 85.735 214.814 86.4064L214.622 85.4089H211.86V95H214.814ZM232.253 95.2494C233.692 95.2494 234.958 94.6164 235.265 93.734L235.456 95H238.065V89.3988C238.065 86.6557 236.492 85.102 233.711 85.102C230.968 85.102 229.184 86.5215 229.184 88.689H231.639C231.639 87.8258 232.311 87.3463 233.557 87.3463C234.612 87.3463 235.188 87.845 235.188 88.785V88.9384L232.502 89.1494C230.2 89.3221 228.954 90.4154 228.954 92.1802C228.954 94.0601 230.22 95.2494 232.253 95.2494ZM233.289 93.0626C232.387 93.0626 231.965 92.7365 231.965 92.0459C231.965 91.4321 232.426 91.1444 233.711 91.0293L235.207 90.895V91.4129C235.207 92.5063 234.421 93.0626 233.289 93.0626ZM244.212 95.2494C245.593 95.2494 246.783 94.6547 247.301 93.7723L247.454 95H250.235V80.5366H247.281V86.2913C246.725 85.5815 245.593 85.102 244.404 85.102C241.488 85.102 239.666 87.212 239.666 90.262C239.666 93.2928 241.45 95.2494 244.212 95.2494ZM244.922 92.5447C243.522 92.5447 242.639 91.5664 242.639 90.1469C242.639 88.7274 243.522 87.7491 244.922 87.7491C246.303 87.7491 247.262 88.7082 247.262 90.1469C247.262 91.5856 246.303 92.5447 244.922 92.5447ZM256.904 95.2494C259.532 95.2494 261.431 93.8874 261.776 91.7582H259.072C258.861 92.4488 258.074 92.8516 256.962 92.8516C255.657 92.8516 254.948 92.2569 254.775 90.9909L261.738 90.9526V90.2044C261.738 87.0777 259.858 85.102 256.847 85.102C253.95 85.102 251.936 87.1928 251.936 90.1853C251.936 93.1393 254.008 95.2494 256.904 95.2494ZM256.866 87.4997C258.055 87.4997 258.803 88.1519 258.803 89.1686H254.813C255.043 88.0177 255.696 87.4997 256.866 87.4997Z" fill="#1C233E"/>
<path d="M141.615 215.23C145.164 215.23 147.811 213.139 148.31 209.974H145.087C144.704 211.375 143.418 212.238 141.673 212.238C139.39 212.238 137.971 210.569 137.971 207.903C137.971 205.198 139.371 203.567 141.673 203.567C143.38 203.567 144.589 204.373 145.011 205.793H148.291C147.85 202.608 145.298 200.575 141.75 200.575C137.51 200.575 134.691 203.491 134.691 207.922C134.691 212.41 137.357 215.23 141.615 215.23ZM156.392 205.409V210.396C156.392 211.969 155.874 212.621 154.608 212.621C153.4 212.621 152.863 211.931 152.863 210.358V205.409H149.909V211.432C149.909 213.792 151.251 215.249 153.438 215.249C154.589 215.249 155.778 214.712 156.373 213.926L156.565 215H159.346V205.409H156.392ZM160.685 211.969C160.685 213.907 162.277 215.249 164.809 215.249C167.303 215.249 169.049 214.003 169.049 211.95C169.049 210.415 168.185 209.687 166.612 209.341L164.829 208.958C164.157 208.804 163.793 208.555 163.793 208.114C163.793 207.596 164.215 207.25 164.886 207.25C165.596 207.25 165.999 207.692 165.999 208.344H168.799C168.799 206.406 167.245 205.102 165.02 205.102C162.718 205.102 161.011 206.253 161.011 208.248C161.011 209.936 161.874 210.703 163.639 211.087L165.404 211.47C166.114 211.624 166.267 211.931 166.267 212.219C166.267 212.717 165.845 213.043 164.924 213.043C164.023 213.043 163.524 212.641 163.486 211.969H160.685ZM174.467 215V207.864H176.289V205.409H174.467V202.436H171.513V205.409H169.691V207.864H171.513V215H174.467ZM177.005 210.185C177.005 213.216 179.23 215.23 182.3 215.23C185.35 215.23 187.575 213.216 187.575 210.185C187.575 207.154 185.35 205.121 182.3 205.121C179.23 205.121 177.005 207.154 177.005 210.185ZM179.979 210.166C179.979 208.727 180.919 207.768 182.3 207.768C183.662 207.768 184.602 208.727 184.602 210.166C184.602 211.624 183.662 212.583 182.3 212.583C180.919 212.583 179.979 211.624 179.979 210.166ZM192.241 215V209.859C192.241 208.248 193.105 207.787 193.949 207.787C194.889 207.787 195.502 208.363 195.502 209.552V215H198.456V209.859C198.456 208.229 199.3 207.768 200.145 207.768C201.084 207.768 201.717 208.344 201.717 209.552V215H204.672V208.727C204.672 206.541 203.444 205.102 200.969 205.102C199.588 205.102 198.456 205.773 197.958 206.79C197.401 205.773 196.481 205.102 195.042 205.102C193.661 205.102 192.721 205.735 192.241 206.406L192.05 205.409H189.287V215H192.241ZM211.438 204.929C211.438 207.25 212.743 208.689 215.275 209.207L217.442 209.648C218.382 209.84 218.747 210.243 218.747 211.029C218.747 211.931 217.864 212.487 216.464 212.487C215.083 212.487 214.316 211.912 214.316 210.876H211.227C211.227 213.542 213.28 215.249 216.445 215.249C219.706 215.249 221.854 213.465 221.854 210.722C221.854 208.478 220.646 207.27 218.114 206.752L215.984 206.31C214.987 206.099 214.546 205.677 214.546 204.814C214.546 203.874 215.351 203.299 216.617 203.299C217.788 203.299 218.536 203.913 218.536 204.91H221.624C221.624 202.225 219.706 200.537 216.656 200.537C213.606 200.537 211.438 202.359 211.438 204.929ZM226.503 215V209.744C226.503 208.555 227.252 207.787 228.422 207.787C229.438 207.787 230.11 208.574 230.11 209.782V215H233.064V209.073C233.064 206.56 231.74 205.102 229.457 205.102C228.211 205.102 227.117 205.582 226.523 206.406V200.537H223.549V215H226.503ZM236.64 203.913C237.561 203.913 238.309 203.165 238.309 202.225C238.309 201.285 237.561 200.556 236.64 200.556C235.7 200.556 234.952 201.285 234.952 202.225C234.952 203.165 235.7 203.913 236.64 203.913ZM235.182 215H238.136V205.409H235.182V215ZM240.353 219.604H243.307V214.041C243.863 214.77 245.091 215.269 246.414 215.269C249.272 215.269 250.922 213.082 250.922 210.051C250.922 206.963 249.061 205.102 246.395 205.102C245.033 205.102 243.825 205.697 243.287 206.579L243.134 205.409H240.353V219.604ZM243.326 210.204C243.326 208.766 244.285 207.807 245.666 207.807C247.066 207.807 247.949 208.785 247.949 210.204C247.949 211.624 247.066 212.602 245.666 212.602C244.285 212.602 243.326 211.643 243.326 210.204ZM252.622 219.604H255.576V214.041C256.133 214.77 257.36 215.269 258.684 215.269C261.542 215.269 263.192 213.082 263.192 210.051C263.192 206.963 261.331 205.102 258.665 205.102C257.303 205.102 256.094 205.697 255.557 206.579L255.404 205.409H252.622V219.604ZM255.596 210.204C255.596 208.766 256.555 207.807 257.936 207.807C259.336 207.807 260.219 208.785 260.219 210.204C260.219 211.624 259.336 212.602 257.936 212.602C256.555 212.602 255.596 211.643 255.596 210.204ZM266.35 203.913C267.271 203.913 268.019 203.165 268.019 202.225C268.019 201.285 267.271 200.556 266.35 200.556C265.41 200.556 264.662 201.285 264.662 202.225C264.662 203.165 265.41 203.913 266.35 203.913ZM264.892 215H267.846V205.409H264.892V215ZM273.017 215V209.744C273.017 208.555 273.765 207.787 274.935 207.787C275.951 207.787 276.623 208.574 276.623 209.782V215H279.577V209.073C279.577 206.56 278.253 205.102 275.971 205.102C274.724 205.102 273.63 205.582 273.036 206.406L272.844 205.409H270.063V215H273.017ZM281.216 210.032C281.216 212.909 283.077 214.885 285.762 214.885C287.009 214.885 288.083 214.444 288.659 213.753V215C288.659 216.362 287.757 217.206 286.338 217.206C285.033 217.206 284.228 216.573 284.17 215.499H281.178C281.446 218.223 283.422 219.891 286.357 219.891C289.637 219.891 291.613 217.82 291.613 214.386V205.409H288.831L288.678 206.368C288.16 205.582 287.124 205.083 285.82 205.083C283.115 205.083 281.216 207.116 281.216 210.032ZM284.189 209.955C284.189 208.593 285.091 207.653 286.395 207.653C287.757 207.653 288.659 208.555 288.659 209.955C288.659 211.375 287.757 212.314 286.414 212.314C285.11 212.314 284.189 211.336 284.189 209.955Z" fill="#1C233E"/>
<path d="M141.865 323.491C143.342 323.491 144.646 324.143 145.011 325.639H148.272C147.945 322.57 145.337 320.575 141.941 320.575C137.549 320.575 134.691 323.663 134.691 327.941C134.691 332.295 137.472 335.211 141.443 335.211C143.131 335.211 144.665 334.616 145.433 333.715L145.605 335H148.272V326.848H141.596V329.571H145.356C145.222 331.048 144.186 332.314 141.846 332.314C139.582 332.314 137.971 330.895 137.971 328.037C137.971 325.294 139.294 323.491 141.865 323.491ZM154.924 335.249C157.552 335.249 159.451 333.887 159.796 331.758H157.091C156.88 332.449 156.094 332.852 154.981 332.852C153.677 332.852 152.967 332.257 152.794 330.991L159.758 330.953V330.204C159.758 327.078 157.878 325.102 154.866 325.102C151.97 325.102 149.955 327.193 149.955 330.185C149.955 333.139 152.027 335.249 154.924 335.249ZM154.885 327.5C156.075 327.5 156.823 328.152 156.823 329.169H152.833C153.063 328.018 153.715 327.5 154.885 327.5ZM165.288 335V327.864H167.11V325.409H165.288V322.436H162.334V325.409H160.512V327.864H162.334V335H165.288ZM172.747 339.604C173.323 339.776 173.994 339.872 174.704 339.872C176.392 339.872 177.466 339.047 178.272 337.091L183.144 325.409H180.075L177.754 331.566L175.663 325.409H172.498L176.353 335.326L176.181 335.786C175.797 336.822 175.375 337.129 174.378 337.129H172.747V339.604ZM183.356 330.185C183.356 333.216 185.581 335.23 188.65 335.23C191.7 335.23 193.925 333.216 193.925 330.185C193.925 327.154 191.7 325.121 188.65 325.121C185.581 325.121 183.356 327.154 183.356 330.185ZM186.329 330.166C186.329 328.727 187.269 327.768 188.65 327.768C190.012 327.768 190.952 328.727 190.952 330.166C190.952 331.624 190.012 332.583 188.65 332.583C187.269 332.583 186.329 331.624 186.329 330.166ZM201.781 325.409V330.396C201.781 331.969 201.264 332.621 199.997 332.621C198.789 332.621 198.252 331.931 198.252 330.358V325.409H195.298V331.432C195.298 333.792 196.641 335.249 198.827 335.249C199.978 335.249 201.168 334.712 201.762 333.926L201.954 335H204.735V325.409H201.781ZM213.551 325.409C213.148 325.313 212.764 325.275 212.419 325.275C211.134 325.275 210.29 325.908 209.887 326.848L209.734 325.428H206.952V335H209.906V330.837C209.906 328.938 210.923 328.19 212.611 328.19H213.551V325.409ZM224.15 335.249C225.531 335.249 226.72 334.655 227.238 333.772L227.391 335H230.173V320.537H227.219V326.291C226.662 325.582 225.531 325.102 224.341 325.102C221.426 325.102 219.603 327.212 219.603 330.262C219.603 333.293 221.387 335.249 224.15 335.249ZM224.859 332.545C223.459 332.545 222.577 331.566 222.577 330.147C222.577 328.727 223.459 327.749 224.859 327.749C226.24 327.749 227.2 328.708 227.2 330.147C227.2 331.586 226.24 332.545 224.859 332.545ZM236.841 335.249C239.469 335.249 241.368 333.887 241.714 331.758H239.009C238.798 332.449 238.012 332.852 236.899 332.852C235.595 332.852 234.885 332.257 234.712 330.991L241.675 330.953V330.204C241.675 327.078 239.796 325.102 236.784 325.102C233.887 325.102 231.873 327.193 231.873 330.185C231.873 333.139 233.945 335.249 236.841 335.249ZM236.803 327.5C237.992 327.5 238.74 328.152 238.74 329.169H234.751C234.981 328.018 235.633 327.5 236.803 327.5ZM246.379 335V320.537H243.425V335H246.379ZM250.053 323.913C250.974 323.913 251.722 323.165 251.722 322.225C251.722 321.285 250.974 320.556 250.053 320.556C249.113 320.556 248.365 321.285 248.365 322.225C248.365 323.165 249.113 323.913 250.053 323.913ZM248.595 335H251.549V325.409H248.595V335ZM258.215 335.249C260.843 335.249 262.742 333.887 263.088 331.758H260.383C260.172 332.449 259.386 332.852 258.273 332.852C256.969 332.852 256.259 332.257 256.086 330.991L263.049 330.953V330.204C263.049 327.078 261.169 325.102 258.158 325.102C255.261 325.102 253.247 327.193 253.247 330.185C253.247 333.139 255.319 335.249 258.215 335.249ZM258.177 327.5C259.366 327.5 260.114 328.152 260.114 329.169H256.125C256.355 328.018 257.007 327.5 258.177 327.5ZM267.035 335H269.951L273.96 325.409H270.891L269.606 328.766C269.126 330.013 268.704 331.259 268.589 331.816C268.512 331.375 268.129 330.166 267.649 328.766L266.479 325.409H263.295L267.035 335ZM279.14 335.249C281.768 335.249 283.667 333.887 284.012 331.758H281.307C281.096 332.449 280.31 332.852 279.197 332.852C277.893 332.852 277.183 332.257 277.011 330.991L283.974 330.953V330.204C283.974 327.078 282.094 325.102 279.082 325.102C276.186 325.102 274.172 327.193 274.172 330.185C274.172 333.139 276.243 335.249 279.14 335.249ZM279.101 327.5C280.291 327.5 281.039 328.152 281.039 329.169H277.049C277.279 328.018 277.931 327.5 279.101 327.5ZM292.322 325.409C291.919 325.313 291.535 325.275 291.19 325.275C289.905 325.275 289.061 325.908 288.658 326.848L288.504 325.428H285.723V335H288.677V330.837C288.677 328.938 289.694 328.19 291.382 328.19H292.322V325.409ZM293.329 339.604C293.905 339.776 294.576 339.872 295.286 339.872C296.974 339.872 298.048 339.047 298.854 337.091L303.726 325.409H300.657L298.336 331.566L296.245 325.409H293.08L296.935 335.326L296.763 335.786C296.379 336.822 295.957 337.129 294.96 337.129H293.329V339.604ZM313.894 335V327.864H315.716V325.409H313.894V322.436H310.94V325.409H309.118V327.864H310.94V335H313.894ZM318.502 323.913C319.423 323.913 320.171 323.165 320.171 322.225C320.171 321.285 319.423 320.556 318.502 320.556C317.562 320.556 316.814 321.285 316.814 322.225C316.814 323.165 317.562 323.913 318.502 323.913ZM317.044 335H319.998V325.409H317.044V335ZM325.168 335V329.859C325.168 328.248 326.031 327.787 326.875 327.787C327.815 327.787 328.429 328.363 328.429 329.552V335H331.383V329.859C331.383 328.229 332.227 327.768 333.071 327.768C334.011 327.768 334.644 328.344 334.644 329.552V335H337.598V328.727C337.598 326.541 336.371 325.102 333.896 325.102C332.515 325.102 331.383 325.773 330.885 326.79C330.328 325.773 329.408 325.102 327.969 325.102C326.588 325.102 325.648 325.735 325.168 326.406L324.976 325.409H322.214V335H325.168ZM344.161 335.249C346.789 335.249 348.688 333.887 349.033 331.758H346.328C346.117 332.449 345.331 332.852 344.218 332.852C342.914 332.852 342.204 332.257 342.032 330.991L348.995 330.953V330.204C348.995 327.078 347.115 325.102 344.103 325.102C341.207 325.102 339.193 327.193 339.193 330.185C339.193 333.139 341.264 335.249 344.161 335.249ZM344.122 327.5C345.312 327.5 346.06 328.152 346.06 329.169H342.07C342.3 328.018 342.952 327.5 344.122 327.5Z" fill="white"/>
<path d="M145.03 454.962V452.084H139.851L141.98 450.3C143.745 448.823 144.915 447.25 144.915 445.313C144.915 442.282 142.977 440.537 139.735 440.537C136.609 440.537 134.575 442.608 134.575 445.793H137.664C137.664 444.2 138.431 443.299 139.755 443.299C141.021 443.299 141.73 444.066 141.73 445.505C141.73 446.675 141.097 447.557 139.582 448.804L134.902 452.698V455L145.03 454.962ZM157.737 452.487V449.763H155.992V440.805H152.117L145.998 449.763V452.487H153.057V455H155.992V452.487H157.737ZM149.297 449.763L153.057 444.239V449.763H149.297ZM161.156 455L166.7 440.844H163.746L158.221 455H161.156ZM167.571 440.805V443.682H174.975L169.988 455H173.211L178.102 443.682V440.805H167.571ZM190.882 455.23C194.431 455.23 197.078 453.139 197.577 449.974H194.354C193.971 451.375 192.685 452.238 190.94 452.238C188.657 452.238 187.238 450.569 187.238 447.903C187.238 445.198 188.638 443.567 190.94 443.567C192.647 443.567 193.855 444.373 194.277 445.793H197.558C197.116 442.608 194.565 440.575 191.016 440.575C186.777 440.575 183.957 443.491 183.957 447.922C183.957 452.41 186.624 455.23 190.882 455.23ZM202.151 455V449.744C202.151 448.555 202.899 447.787 204.069 447.787C205.086 447.787 205.757 448.574 205.757 449.782V455H208.711V449.073C208.711 446.56 207.388 445.102 205.105 445.102C203.858 445.102 202.765 445.582 202.17 446.406V440.537H199.197V455H202.151ZM213.726 455.249C215.165 455.249 216.431 454.616 216.738 453.734L216.93 455H219.539V449.399C219.539 446.656 217.966 445.102 215.184 445.102C212.441 445.102 210.657 446.521 210.657 448.689H213.113C213.113 447.826 213.784 447.346 215.031 447.346C216.086 447.346 216.661 447.845 216.661 448.785V448.938L213.976 449.149C211.674 449.322 210.427 450.415 210.427 452.18C210.427 454.06 211.693 455.249 213.726 455.249ZM214.762 453.063C213.861 453.063 213.439 452.736 213.439 452.046C213.439 451.432 213.899 451.144 215.184 451.029L216.68 450.895V451.413C216.68 452.506 215.894 453.063 214.762 453.063ZM225.439 455V447.864H227.261V445.409H225.439V442.436H222.484V445.409H220.662V447.864H222.484V455H225.439ZM232.974 451.969C232.974 453.907 234.567 455.249 237.099 455.249C239.592 455.249 241.338 454.003 241.338 451.95C241.338 450.415 240.475 449.687 238.902 449.341L237.118 448.958C236.446 448.804 236.082 448.555 236.082 448.114C236.082 447.596 236.504 447.25 237.175 447.25C237.885 447.25 238.288 447.692 238.288 448.344H241.089C241.089 446.406 239.535 445.102 237.31 445.102C235.008 445.102 233.301 446.253 233.301 448.248C233.301 449.936 234.164 450.703 235.928 451.087L237.693 451.47C238.403 451.624 238.556 451.931 238.556 452.219C238.556 452.717 238.134 453.043 237.214 453.043C236.312 453.043 235.813 452.641 235.775 451.969H232.974ZM249.25 445.409V450.396C249.25 451.969 248.732 452.621 247.466 452.621C246.258 452.621 245.72 451.931 245.72 450.358V445.409H242.766V451.432C242.766 453.792 244.109 455.249 246.296 455.249C247.447 455.249 248.636 454.712 249.231 453.926L249.423 455H252.204V445.409H249.25ZM254.421 459.604H257.375V454.041C257.931 454.77 259.159 455.269 260.482 455.269C263.34 455.269 264.99 453.082 264.99 450.051C264.99 446.963 263.129 445.102 260.463 445.102C259.101 445.102 257.893 445.697 257.356 446.579L257.202 445.409H254.421V459.604ZM257.394 450.204C257.394 448.766 258.353 447.807 259.734 447.807C261.135 447.807 262.017 448.785 262.017 450.204C262.017 451.624 261.135 452.602 259.734 452.602C258.353 452.602 257.394 451.643 257.394 450.204ZM266.691 459.604H269.645V454.041C270.201 454.77 271.429 455.269 272.752 455.269C275.61 455.269 277.26 453.082 277.26 450.051C277.26 446.963 275.399 445.102 272.733 445.102C271.371 445.102 270.163 445.697 269.626 446.579L269.472 445.409H266.691V459.604ZM269.664 450.204C269.664 448.766 270.623 447.807 272.004 447.807C273.404 447.807 274.287 448.785 274.287 450.204C274.287 451.624 273.404 452.602 272.004 452.602C270.623 452.602 269.664 451.643 269.664 450.204ZM278.443 450.185C278.443 453.216 280.668 455.23 283.737 455.23C286.787 455.23 289.012 453.216 289.012 450.185C289.012 447.154 286.787 445.121 283.737 445.121C280.668 445.121 278.443 447.154 278.443 450.185ZM281.416 450.166C281.416 448.727 282.356 447.768 283.737 447.768C285.099 447.768 286.039 448.727 286.039 450.166C286.039 451.624 285.099 452.583 283.737 452.583C282.356 452.583 281.416 451.624 281.416 450.166ZM297.323 445.409C296.92 445.313 296.537 445.275 296.192 445.275C294.906 445.275 294.062 445.908 293.659 446.848L293.506 445.428H290.725V455H293.679V450.837C293.679 448.938 294.695 448.19 296.383 448.19H297.323V445.409ZM303.067 455V447.864H304.889V445.409H303.067V442.436H300.113V445.409H298.29V447.864H300.113V455H303.067Z" fill="#1C233E"/>
<path opacity="0.8" d="M140.144 119.176C142.752 119.176 144.816 117.64 145.312 115.336H143.648C143.216 116.76 141.872 117.672 140.176 117.672C137.84 117.672 136.304 115.912 136.304 113.208C136.304 110.504 137.84 108.744 140.176 108.744C141.856 108.744 143.152 109.656 143.584 111.16H145.264C144.832 108.792 142.832 107.24 140.224 107.24C136.912 107.24 134.656 109.656 134.656 113.224C134.656 116.808 136.848 119.176 140.144 119.176ZM148.405 118.984V114.728C148.405 113.384 149.189 112.328 150.645 112.328C151.765 112.328 152.517 112.968 152.517 114.552V119H154.021V114.216C154.021 112.216 153.061 110.952 151.061 110.952C149.845 110.952 148.901 111.528 148.405 112.376V107.224H146.901V118.984H148.405ZM155.592 115.08C155.592 117.496 157.32 119.192 159.672 119.192C162.008 119.192 163.736 117.496 163.736 115.08C163.736 112.664 162.008 110.968 159.672 110.968C157.32 110.968 155.592 112.664 155.592 115.08ZM157.112 115.08C157.112 113.448 158.152 112.312 159.672 112.312C161.176 112.312 162.232 113.448 162.232 115.08C162.232 116.712 161.176 117.848 159.672 117.848C158.152 117.848 157.112 116.712 157.112 115.08ZM164.889 115.08C164.889 117.496 166.617 119.192 168.969 119.192C171.305 119.192 173.033 117.496 173.033 115.08C173.033 112.664 171.305 110.968 168.969 110.968C166.617 110.968 164.889 112.664 164.889 115.08ZM166.409 115.08C166.409 113.448 167.449 112.312 168.969 112.312C170.473 112.312 171.529 113.448 171.529 115.08C171.529 116.712 170.473 117.848 168.969 117.848C167.449 117.848 166.409 116.712 166.409 115.08ZM174.057 116.728C174.057 118.216 175.225 119.192 177.065 119.192C178.921 119.192 180.201 118.248 180.201 116.76C180.201 115.592 179.545 114.984 178.217 114.664L176.841 114.328C176.073 114.136 175.689 113.784 175.689 113.256C175.689 112.536 176.217 112.12 177.161 112.12C178.073 112.12 178.601 112.616 178.633 113.4H180.073C180.041 111.912 178.921 110.952 177.209 110.952C175.481 110.952 174.265 111.864 174.265 113.304C174.265 114.456 174.921 115.144 176.313 115.48L177.689 115.8C178.505 116.008 178.761 116.328 178.761 116.856C178.761 117.576 178.153 118.008 177.097 118.008C176.105 118.008 175.497 117.528 175.497 116.728H174.057ZM185.245 119.192C187.181 119.192 188.493 118.248 188.877 116.568H187.469C187.213 117.464 186.445 117.944 185.277 117.944C183.789 117.944 182.925 117.032 182.813 115.384L188.861 115.368V114.808C188.861 112.488 187.405 110.952 185.181 110.952C182.909 110.952 181.357 112.648 181.357 115.096C181.357 117.528 182.941 119.192 185.245 119.192ZM185.181 112.216C186.509 112.216 187.357 113.08 187.357 114.376H182.845C183.037 113 183.869 112.216 185.181 112.216ZM197.124 119V112.44H198.66V111.176H197.124V108.728H195.62V111.176H194.084V112.44H195.62V119H197.124ZM201.514 118.984V114.728C201.514 113.384 202.298 112.328 203.754 112.328C204.874 112.328 205.626 112.968 205.626 114.552V119H207.13V114.216C207.13 112.216 206.17 110.952 204.17 110.952C202.954 110.952 202.01 111.528 201.514 112.376V107.224H200.01V118.984H201.514ZM212.589 119.192C214.525 119.192 215.837 118.248 216.221 116.568H214.813C214.557 117.464 213.789 117.944 212.621 117.944C211.133 117.944 210.269 117.032 210.157 115.384L216.205 115.368V114.808C216.205 112.488 214.749 110.952 212.525 110.952C210.253 110.952 208.701 112.648 208.701 115.096C208.701 117.528 210.285 119.192 212.589 119.192ZM212.525 112.216C213.853 112.216 214.701 113.08 214.701 114.376H210.189C210.381 113 211.213 112.216 212.525 112.216ZM222.26 122.504H223.764V117.72C224.276 118.68 225.316 119.208 226.564 119.208C228.884 119.208 230.196 117.416 230.196 115.032C230.196 112.632 228.804 110.952 226.564 110.952C225.316 110.952 224.26 111.512 223.732 112.584L223.62 111.176H222.26V122.504ZM223.78 115.096C223.78 113.464 224.708 112.328 226.244 112.328C227.78 112.328 228.692 113.48 228.692 115.096C228.692 116.696 227.78 117.848 226.244 117.848C224.708 117.848 223.78 116.696 223.78 115.096ZM235.23 119.192C237.166 119.192 238.478 118.248 238.862 116.568H237.454C237.198 117.464 236.43 117.944 235.262 117.944C233.774 117.944 232.91 117.032 232.798 115.384L238.846 115.368V114.808C238.846 112.488 237.39 110.952 235.166 110.952C232.894 110.952 231.342 112.648 231.342 115.096C231.342 117.528 232.926 119.192 235.23 119.192ZM235.166 112.216C236.494 112.216 237.342 113.08 237.342 114.376H232.83C233.022 113 233.854 112.216 235.166 112.216ZM245.006 111.112C244.702 111.048 244.478 111.016 244.206 111.016C243.134 111.016 242.35 111.56 242.03 112.376L241.934 111.192H240.526V119H242.03V114.856C242.03 113.352 242.91 112.488 244.334 112.488H245.006V111.112ZM245.897 111.176V112.44H247.049V119H248.553V112.44H250.409V111.176H248.553V109.928C248.553 109.08 248.809 108.584 249.785 108.584H250.457V107.288C250.153 107.24 249.817 107.224 249.529 107.224C248.105 107.224 247.049 108.008 247.049 109.928V111.176H245.897ZM254.948 119.192C256.884 119.192 258.196 118.248 258.58 116.568H257.172C256.916 117.464 256.148 117.944 254.98 117.944C253.492 117.944 252.628 117.032 252.516 115.384L258.564 115.368V114.808C258.564 112.488 257.108 110.952 254.884 110.952C252.612 110.952 251.06 112.648 251.06 115.096C251.06 117.528 252.644 119.192 254.948 119.192ZM254.884 112.216C256.212 112.216 257.06 113.08 257.06 114.376H252.548C252.74 113 253.572 112.216 254.884 112.216ZM259.732 115.096C259.732 117.56 261.252 119.192 263.556 119.192C265.444 119.192 266.9 118.056 267.204 116.36H265.7C265.428 117.288 264.628 117.848 263.556 117.848C262.132 117.848 261.22 116.76 261.22 115.08C261.22 113.384 262.196 112.296 263.62 112.296C264.628 112.296 265.428 112.824 265.684 113.816H267.188C266.916 112.072 265.54 110.952 263.572 110.952C261.284 110.952 259.732 112.648 259.732 115.096ZM270.999 119V112.44H272.535V111.176H270.999V108.728H269.495V111.176H267.959V112.44H269.495V119H270.999ZM277.748 115.08C277.748 117.496 279.476 119.192 281.828 119.192C284.164 119.192 285.892 117.496 285.892 115.08C285.892 112.664 284.164 110.968 281.828 110.968C279.476 110.968 277.748 112.664 277.748 115.08ZM279.268 115.08C279.268 113.448 280.308 112.312 281.828 112.312C283.332 112.312 284.388 113.448 284.388 115.08C284.388 116.712 283.332 117.848 281.828 117.848C280.308 117.848 279.268 116.712 279.268 115.08ZM287.557 122.504H289.061V117.72C289.573 118.68 290.613 119.208 291.861 119.208C294.181 119.208 295.493 117.416 295.493 115.032C295.493 112.632 294.101 110.952 291.861 110.952C290.613 110.952 289.557 111.512 289.029 112.584L288.917 111.176H287.557V122.504ZM289.077 115.096C289.077 113.464 290.005 112.328 291.541 112.328C293.077 112.328 293.989 113.48 293.989 115.096C293.989 116.696 293.077 117.848 291.541 117.848C290.005 117.848 289.077 116.696 289.077 115.096ZM299.28 119V112.44H300.816V111.176H299.28V108.728H297.776V111.176H296.24V112.44H297.776V119H299.28ZM302.902 109.32C303.446 109.32 303.894 108.872 303.894 108.328C303.894 107.768 303.446 107.336 302.902 107.336C302.358 107.336 301.91 107.768 301.91 108.328C301.91 108.872 302.358 109.32 302.902 109.32ZM302.166 119H303.67V111.176H302.166V119ZM305.342 115.08C305.342 117.496 307.07 119.192 309.422 119.192C311.758 119.192 313.486 117.496 313.486 115.08C313.486 112.664 311.758 110.968 309.422 110.968C307.07 110.968 305.342 112.664 305.342 115.08ZM306.862 115.08C306.862 113.448 307.902 112.312 309.422 112.312C310.926 112.312 311.982 113.448 311.982 115.08C311.982 116.712 310.926 117.848 309.422 117.848C307.902 117.848 306.862 116.712 306.862 115.08ZM316.655 119V114.856C316.655 113.336 317.471 112.328 318.879 112.328C320.031 112.328 320.767 112.968 320.767 114.552V119H322.271V114.216C322.271 112.216 321.327 110.952 319.263 110.952C318.159 110.952 317.167 111.48 316.671 112.376L316.511 111.176H315.151V119H316.655ZM327.897 111.176V112.44H329.049V119H330.553V112.44H332.409V111.176H330.553V109.928C330.553 109.08 330.809 108.584 331.785 108.584H332.457V107.288C332.153 107.24 331.817 107.224 331.529 107.224C330.105 107.224 329.049 108.008 329.049 109.928V111.176H327.897ZM333.06 115.08C333.06 117.496 334.788 119.192 337.14 119.192C339.476 119.192 341.204 117.496 341.204 115.08C341.204 112.664 339.476 110.968 337.14 110.968C334.788 110.968 333.06 112.664 333.06 115.08ZM334.58 115.08C334.58 113.448 335.62 112.312 337.14 112.312C338.644 112.312 339.7 113.448 339.7 115.08C339.7 116.712 338.644 117.848 337.14 117.848C335.62 117.848 334.58 116.712 334.58 115.08ZM347.349 111.112C347.045 111.048 346.821 111.016 346.549 111.016C345.477 111.016 344.693 111.56 344.373 112.376L344.277 111.192H342.869V119H344.373V114.856C344.373 113.352 345.253 112.488 346.677 112.488H347.349V111.112ZM352.383 122.504C352.783 122.6 353.199 122.664 353.695 122.664C354.895 122.664 355.679 122.104 356.207 120.76L359.903 111.176H358.351L356.031 117.48L353.759 111.176H352.175L355.327 119.416L355.055 120.168C354.687 121.16 354.111 121.272 353.391 121.272H352.383V122.504ZM360.295 115.08C360.295 117.496 362.023 119.192 364.375 119.192C366.711 119.192 368.439 117.496 368.439 115.08C368.439 112.664 366.711 110.968 364.375 110.968C362.023 110.968 360.295 112.664 360.295 115.08ZM361.815 115.08C361.815 113.448 362.855 112.312 364.375 112.312C365.879 112.312 366.935 113.448 366.935 115.08C366.935 116.712 365.879 117.848 364.375 117.848C362.855 117.848 361.815 116.712 361.815 115.08ZM375.324 111.176V115.304C375.324 116.984 374.572 117.864 373.196 117.864C372.044 117.864 371.324 117.224 371.324 115.544V111.176H369.82V116.04C369.82 117.96 370.844 119.192 372.668 119.192C373.82 119.192 374.86 118.632 375.308 117.816L375.468 119H376.812V111.176H375.324Z" fill="#565F73"/>
<path opacity="0.8" d="M140.144 239.176C142.752 239.176 144.816 237.64 145.312 235.336H143.648C143.216 236.76 141.872 237.672 140.176 237.672C137.84 237.672 136.304 235.912 136.304 233.208C136.304 230.504 137.84 228.744 140.176 228.744C141.856 228.744 143.152 229.656 143.584 231.16H145.264C144.832 228.792 142.832 227.24 140.224 227.24C136.912 227.24 134.656 229.656 134.656 233.224C134.656 236.808 136.848 239.176 140.144 239.176ZM148.405 238.984V234.728C148.405 233.384 149.189 232.328 150.645 232.328C151.765 232.328 152.517 232.968 152.517 234.552V239H154.021V234.216C154.021 232.216 153.061 230.952 151.061 230.952C149.845 230.952 148.901 231.528 148.405 232.376V227.224H146.901V238.984H148.405ZM155.592 235.08C155.592 237.496 157.32 239.192 159.672 239.192C162.008 239.192 163.736 237.496 163.736 235.08C163.736 232.664 162.008 230.968 159.672 230.968C157.32 230.968 155.592 232.664 155.592 235.08ZM157.112 235.08C157.112 233.448 158.152 232.312 159.672 232.312C161.176 232.312 162.232 233.448 162.232 235.08C162.232 236.712 161.176 237.848 159.672 237.848C158.152 237.848 157.112 236.712 157.112 235.08ZM164.889 235.08C164.889 237.496 166.617 239.192 168.969 239.192C171.305 239.192 173.033 237.496 173.033 235.08C173.033 232.664 171.305 230.968 168.969 230.968C166.617 230.968 164.889 232.664 164.889 235.08ZM166.409 235.08C166.409 233.448 167.449 232.312 168.969 232.312C170.473 232.312 171.529 233.448 171.529 235.08C171.529 236.712 170.473 237.848 168.969 237.848C167.449 237.848 166.409 236.712 166.409 235.08ZM174.057 236.728C174.057 238.216 175.225 239.192 177.065 239.192C178.921 239.192 180.201 238.248 180.201 236.76C180.201 235.592 179.545 234.984 178.217 234.664L176.841 234.328C176.073 234.136 175.689 233.784 175.689 233.256C175.689 232.536 176.217 232.12 177.161 232.12C178.073 232.12 178.601 232.616 178.633 233.4H180.073C180.041 231.912 178.921 230.952 177.209 230.952C175.481 230.952 174.265 231.864 174.265 233.304C174.265 234.456 174.921 235.144 176.313 235.48L177.689 235.8C178.505 236.008 178.761 236.328 178.761 236.856C178.761 237.576 178.153 238.008 177.097 238.008C176.105 238.008 175.497 237.528 175.497 236.728H174.057ZM185.245 239.192C187.181 239.192 188.493 238.248 188.877 236.568H187.469C187.213 237.464 186.445 237.944 185.277 237.944C183.789 237.944 182.925 237.032 182.813 235.384L188.861 235.368V234.808C188.861 232.488 187.405 230.952 185.181 230.952C182.909 230.952 181.357 232.648 181.357 235.096C181.357 237.528 182.941 239.192 185.245 239.192ZM185.181 232.216C186.509 232.216 187.357 233.08 187.357 234.376H182.845C183.037 233 183.869 232.216 185.181 232.216ZM197.124 239V232.44H198.66V231.176H197.124V228.728H195.62V231.176H194.084V232.44H195.62V239H197.124ZM201.514 238.984V234.728C201.514 233.384 202.298 232.328 203.754 232.328C204.874 232.328 205.626 232.968 205.626 234.552V239H207.13V234.216C207.13 232.216 206.17 230.952 204.17 230.952C202.954 230.952 202.01 231.528 201.514 232.376V227.224H200.01V238.984H201.514ZM212.589 239.192C214.525 239.192 215.837 238.248 216.221 236.568H214.813C214.557 237.464 213.789 237.944 212.621 237.944C211.133 237.944 210.269 237.032 210.157 235.384L216.205 235.368V234.808C216.205 232.488 214.749 230.952 212.525 230.952C210.253 230.952 208.701 232.648 208.701 235.096C208.701 237.528 210.285 239.192 212.589 239.192ZM212.525 232.216C213.853 232.216 214.701 233.08 214.701 234.376H210.189C210.381 233 211.213 232.216 212.525 232.216ZM222.26 242.504H223.764V237.72C224.276 238.68 225.316 239.208 226.564 239.208C228.884 239.208 230.196 237.416 230.196 235.032C230.196 232.632 228.804 230.952 226.564 230.952C225.316 230.952 224.26 231.512 223.732 232.584L223.62 231.176H222.26V242.504ZM223.78 235.096C223.78 233.464 224.708 232.328 226.244 232.328C227.78 232.328 228.692 233.48 228.692 235.096C228.692 236.696 227.78 237.848 226.244 237.848C224.708 237.848 223.78 236.696 223.78 235.096ZM235.23 239.192C237.166 239.192 238.478 238.248 238.862 236.568H237.454C237.198 237.464 236.43 237.944 235.262 237.944C233.774 237.944 232.91 237.032 232.798 235.384L238.846 235.368V234.808C238.846 232.488 237.39 230.952 235.166 230.952C232.894 230.952 231.342 232.648 231.342 235.096C231.342 237.528 232.926 239.192 235.23 239.192ZM235.166 232.216C236.494 232.216 237.342 233.08 237.342 234.376H232.83C233.022 233 233.854 232.216 235.166 232.216ZM245.006 231.112C244.702 231.048 244.478 231.016 244.206 231.016C243.134 231.016 242.35 231.56 242.03 232.376L241.934 231.192H240.526V239H242.03V234.856C242.03 233.352 242.91 232.488 244.334 232.488H245.006V231.112ZM245.897 231.176V232.44H247.049V239H248.553V232.44H250.409V231.176H248.553V229.928C248.553 229.08 248.809 228.584 249.785 228.584H250.457V227.288C250.153 227.24 249.817 227.224 249.529 227.224C248.105 227.224 247.049 228.008 247.049 229.928V231.176H245.897ZM254.948 239.192C256.884 239.192 258.196 238.248 258.58 236.568H257.172C256.916 237.464 256.148 237.944 254.98 237.944C253.492 237.944 252.628 237.032 252.516 235.384L258.564 235.368V234.808C258.564 232.488 257.108 230.952 254.884 230.952C252.612 230.952 251.06 232.648 251.06 235.096C251.06 237.528 252.644 239.192 254.948 239.192ZM254.884 232.216C256.212 232.216 257.06 233.08 257.06 234.376H252.548C252.74 233 253.572 232.216 254.884 232.216ZM259.732 235.096C259.732 237.56 261.252 239.192 263.556 239.192C265.444 239.192 266.9 238.056 267.204 236.36H265.7C265.428 237.288 264.628 237.848 263.556 237.848C262.132 237.848 261.22 236.76 261.22 235.08C261.22 233.384 262.196 232.296 263.62 232.296C264.628 232.296 265.428 232.824 265.684 233.816H267.188C266.916 232.072 265.54 230.952 263.572 230.952C261.284 230.952 259.732 232.648 259.732 235.096ZM270.999 239V232.44H272.535V231.176H270.999V228.728H269.495V231.176H267.959V232.44H269.495V239H270.999ZM277.748 235.08C277.748 237.496 279.476 239.192 281.828 239.192C284.164 239.192 285.892 237.496 285.892 235.08C285.892 232.664 284.164 230.968 281.828 230.968C279.476 230.968 277.748 232.664 277.748 235.08ZM279.268 235.08C279.268 233.448 280.308 232.312 281.828 232.312C283.332 232.312 284.388 233.448 284.388 235.08C284.388 236.712 283.332 237.848 281.828 237.848C280.308 237.848 279.268 236.712 279.268 235.08ZM287.557 242.504H289.061V237.72C289.573 238.68 290.613 239.208 291.861 239.208C294.181 239.208 295.493 237.416 295.493 235.032C295.493 232.632 294.101 230.952 291.861 230.952C290.613 230.952 289.557 231.512 289.029 232.584L288.917 231.176H287.557V242.504ZM289.077 235.096C289.077 233.464 290.005 232.328 291.541 232.328C293.077 232.328 293.989 233.48 293.989 235.096C293.989 236.696 293.077 237.848 291.541 237.848C290.005 237.848 289.077 236.696 289.077 235.096ZM299.28 239V232.44H300.816V231.176H299.28V228.728H297.776V231.176H296.24V232.44H297.776V239H299.28ZM302.902 229.32C303.446 229.32 303.894 228.872 303.894 228.328C303.894 227.768 303.446 227.336 302.902 227.336C302.358 227.336 301.91 227.768 301.91 228.328C301.91 228.872 302.358 229.32 302.902 229.32ZM302.166 239H303.67V231.176H302.166V239ZM305.342 235.08C305.342 237.496 307.07 239.192 309.422 239.192C311.758 239.192 313.486 237.496 313.486 235.08C313.486 232.664 311.758 230.968 309.422 230.968C307.07 230.968 305.342 232.664 305.342 235.08ZM306.862 235.08C306.862 233.448 307.902 232.312 309.422 232.312C310.926 232.312 311.982 233.448 311.982 235.08C311.982 236.712 310.926 237.848 309.422 237.848C307.902 237.848 306.862 236.712 306.862 235.08ZM316.655 239V234.856C316.655 233.336 317.471 232.328 318.879 232.328C320.031 232.328 320.767 232.968 320.767 234.552V239H322.271V234.216C322.271 232.216 321.327 230.952 319.263 230.952C318.159 230.952 317.167 231.48 316.671 232.376L316.511 231.176H315.151V239H316.655ZM327.897 231.176V232.44H329.049V239H330.553V232.44H332.409V231.176H330.553V229.928C330.553 229.08 330.809 228.584 331.785 228.584H332.457V227.288C332.153 227.24 331.817 227.224 331.529 227.224C330.105 227.224 329.049 228.008 329.049 229.928V231.176H327.897ZM333.06 235.08C333.06 237.496 334.788 239.192 337.14 239.192C339.476 239.192 341.204 237.496 341.204 235.08C341.204 232.664 339.476 230.968 337.14 230.968C334.788 230.968 333.06 232.664 333.06 235.08ZM334.58 235.08C334.58 233.448 335.62 232.312 337.14 232.312C338.644 232.312 339.7 233.448 339.7 235.08C339.7 236.712 338.644 237.848 337.14 237.848C335.62 237.848 334.58 236.712 334.58 235.08ZM347.349 231.112C347.045 231.048 346.821 231.016 346.549 231.016C345.477 231.016 344.693 231.56 344.373 232.376L344.277 231.192H342.869V239H344.373V234.856C344.373 233.352 345.253 232.488 346.677 232.488H347.349V231.112ZM352.383 242.504C352.783 242.6 353.199 242.664 353.695 242.664C354.895 242.664 355.679 242.104 356.207 240.76L359.903 231.176H358.351L356.031 237.48L353.759 231.176H352.175L355.327 239.416L355.055 240.168C354.687 241.16 354.111 241.272 353.391 241.272H352.383V242.504ZM360.295 235.08C360.295 237.496 362.023 239.192 364.375 239.192C366.711 239.192 368.439 237.496 368.439 235.08C368.439 232.664 366.711 230.968 364.375 230.968C362.023 230.968 360.295 232.664 360.295 235.08ZM361.815 235.08C361.815 233.448 362.855 232.312 364.375 232.312C365.879 232.312 366.935 233.448 366.935 235.08C366.935 236.712 365.879 237.848 364.375 237.848C362.855 237.848 361.815 236.712 361.815 235.08ZM375.324 231.176V235.304C375.324 236.984 374.572 237.864 373.196 237.864C372.044 237.864 371.324 237.224 371.324 235.544V231.176H369.82V236.04C369.82 237.96 370.844 239.192 372.668 239.192C373.82 239.192 374.86 238.632 375.308 237.816L375.468 239H376.812V231.176H375.324Z" fill="#565F73"/>
<path opacity="0.5" d="M140.144 359.176C142.752 359.176 144.816 357.64 145.312 355.336H143.648C143.216 356.76 141.872 357.672 140.176 357.672C137.84 357.672 136.304 355.912 136.304 353.208C136.304 350.504 137.84 348.744 140.176 348.744C141.856 348.744 143.152 349.656 143.584 351.16H145.264C144.832 348.792 142.832 347.24 140.224 347.24C136.912 347.24 134.656 349.656 134.656 353.224C134.656 356.808 136.848 359.176 140.144 359.176ZM148.405 358.984V354.728C148.405 353.384 149.189 352.328 150.645 352.328C151.765 352.328 152.517 352.968 152.517 354.552V359H154.021V354.216C154.021 352.216 153.061 350.952 151.061 350.952C149.845 350.952 148.901 351.528 148.405 352.376V347.224H146.901V358.984H148.405ZM155.592 355.08C155.592 357.496 157.32 359.192 159.672 359.192C162.008 359.192 163.736 357.496 163.736 355.08C163.736 352.664 162.008 350.968 159.672 350.968C157.32 350.968 155.592 352.664 155.592 355.08ZM157.112 355.08C157.112 353.448 158.152 352.312 159.672 352.312C161.176 352.312 162.232 353.448 162.232 355.08C162.232 356.712 161.176 357.848 159.672 357.848C158.152 357.848 157.112 356.712 157.112 355.08ZM164.889 355.08C164.889 357.496 166.617 359.192 168.969 359.192C171.305 359.192 173.033 357.496 173.033 355.08C173.033 352.664 171.305 350.968 168.969 350.968C166.617 350.968 164.889 352.664 164.889 355.08ZM166.409 355.08C166.409 353.448 167.449 352.312 168.969 352.312C170.473 352.312 171.529 353.448 171.529 355.08C171.529 356.712 170.473 357.848 168.969 357.848C167.449 357.848 166.409 356.712 166.409 355.08ZM174.057 356.728C174.057 358.216 175.225 359.192 177.065 359.192C178.921 359.192 180.201 358.248 180.201 356.76C180.201 355.592 179.545 354.984 178.217 354.664L176.841 354.328C176.073 354.136 175.689 353.784 175.689 353.256C175.689 352.536 176.217 352.12 177.161 352.12C178.073 352.12 178.601 352.616 178.633 353.4H180.073C180.041 351.912 178.921 350.952 177.209 350.952C175.481 350.952 174.265 351.864 174.265 353.304C174.265 354.456 174.921 355.144 176.313 355.48L177.689 355.8C178.505 356.008 178.761 356.328 178.761 356.856C178.761 357.576 178.153 358.008 177.097 358.008C176.105 358.008 175.497 357.528 175.497 356.728H174.057ZM185.245 359.192C187.181 359.192 188.493 358.248 188.877 356.568H187.469C187.213 357.464 186.445 357.944 185.277 357.944C183.789 357.944 182.925 357.032 182.813 355.384L188.861 355.368V354.808C188.861 352.488 187.405 350.952 185.181 350.952C182.909 350.952 181.357 352.648 181.357 355.096C181.357 357.528 182.941 359.192 185.245 359.192ZM185.181 352.216C186.509 352.216 187.357 353.08 187.357 354.376H182.845C183.037 353 183.869 352.216 185.181 352.216ZM197.124 359V352.44H198.66V351.176H197.124V348.728H195.62V351.176H194.084V352.44H195.62V359H197.124ZM201.514 358.984V354.728C201.514 353.384 202.298 352.328 203.754 352.328C204.874 352.328 205.626 352.968 205.626 354.552V359H207.13V354.216C207.13 352.216 206.17 350.952 204.17 350.952C202.954 350.952 202.01 351.528 201.514 352.376V347.224H200.01V358.984H201.514ZM212.589 359.192C214.525 359.192 215.837 358.248 216.221 356.568H214.813C214.557 357.464 213.789 357.944 212.621 357.944C211.133 357.944 210.269 357.032 210.157 355.384L216.205 355.368V354.808C216.205 352.488 214.749 350.952 212.525 350.952C210.253 350.952 208.701 352.648 208.701 355.096C208.701 357.528 210.285 359.192 212.589 359.192ZM212.525 352.216C213.853 352.216 214.701 353.08 214.701 354.376H210.189C210.381 353 211.213 352.216 212.525 352.216ZM222.26 362.504H223.764V357.72C224.276 358.68 225.316 359.208 226.564 359.208C228.884 359.208 230.196 357.416 230.196 355.032C230.196 352.632 228.804 350.952 226.564 350.952C225.316 350.952 224.26 351.512 223.732 352.584L223.62 351.176H222.26V362.504ZM223.78 355.096C223.78 353.464 224.708 352.328 226.244 352.328C227.78 352.328 228.692 353.48 228.692 355.096C228.692 356.696 227.78 357.848 226.244 357.848C224.708 357.848 223.78 356.696 223.78 355.096ZM235.23 359.192C237.166 359.192 238.478 358.248 238.862 356.568H237.454C237.198 357.464 236.43 357.944 235.262 357.944C233.774 357.944 232.91 357.032 232.798 355.384L238.846 355.368V354.808C238.846 352.488 237.39 350.952 235.166 350.952C232.894 350.952 231.342 352.648 231.342 355.096C231.342 357.528 232.926 359.192 235.23 359.192ZM235.166 352.216C236.494 352.216 237.342 353.08 237.342 354.376H232.83C233.022 353 233.854 352.216 235.166 352.216ZM245.006 351.112C244.702 351.048 244.478 351.016 244.206 351.016C243.134 351.016 242.35 351.56 242.03 352.376L241.934 351.192H240.526V359H242.03V354.856C242.03 353.352 242.91 352.488 244.334 352.488H245.006V351.112ZM245.897 351.176V352.44H247.049V359H248.553V352.44H250.409V351.176H248.553V349.928C248.553 349.08 248.809 348.584 249.785 348.584H250.457V347.288C250.153 347.24 249.817 347.224 249.529 347.224C248.105 347.224 247.049 348.008 247.049 349.928V351.176H245.897ZM254.948 359.192C256.884 359.192 258.196 358.248 258.58 356.568H257.172C256.916 357.464 256.148 357.944 254.98 357.944C253.492 357.944 252.628 357.032 252.516 355.384L258.564 355.368V354.808C258.564 352.488 257.108 350.952 254.884 350.952C252.612 350.952 251.06 352.648 251.06 355.096C251.06 357.528 252.644 359.192 254.948 359.192ZM254.884 352.216C256.212 352.216 257.06 353.08 257.06 354.376H252.548C252.74 353 253.572 352.216 254.884 352.216ZM259.732 355.096C259.732 357.56 261.252 359.192 263.556 359.192C265.444 359.192 266.9 358.056 267.204 356.36H265.7C265.428 357.288 264.628 357.848 263.556 357.848C262.132 357.848 261.22 356.76 261.22 355.08C261.22 353.384 262.196 352.296 263.62 352.296C264.628 352.296 265.428 352.824 265.684 353.816H267.188C266.916 352.072 265.54 350.952 263.572 350.952C261.284 350.952 259.732 352.648 259.732 355.096ZM270.999 359V352.44H272.535V351.176H270.999V348.728H269.495V351.176H267.959V352.44H269.495V359H270.999ZM277.748 355.08C277.748 357.496 279.476 359.192 281.828 359.192C284.164 359.192 285.892 357.496 285.892 355.08C285.892 352.664 284.164 350.968 281.828 350.968C279.476 350.968 277.748 352.664 277.748 355.08ZM279.268 355.08C279.268 353.448 280.308 352.312 281.828 352.312C283.332 352.312 284.388 353.448 284.388 355.08C284.388 356.712 283.332 357.848 281.828 357.848C280.308 357.848 279.268 356.712 279.268 355.08ZM287.557 362.504H289.061V357.72C289.573 358.68 290.613 359.208 291.861 359.208C294.181 359.208 295.493 357.416 295.493 355.032C295.493 352.632 294.101 350.952 291.861 350.952C290.613 350.952 289.557 351.512 289.029 352.584L288.917 351.176H287.557V362.504ZM289.077 355.096C289.077 353.464 290.005 352.328 291.541 352.328C293.077 352.328 293.989 353.48 293.989 355.096C293.989 356.696 293.077 357.848 291.541 357.848C290.005 357.848 289.077 356.696 289.077 355.096ZM299.28 359V352.44H300.816V351.176H299.28V348.728H297.776V351.176H296.24V352.44H297.776V359H299.28ZM302.902 349.32C303.446 349.32 303.894 348.872 303.894 348.328C303.894 347.768 303.446 347.336 302.902 347.336C302.358 347.336 301.91 347.768 301.91 348.328C301.91 348.872 302.358 349.32 302.902 349.32ZM302.166 359H303.67V351.176H302.166V359ZM305.342 355.08C305.342 357.496 307.07 359.192 309.422 359.192C311.758 359.192 313.486 357.496 313.486 355.08C313.486 352.664 311.758 350.968 309.422 350.968C307.07 350.968 305.342 352.664 305.342 355.08ZM306.862 355.08C306.862 353.448 307.902 352.312 309.422 352.312C310.926 352.312 311.982 353.448 311.982 355.08C311.982 356.712 310.926 357.848 309.422 357.848C307.902 357.848 306.862 356.712 306.862 355.08ZM316.655 359V354.856C316.655 353.336 317.471 352.328 318.879 352.328C320.031 352.328 320.767 352.968 320.767 354.552V359H322.271V354.216C322.271 352.216 321.327 350.952 319.263 350.952C318.159 350.952 317.167 351.48 316.671 352.376L316.511 351.176H315.151V359H316.655ZM327.897 351.176V352.44H329.049V359H330.553V352.44H332.409V351.176H330.553V349.928C330.553 349.08 330.809 348.584 331.785 348.584H332.457V347.288C332.153 347.24 331.817 347.224 331.529 347.224C330.105 347.224 329.049 348.008 329.049 349.928V351.176H327.897ZM333.06 355.08C333.06 357.496 334.788 359.192 337.14 359.192C339.476 359.192 341.204 357.496 341.204 355.08C341.204 352.664 339.476 350.968 337.14 350.968C334.788 350.968 333.06 352.664 333.06 355.08ZM334.58 355.08C334.58 353.448 335.62 352.312 337.14 352.312C338.644 352.312 339.7 353.448 339.7 355.08C339.7 356.712 338.644 357.848 337.14 357.848C335.62 357.848 334.58 356.712 334.58 355.08ZM347.349 351.112C347.045 351.048 346.821 351.016 346.549 351.016C345.477 351.016 344.693 351.56 344.373 352.376L344.277 351.192H342.869V359H344.373V354.856C344.373 353.352 345.253 352.488 346.677 352.488H347.349V351.112ZM352.383 362.504C352.783 362.6 353.199 362.664 353.695 362.664C354.895 362.664 355.679 362.104 356.207 360.76L359.903 351.176H358.351L356.031 357.48L353.759 351.176H352.175L355.327 359.416L355.055 360.168C354.687 361.16 354.111 361.272 353.391 361.272H352.383V362.504ZM360.295 355.08C360.295 357.496 362.023 359.192 364.375 359.192C366.711 359.192 368.439 357.496 368.439 355.08C368.439 352.664 366.711 350.968 364.375 350.968C362.023 350.968 360.295 352.664 360.295 355.08ZM361.815 355.08C361.815 353.448 362.855 352.312 364.375 352.312C365.879 352.312 366.935 353.448 366.935 355.08C366.935 356.712 365.879 357.848 364.375 357.848C362.855 357.848 361.815 356.712 361.815 355.08ZM375.324 351.176V355.304C375.324 356.984 374.572 357.864 373.196 357.864C372.044 357.864 371.324 357.224 371.324 355.544V351.176H369.82V356.04C369.82 357.96 370.844 359.192 372.668 359.192C373.82 359.192 374.86 358.632 375.308 357.816L375.468 359H376.812V351.176H375.324Z" fill="#EEF2F5"/>
<path opacity="0.8" d="M140.144 479.176C142.752 479.176 144.816 477.64 145.312 475.336H143.648C143.216 476.76 141.872 477.672 140.176 477.672C137.84 477.672 136.304 475.912 136.304 473.208C136.304 470.504 137.84 468.744 140.176 468.744C141.856 468.744 143.152 469.656 143.584 471.16H145.264C144.832 468.792 142.832 467.24 140.224 467.24C136.912 467.24 134.656 469.656 134.656 473.224C134.656 476.808 136.848 479.176 140.144 479.176ZM148.405 478.984V474.728C148.405 473.384 149.189 472.328 150.645 472.328C151.765 472.328 152.517 472.968 152.517 474.552V479H154.021V474.216C154.021 472.216 153.061 470.952 151.061 470.952C149.845 470.952 148.901 471.528 148.405 472.376V467.224H146.901V478.984H148.405ZM155.592 475.08C155.592 477.496 157.32 479.192 159.672 479.192C162.008 479.192 163.736 477.496 163.736 475.08C163.736 472.664 162.008 470.968 159.672 470.968C157.32 470.968 155.592 472.664 155.592 475.08ZM157.112 475.08C157.112 473.448 158.152 472.312 159.672 472.312C161.176 472.312 162.232 473.448 162.232 475.08C162.232 476.712 161.176 477.848 159.672 477.848C158.152 477.848 157.112 476.712 157.112 475.08ZM164.889 475.08C164.889 477.496 166.617 479.192 168.969 479.192C171.305 479.192 173.033 477.496 173.033 475.08C173.033 472.664 171.305 470.968 168.969 470.968C166.617 470.968 164.889 472.664 164.889 475.08ZM166.409 475.08C166.409 473.448 167.449 472.312 168.969 472.312C170.473 472.312 171.529 473.448 171.529 475.08C171.529 476.712 170.473 477.848 168.969 477.848C167.449 477.848 166.409 476.712 166.409 475.08ZM174.057 476.728C174.057 478.216 175.225 479.192 177.065 479.192C178.921 479.192 180.201 478.248 180.201 476.76C180.201 475.592 179.545 474.984 178.217 474.664L176.841 474.328C176.073 474.136 175.689 473.784 175.689 473.256C175.689 472.536 176.217 472.12 177.161 472.12C178.073 472.12 178.601 472.616 178.633 473.4H180.073C180.041 471.912 178.921 470.952 177.209 470.952C175.481 470.952 174.265 471.864 174.265 473.304C174.265 474.456 174.921 475.144 176.313 475.48L177.689 475.8C178.505 476.008 178.761 476.328 178.761 476.856C178.761 477.576 178.153 478.008 177.097 478.008C176.105 478.008 175.497 477.528 175.497 476.728H174.057ZM185.245 479.192C187.181 479.192 188.493 478.248 188.877 476.568H187.469C187.213 477.464 186.445 477.944 185.277 477.944C183.789 477.944 182.925 477.032 182.813 475.384L188.861 475.368V474.808C188.861 472.488 187.405 470.952 185.181 470.952C182.909 470.952 181.357 472.648 181.357 475.096C181.357 477.528 182.941 479.192 185.245 479.192ZM185.181 472.216C186.509 472.216 187.357 473.08 187.357 474.376H182.845C183.037 473 183.869 472.216 185.181 472.216ZM197.124 479V472.44H198.66V471.176H197.124V468.728H195.62V471.176H194.084V472.44H195.62V479H197.124ZM201.514 478.984V474.728C201.514 473.384 202.298 472.328 203.754 472.328C204.874 472.328 205.626 472.968 205.626 474.552V479H207.13V474.216C207.13 472.216 206.17 470.952 204.17 470.952C202.954 470.952 202.01 471.528 201.514 472.376V467.224H200.01V478.984H201.514ZM212.589 479.192C214.525 479.192 215.837 478.248 216.221 476.568H214.813C214.557 477.464 213.789 477.944 212.621 477.944C211.133 477.944 210.269 477.032 210.157 475.384L216.205 475.368V474.808C216.205 472.488 214.749 470.952 212.525 470.952C210.253 470.952 208.701 472.648 208.701 475.096C208.701 477.528 210.285 479.192 212.589 479.192ZM212.525 472.216C213.853 472.216 214.701 473.08 214.701 474.376H210.189C210.381 473 211.213 472.216 212.525 472.216ZM222.26 482.504H223.764V477.72C224.276 478.68 225.316 479.208 226.564 479.208C228.884 479.208 230.196 477.416 230.196 475.032C230.196 472.632 228.804 470.952 226.564 470.952C225.316 470.952 224.26 471.512 223.732 472.584L223.62 471.176H222.26V482.504ZM223.78 475.096C223.78 473.464 224.708 472.328 226.244 472.328C227.78 472.328 228.692 473.48 228.692 475.096C228.692 476.696 227.78 477.848 226.244 477.848C224.708 477.848 223.78 476.696 223.78 475.096ZM235.23 479.192C237.166 479.192 238.478 478.248 238.862 476.568H237.454C237.198 477.464 236.43 477.944 235.262 477.944C233.774 477.944 232.91 477.032 232.798 475.384L238.846 475.368V474.808C238.846 472.488 237.39 470.952 235.166 470.952C232.894 470.952 231.342 472.648 231.342 475.096C231.342 477.528 232.926 479.192 235.23 479.192ZM235.166 472.216C236.494 472.216 237.342 473.08 237.342 474.376H232.83C233.022 473 233.854 472.216 235.166 472.216ZM245.006 471.112C244.702 471.048 244.478 471.016 244.206 471.016C243.134 471.016 242.35 471.56 242.03 472.376L241.934 471.192H240.526V479H242.03V474.856C242.03 473.352 242.91 472.488 244.334 472.488H245.006V471.112ZM245.897 471.176V472.44H247.049V479H248.553V472.44H250.409V471.176H248.553V469.928C248.553 469.08 248.809 468.584 249.785 468.584H250.457V467.288C250.153 467.24 249.817 467.224 249.529 467.224C248.105 467.224 247.049 468.008 247.049 469.928V471.176H245.897ZM254.948 479.192C256.884 479.192 258.196 478.248 258.58 476.568H257.172C256.916 477.464 256.148 477.944 254.98 477.944C253.492 477.944 252.628 477.032 252.516 475.384L258.564 475.368V474.808C258.564 472.488 257.108 470.952 254.884 470.952C252.612 470.952 251.06 472.648 251.06 475.096C251.06 477.528 252.644 479.192 254.948 479.192ZM254.884 472.216C256.212 472.216 257.06 473.08 257.06 474.376H252.548C252.74 473 253.572 472.216 254.884 472.216ZM259.732 475.096C259.732 477.56 261.252 479.192 263.556 479.192C265.444 479.192 266.9 478.056 267.204 476.36H265.7C265.428 477.288 264.628 477.848 263.556 477.848C262.132 477.848 261.22 476.76 261.22 475.08C261.22 473.384 262.196 472.296 263.62 472.296C264.628 472.296 265.428 472.824 265.684 473.816H267.188C266.916 472.072 265.54 470.952 263.572 470.952C261.284 470.952 259.732 472.648 259.732 475.096ZM270.999 479V472.44H272.535V471.176H270.999V468.728H269.495V471.176H267.959V472.44H269.495V479H270.999ZM277.748 475.08C277.748 477.496 279.476 479.192 281.828 479.192C284.164 479.192 285.892 477.496 285.892 475.08C285.892 472.664 284.164 470.968 281.828 470.968C279.476 470.968 277.748 472.664 277.748 475.08ZM279.268 475.08C279.268 473.448 280.308 472.312 281.828 472.312C283.332 472.312 284.388 473.448 284.388 475.08C284.388 476.712 283.332 477.848 281.828 477.848C280.308 477.848 279.268 476.712 279.268 475.08ZM287.557 482.504H289.061V477.72C289.573 478.68 290.613 479.208 291.861 479.208C294.181 479.208 295.493 477.416 295.493 475.032C295.493 472.632 294.101 470.952 291.861 470.952C290.613 470.952 289.557 471.512 289.029 472.584L288.917 471.176H287.557V482.504ZM289.077 475.096C289.077 473.464 290.005 472.328 291.541 472.328C293.077 472.328 293.989 473.48 293.989 475.096C293.989 476.696 293.077 477.848 291.541 477.848C290.005 477.848 289.077 476.696 289.077 475.096ZM299.28 479V472.44H300.816V471.176H299.28V468.728H297.776V471.176H296.24V472.44H297.776V479H299.28ZM302.902 469.32C303.446 469.32 303.894 468.872 303.894 468.328C303.894 467.768 303.446 467.336 302.902 467.336C302.358 467.336 301.91 467.768 301.91 468.328C301.91 468.872 302.358 469.32 302.902 469.32ZM302.166 479H303.67V471.176H302.166V479ZM305.342 475.08C305.342 477.496 307.07 479.192 309.422 479.192C311.758 479.192 313.486 477.496 313.486 475.08C313.486 472.664 311.758 470.968 309.422 470.968C307.07 470.968 305.342 472.664 305.342 475.08ZM306.862 475.08C306.862 473.448 307.902 472.312 309.422 472.312C310.926 472.312 311.982 473.448 311.982 475.08C311.982 476.712 310.926 477.848 309.422 477.848C307.902 477.848 306.862 476.712 306.862 475.08ZM316.655 479V474.856C316.655 473.336 317.471 472.328 318.879 472.328C320.031 472.328 320.767 472.968 320.767 474.552V479H322.271V474.216C322.271 472.216 321.327 470.952 319.263 470.952C318.159 470.952 317.167 471.48 316.671 472.376L316.511 471.176H315.151V479H316.655ZM327.897 471.176V472.44H329.049V479H330.553V472.44H332.409V471.176H330.553V469.928C330.553 469.08 330.809 468.584 331.785 468.584H332.457V467.288C332.153 467.24 331.817 467.224 331.529 467.224C330.105 467.224 329.049 468.008 329.049 469.928V471.176H327.897ZM333.06 475.08C333.06 477.496 334.788 479.192 337.14 479.192C339.476 479.192 341.204 477.496 341.204 475.08C341.204 472.664 339.476 470.968 337.14 470.968C334.788 470.968 333.06 472.664 333.06 475.08ZM334.58 475.08C334.58 473.448 335.62 472.312 337.14 472.312C338.644 472.312 339.7 473.448 339.7 475.08C339.7 476.712 338.644 477.848 337.14 477.848C335.62 477.848 334.58 476.712 334.58 475.08ZM347.349 471.112C347.045 471.048 346.821 471.016 346.549 471.016C345.477 471.016 344.693 471.56 344.373 472.376L344.277 471.192H342.869V479H344.373V474.856C344.373 473.352 345.253 472.488 346.677 472.488H347.349V471.112ZM352.383 482.504C352.783 482.6 353.199 482.664 353.695 482.664C354.895 482.664 355.679 482.104 356.207 480.76L359.903 471.176H358.351L356.031 477.48L353.759 471.176H352.175L355.327 479.416L355.055 480.168C354.687 481.16 354.111 481.272 353.391 481.272H352.383V482.504ZM360.295 475.08C360.295 477.496 362.023 479.192 364.375 479.192C366.711 479.192 368.439 477.496 368.439 475.08C368.439 472.664 366.711 470.968 364.375 470.968C362.023 470.968 360.295 472.664 360.295 475.08ZM361.815 475.08C361.815 473.448 362.855 472.312 364.375 472.312C365.879 472.312 366.935 473.448 366.935 475.08C366.935 476.712 365.879 477.848 364.375 477.848C362.855 477.848 361.815 476.712 361.815 475.08ZM375.324 471.176V475.304C375.324 476.984 374.572 477.864 373.196 477.864C372.044 477.864 371.324 477.224 371.324 475.544V471.176H369.82V476.04C369.82 477.96 370.844 479.192 372.668 479.192C373.82 479.192 374.86 478.632 375.308 477.816L375.468 479H376.812V471.176H375.324Z" fill="#565F73"/>
<path d="M488 100.5C488 108.508 481.508 115 473.5 115C465.492 115 459 108.508 459 100.5C459 92.4919 465.492 86 473.5 86C481.508 86 488 92.4919 488 100.5ZM461.9 100.5C461.9 106.907 467.093 112.1 473.5 112.1C479.907 112.1 485.1 106.907 485.1 100.5C485.1 94.0935 479.907 88.9 473.5 88.9C467.093 88.9 461.9 94.0935 461.9 100.5Z" fill="#C5CDD6"/>
<path d="M488 220.5C488 228.508 481.508 235 473.5 235C465.492 235 459 228.508 459 220.5C459 212.492 465.492 206 473.5 206C481.508 206 488 212.492 488 220.5ZM461.9 220.5C461.9 226.907 467.093 232.1 473.5 232.1C479.907 232.1 485.1 226.907 485.1 220.5C485.1 214.093 479.907 208.9 473.5 208.9C467.093 208.9 461.9 214.093 461.9 220.5Z" fill="#C5CDD6"/>
<path d="M488 340.5C488 348.508 481.508 355 473.5 355C465.492 355 459 348.508 459 340.5C459 332.492 465.492 326 473.5 326C481.508 326 488 332.492 488 340.5ZM461.9 340.5C461.9 346.907 467.093 352.1 473.5 352.1C479.907 352.1 485.1 346.907 485.1 340.5C485.1 334.093 479.907 328.9 473.5 328.9C467.093 328.9 461.9 334.093 461.9 340.5Z" fill="#416BF5"/>
<path d="M488 460.5C488 468.508 481.508 475 473.5 475C465.492 475 459 468.508 459 460.5C459 452.492 465.492 446 473.5 446C481.508 446 488 452.492 488 460.5ZM461.9 460.5C461.9 466.907 467.093 472.1 473.5 472.1C479.907 472.1 485.1 466.907 485.1 460.5C485.1 454.093 479.907 448.9 473.5 448.9C467.093 448.9 461.9 454.093 461.9 460.5Z" fill="#C5CDD6"/>
<circle cx="474" cy="340" r="15" fill="#416BF5"/>
<g clip-path="url(#clip4_56_1498)">
<path d="M480.449 335.269L471.813 343.906C471.754 343.964 471.685 344.01 471.609 344.042C471.533 344.073 471.452 344.09 471.37 344.09C471.287 344.09 471.206 344.073 471.13 344.042C471.054 344.01 470.985 343.964 470.927 343.906L467.587 340.563C467.529 340.504 467.46 340.458 467.384 340.426C467.308 340.395 467.226 340.379 467.144 340.379C467.062 340.379 466.98 340.395 466.904 340.426C466.828 340.458 466.759 340.504 466.701 340.563C466.643 340.621 466.597 340.69 466.565 340.766C466.534 340.842 466.517 340.923 466.517 341.005C466.517 341.088 466.534 341.169 466.565 341.245C466.597 341.321 466.643 341.39 466.701 341.448L470.043 344.789C470.395 345.141 470.873 345.338 471.371 345.338C471.869 345.338 472.346 345.141 472.699 344.789L481.335 336.154C481.393 336.096 481.439 336.027 481.471 335.951C481.502 335.875 481.519 335.794 481.519 335.712C481.519 335.63 481.502 335.548 481.471 335.472C481.439 335.396 481.393 335.327 481.335 335.269C481.277 335.211 481.208 335.165 481.132 335.133C481.056 335.102 480.974 335.085 480.892 335.085C480.81 335.085 480.728 335.102 480.652 335.133C480.576 335.165 480.507 335.211 480.449 335.269Z" fill="#F5F7FB"/>
</g>
<defs>
<filter id="filter0_d_56_1498" x="18" y="28" width="540" height="160" filterUnits="userSpaceOnUse" color-interpolation-filters="sRGB">
<feFlood flood-opacity="0" result="BackgroundImageFix"/>
<feColorMatrix in="SourceAlpha" type="matrix" values="0 0 0 0 0 0 0 0 0 0 0 0 0 0 0 0 0 0 127 0" result="hardAlpha"/>
<feOffset dx="8" dy="8"/>
<feGaussianBlur stdDeviation="15"/>
<feComposite in2="hardAlpha" operator="out"/>
<feColorMatrix type="matrix" values="0 0 0 0 0.2375 0 0 0 0 0.2375 0 0 0 0 0.2375 0 0 0 0.04 0"/>
<feBlend mode="normal" in2="BackgroundImageFix" result="effect1_dropShadow_56_1498"/>
<feBlend mode="normal" in="SourceGraphic" in2="effect1_dropShadow_56_1498" result="shape"/>
</filter>
<filter id="filter1_d_56_1498" x="18" y="148" width="540" height="160" filterUnits="userSpaceOnUse" color-interpolation-filters="sRGB">
<feFlood flood-opacity="0" result="BackgroundImageFix"/>
<feColorMatrix in="SourceAlpha" type="matrix" values="0 0 0 0 0 0 0 0 0 0 0 0 0 0 0 0 0 0 127 0" result="hardAlpha"/>
<feOffset dx="8" dy="8"/>
<feGaussianBlur stdDeviation="15"/>
<feComposite in2="hardAlpha" operator="out"/>
<feColorMatrix type="matrix" values="0 0 0 0 0.2375 0 0 0 0 0.2375 0 0 0 0 0.2375 0 0 0 0.04 0"/>
<feBlend mode="normal" in2="BackgroundImageFix" result="effect1_dropShadow_56_1498"/>
<feBlend mode="normal" in="SourceGraphic" in2="effect1_dropShadow_56_1498" result="shape"/>
</filter>
<filter id="filter2_d_56_1498" x="18" y="268" width="540" height="160" filterUnits="userSpaceOnUse" color-interpolation-filters="sRGB">
<feFlood flood-opacity="0" result="BackgroundImageFix"/>
<feColorMatrix in="SourceAlpha" type="matrix" values="0 0 0 0 0 0 0 0 0 0 0 0 0 0 0 0 0 0 127 0" result="hardAlpha"/>
<feOffset dx="8" dy="8"/>
<feGaussianBlur stdDeviation="15"/>
<feComposite in2="hardAlpha" operator="out"/>
<feColorMatrix type="matrix" values="0 0 0 0 0.2375 0 0 0 0 0.2375 0 0 0 0 0.2375 0 0 0 0.04 0"/>
<feBlend mode="normal" in2="BackgroundImageFix" result="effect1_dropShadow_56_1498"/>
<feBlend mode="normal" in="SourceGraphic" in2="effect1_dropShadow_56_1498" result="shape"/>
</filter>
<filter id="filter3_d_56_1498" x="18" y="388" width="540" height="160" filterUnits="userSpaceOnUse" color-interpolation-filters="sRGB">
<feFlood flood-opacity="0" result="BackgroundImageFix"/>
<feColorMatrix in="SourceAlpha" type="matrix" values="0 0 0 0 0 0 0 0 0 0 0 0 0 0 0 0 0 0 127 0" result="hardAlpha"/>
<feOffset dx="8" dy="8"/>
<feGaussianBlur stdDeviation="15"/>
<feComposite in2="hardAlpha" operator="out"/>
<feColorMatrix type="matrix" values="0 0 0 0 0.2375 0 0 0 0 0.2375 0 0 0 0 0.2375 0 0 0 0.04 0"/>
<feBlend mode="normal" in2="BackgroundImageFix" result="effect1_dropShadow_56_1498"/>
<feBlend mode="normal" in="SourceGraphic" in2="effect1_dropShadow_56_1498" result="shape"/>
</filter>
<clipPath id="clip0_56_1498">
<rect width="48" height="48" fill="white" transform="translate(66 196)"/>
</clipPath>
<clipPath id="clip1_56_1498">
<rect width="48" height="48" fill="white" transform="translate(66 316)"/>
</clipPath>
<clipPath id="clip2_56_1498">
<rect width="48" height="48" fill="white" transform="translate(66 436)"/>
</clipPath>
<clipPath id="clip3_56_1498">
<rect width="48" height="48" fill="white" transform="translate(66 76)"/>
</clipPath>
<clipPath id="clip4_56_1498">
<rect width="15" height="15" fill="white" transform="translate(466.5 332.5)"/>
</clipPath>
</defs>
</svg>
