<svg width="560" height="560" viewBox="0 0 560 560" fill="none" xmlns="http://www.w3.org/2000/svg">
<rect width="560" height="560" rx="18" fill="#F5F7FB"/>
<rect x="48" y="247" width="464.443" height="51.5094" rx="15.4528" fill="white"/>
<rect x="48" y="320.83" width="464.443" height="51.5094" rx="15.4528" fill="white"/>
<rect x="48" y="394.66" width="464.443" height="51.5094" rx="15.4528" fill="white"/>
<rect x="48" y="468.49" width="464.443" height="51.5094" rx="15.4528" fill="white"/>
<rect x="63.4529" y="262.453" width="20.6038" height="20.6038" fill="#416BF5"/>
<path d="M75.9236 275.466L84.0567 262.453V283.057H63.4529L75.9236 275.466Z" fill="#00CA00"/>
<rect x="63.4529" y="336.283" width="20.6038" height="20.6038" fill="#416BF5"/>
<path d="M75.9236 349.296L84.0567 336.283V356.887H63.4529L75.9236 349.296Z" fill="#00CA00"/>
<rect x="63.4529" y="410.113" width="20.6038" height="20.6038" fill="#416BF5"/>
<path d="M75.9236 423.126L84.0567 410.113V430.717H63.4529L75.9236 423.126Z" fill="#00CA00"/>
<rect x="63.4529" y="483.943" width="20.6038" height="20.6038" fill="#416BF5"/>
<path d="M75.9236 496.956L84.0567 483.943V504.547H63.4529L75.9236 496.956Z" fill="#00CA00"/>
<path d="M98.4689 278.654C99.6278 278.654 100.617 278.144 101.08 277.263L101.204 278.453H102.935V266.956H101.065V271.793C100.586 271.036 99.6433 270.588 98.577 270.588C96.2745 270.588 94.8838 272.287 94.8838 274.667C94.8838 277.031 96.2591 278.654 98.4689 278.654ZM98.8861 276.923C97.5726 276.923 96.769 275.965 96.769 274.605C96.769 273.246 97.5726 272.272 98.8861 272.272C100.2 272.272 101.049 273.23 101.049 274.605C101.049 275.981 100.2 276.923 98.8861 276.923ZM106.228 278.453L107.835 275.934L109.458 278.453H111.621L109.103 274.683L111.699 270.819H109.582L107.959 273.416L106.275 270.819H104.08L106.707 274.714L104.08 278.453H106.228ZM114.151 278.453L115.758 275.934L117.381 278.453H119.544L117.025 274.683L119.621 270.819H117.504L115.882 273.416L114.197 270.819H112.003L114.63 274.714L112.003 278.453H114.151ZM122.074 278.453L123.681 275.934L125.303 278.453H127.467L124.948 274.683L127.544 270.819H125.427L123.804 273.416L122.12 270.819H119.926L122.553 274.714L119.926 278.453H122.074ZM128.621 280.107H135.188V278.716H128.621V280.107ZM143.423 275.131C144.691 273.416 145.139 272.427 145.139 271.067C145.139 268.749 143.315 266.956 140.874 266.956C138.463 266.956 136.671 268.641 136.671 271.051C136.671 273.338 138.247 274.976 140.58 274.976C140.858 274.976 141.152 274.93 141.43 274.853L138.726 278.453H140.982L143.423 275.131ZM143.114 271.051C143.114 272.411 142.218 273.354 140.874 273.354C139.576 273.354 138.664 272.411 138.664 271.051C138.664 269.676 139.576 268.718 140.874 268.718C142.203 268.718 143.114 269.676 143.114 271.051ZM146.361 272.828C146.361 276.321 148.138 278.654 151.136 278.654C154.134 278.654 155.927 276.321 155.927 272.828C155.927 269.321 154.026 266.941 151.136 266.941C148.247 266.941 146.361 269.321 146.361 272.828ZM148.308 272.828C148.308 270.155 149.359 268.687 151.136 268.687C152.929 268.687 153.98 270.155 153.98 272.828C153.98 275.44 152.929 276.908 151.136 276.908C149.359 276.908 148.308 275.44 148.308 272.828ZM158.895 278.453L160.502 275.934L162.124 278.453H164.288L161.769 274.683L164.365 270.819H162.248L160.625 273.416L158.941 270.819H156.747L159.374 274.714L156.747 278.453H158.895ZM166.817 278.453L168.424 275.934L170.047 278.453H172.21L169.692 274.683L172.288 270.819H170.171L168.548 273.416L166.864 270.819H164.669L167.296 274.714L164.669 278.453H166.817ZM173.365 280.107H179.932V278.716H173.365V280.107ZM181.523 272.828C181.523 276.321 183.3 278.654 186.297 278.654C189.295 278.654 191.088 276.321 191.088 272.828C191.088 269.321 189.187 266.941 186.297 266.941C183.408 266.941 181.523 269.321 181.523 272.828ZM183.47 272.828C183.47 270.155 184.52 268.687 186.297 268.687C188.09 268.687 189.141 270.155 189.141 272.828C189.141 275.44 188.09 276.908 186.297 276.908C184.52 276.908 183.47 275.44 183.47 272.828ZM194.056 278.453L195.663 275.934L197.286 278.453H199.449L196.93 274.683L199.526 270.819H197.409L195.787 273.416L194.102 270.819H191.908L194.535 274.714L191.908 278.453H194.056ZM201.979 278.453L203.586 275.934L205.208 278.453H207.372L204.853 274.683L207.449 270.819H205.332L203.709 273.416L202.025 270.819H199.831L202.458 274.714L199.831 278.453H201.979ZM209.901 278.453L211.508 275.934L213.131 278.453H215.294L212.775 274.683L215.371 270.819H213.254L211.632 273.416L209.948 270.819H207.753L210.38 274.714L207.753 278.453H209.901ZM216.448 280.107H223.016V278.716H216.448V280.107ZM226.244 278.453L227.851 275.934L229.474 278.453H231.637L229.119 274.683L231.715 270.819H229.598L227.975 273.416L226.291 270.819H224.096L226.723 274.714L224.096 278.453H226.244ZM234.167 278.453L235.774 275.934L237.397 278.453H239.56L237.041 274.683L239.637 270.819H237.52L235.898 273.416L234.213 270.819H232.019L234.646 274.714L232.019 278.453H234.167ZM240.714 280.107H247.282V278.716H240.714V280.107ZM256.753 278.438V276.599H252.055L254.095 274.853C255.81 273.385 256.676 272.195 256.676 270.619C256.676 268.332 255.177 266.956 252.766 266.956C250.371 266.956 248.795 268.563 248.779 271.036H250.742C250.757 269.583 251.53 268.718 252.766 268.718C253.956 268.718 254.651 269.444 254.651 270.727C254.651 271.808 254.142 272.55 252.612 273.848L248.918 276.97V278.453L256.753 278.438ZM261.415 272.859C262.991 272.859 263.733 273.694 263.733 274.837C263.733 276.089 262.914 276.892 261.678 276.892C260.473 276.892 259.669 276.151 259.669 274.853H257.722C257.722 277.294 259.437 278.654 261.647 278.654C263.934 278.654 265.742 277.186 265.742 274.868C265.742 272.875 264.398 271.608 262.667 271.268L265.417 268.733V267.157H258.247V268.903H262.945L260.04 271.577V272.859H261.415ZM269.058 268.934V278.453H270.958V267.157H266.585V268.934H269.058Z" fill="#565F73"/>
<path d="M96.6609 352.283L98.268 349.764L99.8905 352.283H102.054L99.5351 348.513L102.131 344.65H100.014L98.3916 347.246L96.7072 344.65H94.5129L97.1399 348.544L94.5129 352.283H96.6609ZM104.583 352.283L106.191 349.764L107.813 352.283H109.977L107.458 348.513L110.054 344.65H107.937L106.314 347.246L104.63 344.65H102.436L105.063 348.544L102.436 352.283H104.583ZM112.506 352.283L114.113 349.764L115.736 352.283H117.899L115.38 348.513L117.976 344.65H115.859L114.237 347.246L112.552 344.65H110.358L112.985 348.544L110.358 352.283H112.506ZM119.053 353.937H125.621V352.546H119.053V353.937ZM135.092 352.268V350.429H130.395L132.434 348.683C134.15 347.215 135.015 346.025 135.015 344.449C135.015 342.162 133.516 340.786 131.105 340.786C128.71 340.786 127.134 342.393 127.119 344.866H129.081C129.096 343.413 129.869 342.548 131.105 342.548C132.295 342.548 132.991 343.274 132.991 344.557C132.991 345.638 132.481 346.38 130.951 347.678L127.258 350.8V352.283L135.092 352.268ZM139.754 346.689C141.331 346.689 142.072 347.524 142.072 348.667C142.072 349.919 141.253 350.722 140.017 350.722C138.812 350.722 138.008 349.981 138.008 348.683H136.061C136.061 351.124 137.776 352.484 139.986 352.484C142.273 352.484 144.081 351.016 144.081 348.698C144.081 346.705 142.737 345.438 141.006 345.098L143.757 342.563V340.987H136.587V342.733H141.284L138.379 345.407V346.689H139.754ZM146.852 352.283L148.459 349.764L150.082 352.283H152.245L149.727 348.513L152.323 344.65H150.206L148.583 347.246L146.899 344.65H144.704L147.331 348.544L144.704 352.283H146.852ZM154.775 352.283L156.382 349.764L158.005 352.283H160.168L157.649 348.513L160.245 344.65H158.128L156.506 347.246L154.821 344.65H152.627L155.254 348.544L152.627 352.283H154.775ZM161.322 353.937H167.89V352.546H161.322V353.937ZM169.48 346.658C169.48 350.151 171.257 352.484 174.255 352.484C177.253 352.484 179.045 350.151 179.045 346.658C179.045 343.151 177.145 340.771 174.255 340.771C171.365 340.771 169.48 343.151 169.48 346.658ZM171.427 346.658C171.427 343.985 172.478 342.517 174.255 342.517C176.048 342.517 177.098 343.985 177.098 346.658C177.098 349.27 176.048 350.738 174.255 350.738C172.478 350.738 171.427 349.27 171.427 346.658ZM182.014 352.283L183.621 349.764L185.243 352.283H187.407L184.888 348.513L187.484 344.65H185.367L183.744 347.246L182.06 344.65H179.866L182.493 348.544L179.866 352.283H182.014ZM189.936 352.283L191.543 349.764L193.166 352.283H195.329L192.81 348.513L195.407 344.65H193.289L191.667 347.246L189.983 344.65H187.788L190.415 348.544L187.788 352.283H189.936ZM197.859 352.283L199.466 349.764L201.088 352.283H203.252L200.733 348.513L203.329 344.65H201.212L199.59 347.246L197.905 344.65H195.711L198.338 348.544L195.711 352.283H197.859ZM204.406 353.937H210.974V352.546H204.406V353.937ZM214.202 352.283L215.809 349.764L217.432 352.283H219.595L217.076 348.513L219.672 344.65H217.555L215.933 347.246L214.248 344.65H212.054L214.681 348.544L212.054 352.283H214.202ZM222.125 352.283L223.732 349.764L225.354 352.283H227.518L224.999 348.513L227.595 344.65H225.478L223.855 347.246L222.171 344.65H219.977L222.604 348.544L219.977 352.283H222.125ZM228.672 353.937H235.239V352.546H228.672V353.937ZM239.163 342.764V352.283H241.064V340.987H236.691V342.764H239.163ZM242.566 340.987V342.811H248.701L244.529 352.283H246.584L250.679 342.811V340.987H242.566ZM251.271 349.084C251.271 351.14 252.956 352.469 255.567 352.469C258.194 352.469 259.878 351.124 259.878 349.084C259.878 347.725 259.106 346.627 257.916 346.21C258.92 345.793 259.477 344.943 259.477 343.846C259.477 342.007 257.916 340.786 255.598 340.786C253.265 340.786 251.673 342.023 251.673 343.815C251.673 344.912 252.214 345.762 253.203 346.21C252.028 346.658 251.271 347.74 251.271 349.084ZM253.465 343.985C253.465 343.058 254.284 342.471 255.567 342.471C256.834 342.471 257.638 343.058 257.638 344C257.638 344.943 256.834 345.53 255.567 345.53C254.284 345.53 253.465 344.928 253.465 343.985ZM253.203 348.945C253.203 347.848 254.114 347.168 255.567 347.168C257.02 347.168 257.931 347.848 257.931 348.945C257.931 350.043 257.02 350.722 255.582 350.722C254.114 350.722 253.203 350.043 253.203 348.945Z" fill="#565F73"/>
<path d="M96.6609 426.113L98.268 423.594L99.8905 426.113H102.054L99.5351 422.343L102.131 418.48H100.014L98.3916 421.076L96.7072 418.48H94.5129L97.1399 422.374L94.5129 426.113H96.6609ZM104.583 426.113L106.191 423.594L107.813 426.113H109.977L107.458 422.343L110.054 418.48H107.937L106.314 421.076L104.63 418.48H102.436L105.063 422.374L102.436 426.113H104.583ZM110.483 422.822H115.458V421.153H110.483V422.822ZM123.955 426.098V424.259H119.258L121.297 422.513C123.013 421.045 123.878 419.855 123.878 418.279C123.878 415.992 122.379 414.616 119.968 414.616C117.573 414.616 115.997 416.223 115.982 418.696H117.944C117.96 417.243 118.732 416.378 119.968 416.378C121.158 416.378 121.854 417.104 121.854 418.387C121.854 419.469 121.344 420.21 119.814 421.508L116.121 424.63V426.113L123.955 426.098ZM131.819 422.791C133.086 421.076 133.534 420.087 133.534 418.727C133.534 416.409 131.711 414.616 129.269 414.616C126.858 414.616 125.066 416.301 125.066 418.711C125.066 420.998 126.642 422.636 128.975 422.636C129.254 422.636 129.547 422.59 129.825 422.513L127.121 426.113H129.377L131.819 422.791ZM131.51 418.711C131.51 420.071 130.613 421.014 129.269 421.014C127.971 421.014 127.059 420.071 127.059 418.711C127.059 417.336 127.971 416.378 129.269 416.378C130.598 416.378 131.51 417.336 131.51 418.711ZM135.019 427.767H141.587V426.376H135.019V427.767ZM148.663 418.48V422.482C148.663 423.934 148.091 424.63 146.901 424.63C145.85 424.63 145.279 424.043 145.279 422.59V418.48H143.393V423.255C143.393 425.124 144.429 426.314 146.19 426.314C147.21 426.314 148.199 425.82 148.663 425.093L148.802 426.113H150.548V418.48H148.663ZM153.824 426.113L155.431 423.594L157.054 426.113H159.217L156.698 422.343L159.295 418.48H157.178L155.555 421.076L153.871 418.48H151.676L154.303 422.374L151.676 426.113H153.824ZM161.747 426.113L163.354 423.594L164.977 426.113H167.14L164.621 422.343L167.217 418.48H165.1L163.478 421.076L161.793 418.48H159.599L162.226 422.374L159.599 426.113H161.747ZM168.016 422.915C168.016 424.97 169.7 426.299 172.312 426.299C174.939 426.299 176.623 424.954 176.623 422.915C176.623 421.555 175.851 420.458 174.661 420.04C175.665 419.623 176.221 418.773 176.221 417.676C176.221 415.837 174.661 414.616 172.343 414.616C170.009 414.616 168.418 415.853 168.418 417.645C168.418 418.742 168.959 419.592 169.948 420.04C168.773 420.488 168.016 421.57 168.016 422.915ZM170.21 417.815C170.21 416.888 171.029 416.301 172.312 416.301C173.579 416.301 174.383 416.888 174.383 417.831C174.383 418.773 173.579 419.36 172.312 419.36C171.029 419.36 170.21 418.758 170.21 417.815ZM169.948 422.775C169.948 421.678 170.859 420.998 172.312 420.998C173.764 420.998 174.676 421.678 174.676 422.775C174.676 423.873 173.764 424.553 172.327 424.553C170.859 424.553 169.948 423.873 169.948 422.775ZM179.978 416.594V426.113H181.878V414.817H177.505V416.594H179.978ZM184.064 427.767H190.631V426.376H184.064V427.767ZM194.555 416.594V426.113H196.456V414.817H192.083V416.594H194.555ZM206.26 426.098V424.259H201.562L203.602 422.513C205.317 421.045 206.182 419.855 206.182 418.279C206.182 415.992 204.684 414.616 202.273 414.616C199.878 414.616 198.302 416.223 198.286 418.696H200.249C200.264 417.243 201.037 416.378 202.273 416.378C203.463 416.378 204.158 417.104 204.158 418.387C204.158 419.469 203.648 420.21 202.118 421.508L198.425 424.63V426.113L206.26 426.098ZM211.237 426.299C213.756 426.299 215.471 424.63 215.471 422.188C215.471 419.963 213.972 418.433 211.716 418.433C210.943 418.433 210.263 418.634 209.722 418.99L210.325 416.641H214.791V414.817H208.903L207.513 420.736L209.259 421.107C209.661 420.519 210.449 420.087 211.314 420.087C212.674 420.087 213.462 420.983 213.462 422.296C213.462 423.672 212.612 424.537 211.283 424.537C210.031 424.537 209.274 423.78 209.274 422.497H207.312C207.312 424.784 208.872 426.299 211.237 426.299ZM218.246 426.113L219.853 423.594L221.476 426.113H223.639L221.121 422.343L223.717 418.48H221.6L219.977 421.076L218.293 418.48H216.098L218.725 422.374L216.098 426.113H218.246ZM226.169 426.113L227.776 423.594L229.399 426.113H231.562L229.043 422.343L231.639 418.48H229.522L227.9 421.076L226.215 418.48H224.021L226.648 422.374L224.021 426.113H226.169ZM234.091 426.113L235.699 423.594L237.321 426.113H239.484L236.966 422.343L239.562 418.48H237.445L235.822 421.076L234.138 418.48H231.944L234.57 422.374L231.944 426.113H234.091ZM240.639 427.767H247.206V426.376H240.639V427.767ZM250.435 426.113L252.042 423.594L253.664 426.113H255.828L253.309 422.343L255.905 418.48H253.788L252.165 421.076L250.481 418.48H248.287L250.914 422.374L248.287 426.113H250.435ZM258.357 426.113L259.964 423.594L261.587 426.113H263.75L261.231 422.343L263.828 418.48H261.711L260.088 421.076L258.404 418.48H256.209L258.836 422.374L256.209 426.113H258.357Z" fill="#565F73"/>
<path d="M98.4534 494.303L94.6211 499.943H96.939L99.6896 495.817C100.138 496.636 100.54 497.316 101.034 498.074L102.301 499.943H104.635L100.926 494.288L104.619 488.647H102.317L99.6896 492.789C99.2724 492.016 98.8861 491.367 98.4225 490.672L97.0472 488.647H94.6984L98.4534 494.303ZM107.179 499.943L108.786 497.425L110.409 499.943H112.572L110.053 496.173L112.649 492.31H110.532L108.91 494.906L107.225 492.31H105.031L107.658 496.204L105.031 499.943H107.179ZM115.102 499.943L116.709 497.425L118.331 499.943H120.495L117.976 496.173L120.572 492.31H118.455L116.832 494.906L115.148 492.31H112.954L115.581 496.204L112.954 499.943H115.102ZM121.649 501.597H128.216V500.206H121.649V501.597ZM131.414 491.97C130.147 493.685 129.699 494.674 129.699 496.034C129.699 498.352 131.522 500.144 133.964 500.144C136.374 500.144 138.167 498.46 138.167 496.049C138.167 493.762 136.591 492.124 134.257 492.124C133.979 492.124 133.685 492.171 133.407 492.248L136.112 488.647H133.855L131.414 491.97ZM131.723 496.049C131.723 494.689 132.619 493.747 133.964 493.747C135.262 493.747 136.173 494.689 136.173 496.049C136.173 497.425 135.246 498.383 133.964 498.383C132.635 498.383 131.723 497.425 131.723 496.049ZM140.998 490.424V499.943H142.899V488.647H138.526V490.424H140.998ZM148.253 494.303L144.42 499.943H146.738L149.489 495.817C149.937 496.636 150.339 497.316 150.833 498.074L152.1 499.943H154.434L150.725 494.288L154.418 488.647H152.116L149.489 492.789C149.072 492.016 148.685 491.367 148.222 490.672L146.846 488.647H144.498L148.253 494.303ZM158.771 494.303L154.938 499.943H157.256L160.007 495.817C160.455 496.636 160.857 497.316 161.351 498.074L162.619 499.943H164.952L161.243 494.288L164.936 488.647H162.634L160.007 492.789C159.59 492.016 159.203 491.367 158.74 490.672L157.365 488.647H155.016L158.771 494.303ZM165.503 496.652H170.479V494.983H165.503V496.652ZM171.97 496.745C171.97 498.8 173.654 500.129 176.266 500.129C178.893 500.129 180.577 498.784 180.577 496.745C180.577 495.385 179.804 494.288 178.614 493.87C179.619 493.453 180.175 492.603 180.175 491.506C180.175 489.667 178.614 488.446 176.297 488.446C173.963 488.446 172.372 489.683 172.372 491.475C172.372 492.572 172.912 493.422 173.901 493.87C172.727 494.319 171.97 495.4 171.97 496.745ZM174.164 491.645C174.164 490.718 174.983 490.131 176.266 490.131C177.533 490.131 178.336 490.718 178.336 491.661C178.336 492.603 177.533 493.19 176.266 493.19C174.983 493.19 174.164 492.588 174.164 491.645ZM173.901 496.606C173.901 495.508 174.813 494.828 176.266 494.828C177.718 494.828 178.63 495.508 178.63 496.606C178.63 497.703 177.718 498.383 176.281 498.383C174.813 498.383 173.901 497.703 173.901 496.606ZM183.931 490.424V499.943H185.832V488.647H181.459V490.424H183.931ZM187.4 503.482C187.817 503.59 188.28 503.652 188.806 503.652C190.057 503.652 190.861 503.065 191.433 501.643L195.172 492.31H193.225L191.155 497.873L189.192 492.31H187.199L190.274 500.268L190.057 500.84C189.733 501.736 189.269 501.906 188.528 501.906H187.4V503.482Z" fill="#565F73"/>
<path d="M343.458 279.616H344.516V278.449C346.356 278.243 347.538 277.089 347.538 275.413C347.538 273.957 346.741 273.106 344.983 272.721L344.516 272.611V269.658C345.23 269.809 345.642 270.29 345.67 271.032H347.373C347.318 269.383 346.246 268.298 344.516 268.12V266.952H343.458V268.12C341.631 268.312 340.422 269.466 340.422 271.073C340.422 272.584 341.288 273.545 343.018 273.916L343.458 274.012V276.938C342.565 276.828 342.057 276.334 342.043 275.551H340.285C340.326 277.226 341.549 278.339 343.458 278.476V279.616ZM343.403 272.364C342.524 272.172 342.139 271.746 342.139 271.018C342.139 270.276 342.634 269.782 343.458 269.644V272.378L343.403 272.364ZM344.612 274.259C345.436 274.438 345.834 274.864 345.834 275.564C345.834 276.265 345.34 276.746 344.516 276.91V274.232L344.612 274.259ZM355.611 278.298V276.663H351.436L353.249 275.111C354.774 273.806 355.543 272.749 355.543 271.347C355.543 269.315 354.21 268.092 352.068 268.092C349.939 268.092 348.538 269.521 348.524 271.718H350.268C350.282 270.427 350.969 269.658 352.068 269.658C353.125 269.658 353.743 270.304 353.743 271.444C353.743 272.405 353.29 273.064 351.93 274.218L348.647 276.993V278.312L355.611 278.298ZM359.756 273.339C361.157 273.339 361.816 274.081 361.816 275.097C361.816 276.21 361.088 276.924 359.989 276.924C358.918 276.924 358.203 276.265 358.203 275.111H356.473C356.473 277.281 357.997 278.49 359.962 278.49C361.995 278.49 363.602 277.185 363.602 275.125C363.602 273.353 362.407 272.227 360.868 271.924L363.313 269.672V268.271H356.94V269.823H361.115L358.533 272.199V273.339H359.756ZM372.437 276.402V274.864H371.215V268.271H369.003L364.457 274.864V276.402H369.553V278.312H371.215V276.402H372.437ZM366.325 274.864L369.553 270.166V274.864H366.325Z" fill="#565F73"/>
<path d="M343.458 353.447H344.516V352.279C346.356 352.073 347.538 350.919 347.538 349.243C347.538 347.787 346.741 346.936 344.983 346.551L344.516 346.441V343.488C345.23 343.639 345.642 344.12 345.67 344.862H347.373C347.318 343.213 346.246 342.128 344.516 341.95V340.782H343.458V341.95C341.631 342.142 340.422 343.296 340.422 344.903C340.422 346.414 341.288 347.375 343.018 347.746L343.458 347.842V350.768C342.565 350.658 342.057 350.164 342.043 349.381H340.285C340.326 351.056 341.549 352.169 343.458 352.306V353.447ZM343.403 346.194C342.524 346.002 342.139 345.576 342.139 344.848C342.139 344.106 342.634 343.612 343.458 343.474V346.208L343.403 346.194ZM344.612 348.09C345.436 348.268 345.834 348.694 345.834 349.394C345.834 350.095 345.34 350.576 344.516 350.741V348.062L344.612 348.09ZM355.611 352.128V350.493H351.436L353.249 348.941C354.774 347.636 355.543 346.579 355.543 345.178C355.543 343.145 354.21 341.922 352.068 341.922C349.939 341.922 348.538 343.351 348.524 345.548H350.268C350.282 344.257 350.969 343.488 352.068 343.488C353.125 343.488 353.743 344.134 353.743 345.274C353.743 346.235 353.29 346.895 351.93 348.048L348.647 350.823V352.142L355.611 352.128ZM359.756 347.169C361.157 347.169 361.816 347.911 361.816 348.927C361.816 350.04 361.088 350.754 359.989 350.754C358.918 350.754 358.203 350.095 358.203 348.941H356.473C356.473 351.111 357.997 352.32 359.962 352.32C361.995 352.32 363.602 351.015 363.602 348.955C363.602 347.183 362.407 346.057 360.868 345.754L363.313 343.502V342.101H356.94V343.653H361.115L358.533 346.029V347.169H359.756ZM372.437 350.232V348.694H371.215V342.101H369.003L364.457 348.694V350.232H369.553V352.142H371.215V350.232H372.437ZM366.325 348.694L369.553 343.996V348.694H366.325Z" fill="#565F73"/>
<path d="M343.458 427.277H344.516V426.109C346.356 425.903 347.538 424.749 347.538 423.073C347.538 421.617 346.741 420.766 344.983 420.381L344.516 420.271V417.318C345.23 417.469 345.642 417.95 345.67 418.692H347.373C347.318 417.043 346.246 415.958 344.516 415.78V414.612H343.458V415.78C341.631 415.972 340.422 417.126 340.422 418.733C340.422 420.244 341.288 421.205 343.018 421.576L343.458 421.672V424.598C342.565 424.488 342.057 423.994 342.043 423.211H340.285C340.326 424.887 341.549 425.999 343.458 426.137V427.277ZM343.403 420.024C342.524 419.832 342.139 419.406 342.139 418.678C342.139 417.936 342.634 417.442 343.458 417.304V420.038L343.403 420.024ZM344.612 421.92C345.436 422.098 345.834 422.524 345.834 423.225C345.834 423.925 345.34 424.406 344.516 424.571V421.892L344.612 421.92ZM355.611 425.958V424.323H351.436L353.249 422.771C354.774 421.466 355.543 420.409 355.543 419.008C355.543 416.975 354.21 415.752 352.068 415.752C349.939 415.752 348.538 417.181 348.524 419.378H350.268C350.282 418.087 350.969 417.318 352.068 417.318C353.125 417.318 353.743 417.964 353.743 419.104C353.743 420.065 353.29 420.725 351.93 421.878L348.647 424.653V425.972L355.611 425.958ZM359.756 420.999C361.157 420.999 361.816 421.741 361.816 422.757C361.816 423.87 361.088 424.584 359.989 424.584C358.918 424.584 358.203 423.925 358.203 422.771H356.473C356.473 424.941 357.997 426.15 359.962 426.15C361.995 426.15 363.602 424.845 363.602 422.785C363.602 421.013 362.407 419.887 360.868 419.585L363.313 417.332V415.931H356.94V417.483H361.115L358.533 419.859V420.999H359.756ZM372.437 424.062V422.524H371.215V415.931H369.003L364.457 422.524V424.062H369.553V425.972H371.215V424.062H372.437ZM366.325 422.524L369.553 417.826V422.524H366.325Z" fill="#565F73"/>
<path d="M343.458 501.107H344.516V499.939C346.356 499.733 347.538 498.579 347.538 496.903C347.538 495.447 346.741 494.596 344.983 494.211L344.516 494.101V491.148C345.23 491.299 345.642 491.78 345.67 492.522H347.373C347.318 490.873 346.246 489.788 344.516 489.61V488.442H343.458V489.61C341.631 489.802 340.422 490.956 340.422 492.563C340.422 494.074 341.288 495.035 343.018 495.406L343.458 495.502V498.428C342.565 498.318 342.057 497.824 342.043 497.041H340.285C340.326 498.717 341.549 499.829 343.458 499.967V501.107ZM343.403 493.854C342.524 493.662 342.139 493.236 342.139 492.508C342.139 491.766 342.634 491.272 343.458 491.134V493.868L343.403 493.854ZM344.612 495.75C345.436 495.928 345.834 496.354 345.834 497.055C345.834 497.755 345.34 498.236 344.516 498.401V495.722L344.612 495.75ZM355.611 499.788V498.153H351.436L353.249 496.601C354.774 495.296 355.543 494.239 355.543 492.838C355.543 490.805 354.21 489.582 352.068 489.582C349.939 489.582 348.538 491.011 348.524 493.209H350.268C350.282 491.917 350.969 491.148 352.068 491.148C353.125 491.148 353.743 491.794 353.743 492.934C353.743 493.895 353.29 494.555 351.93 495.708L348.647 498.483V499.802L355.611 499.788ZM359.756 494.829C361.157 494.829 361.816 495.571 361.816 496.588C361.816 497.7 361.088 498.414 359.989 498.414C358.918 498.414 358.203 497.755 358.203 496.601H356.473C356.473 498.772 357.997 499.98 359.962 499.98C361.995 499.98 363.602 498.675 363.602 496.615C363.602 494.843 362.407 493.717 360.868 493.415L363.313 491.162V489.761H356.94V491.313H361.115L358.533 493.689V494.829H359.756ZM372.437 497.892V496.354H371.215V489.761H369.003L364.457 496.354V497.892H369.553V499.802H371.215V497.892H372.437ZM366.325 496.354L369.553 491.656V496.354H366.325Z" fill="#565F73"/>
<path d="M395.698 266.17C395.698 262.856 398.384 260.17 401.698 260.17H464.698C468.012 260.17 470.698 262.856 470.698 266.17V279.17C470.698 282.484 468.012 285.17 464.698 285.17H401.698C398.384 285.17 395.698 282.484 395.698 279.17V266.17Z" fill="#416BF5" fill-opacity="0.1"/>
<path d="M406.463 273.925C408.343 273.925 409.579 272.65 409.579 270.834C409.579 268.993 408.356 267.757 406.463 267.757H402.741V277.17H404.389V273.925H406.463ZM406.141 269.225C407.235 269.225 407.853 269.791 407.853 270.821C407.853 271.852 407.248 272.457 406.115 272.457H404.389V269.225H406.141ZM414.726 270.783C414.468 270.718 414.249 270.693 414.03 270.693C413.18 270.693 412.575 271.118 412.305 271.749L412.215 270.821H410.734V277.17H412.305V274.079C412.305 272.843 413.013 272.238 414.146 272.238H414.726V270.783ZM415.202 273.976C415.202 275.959 416.631 277.324 418.601 277.324C420.572 277.324 422.001 275.959 422.001 273.976C422.001 271.993 420.572 270.628 418.601 270.628C416.631 270.628 415.202 271.993 415.202 273.976ZM416.773 273.976C416.773 272.817 417.52 272.032 418.601 272.032C419.683 272.032 420.43 272.817 420.43 273.976C420.43 275.135 419.683 275.921 418.601 275.921C417.52 275.921 416.773 275.135 416.773 273.976ZM422.873 273.976C422.873 275.998 424.135 277.337 426.066 277.337C427.728 277.337 428.964 276.32 429.157 274.839H427.573C427.406 275.534 426.852 275.921 426.066 275.921C425.062 275.921 424.444 275.174 424.444 273.976C424.444 272.779 425.114 272.019 426.118 272.019C426.865 272.019 427.393 272.392 427.573 273.114H429.144C428.977 271.581 427.792 270.615 426.054 270.615C424.174 270.615 422.873 272.006 422.873 273.976ZM433.172 277.337C434.833 277.337 435.992 276.5 436.263 275.11H434.808C434.627 275.715 434.061 276.05 433.198 276.05C432.155 276.05 431.563 275.483 431.447 274.363L436.237 274.35V273.873C436.237 271.89 435.027 270.615 433.121 270.615C431.254 270.615 429.953 271.993 429.953 273.989C429.953 275.959 431.279 277.337 433.172 277.337ZM433.134 271.903C434.074 271.903 434.679 272.483 434.679 273.358H431.485C431.64 272.405 432.206 271.903 433.134 271.903ZM437.005 275.238C437.005 276.487 438.01 277.337 439.593 277.337C441.164 277.337 442.259 276.539 442.259 275.251C442.259 274.273 441.718 273.783 440.649 273.539L439.503 273.268C438.962 273.139 438.679 272.908 438.679 272.547C438.679 272.07 439.04 271.787 439.658 271.787C440.263 271.787 440.624 272.135 440.637 272.676H442.13C442.117 271.439 441.152 270.615 439.722 270.615C438.254 270.615 437.198 271.362 437.198 272.611C437.198 273.629 437.752 274.169 438.898 274.427L440.044 274.697C440.611 274.826 440.778 275.058 440.778 275.38C440.778 275.844 440.379 276.14 439.645 276.14C438.924 276.14 438.512 275.792 438.499 275.238H437.005ZM442.966 275.238C442.966 276.487 443.97 277.337 445.554 277.337C447.125 277.337 448.22 276.539 448.22 275.251C448.22 274.273 447.679 273.783 446.61 273.539L445.464 273.268C444.923 273.139 444.64 272.908 444.64 272.547C444.64 272.07 445.001 271.787 445.619 271.787C446.224 271.787 446.584 272.135 446.597 272.676H448.091C448.078 271.439 447.112 270.615 445.683 270.615C444.215 270.615 443.159 271.362 443.159 272.611C443.159 273.629 443.713 274.169 444.859 274.427L446.005 274.697C446.572 274.826 446.739 275.058 446.739 275.38C446.739 275.844 446.34 276.14 445.606 276.14C444.885 276.14 444.473 275.792 444.46 275.238H442.966ZM452.262 277.337C453.923 277.337 455.082 276.5 455.353 275.11H453.897C453.717 275.715 453.15 276.05 452.288 276.05C451.245 276.05 450.652 275.483 450.536 274.363L455.327 274.35V273.873C455.327 271.89 454.116 270.615 452.21 270.615C450.343 270.615 449.043 271.993 449.043 273.989C449.043 275.959 450.369 277.337 452.262 277.337ZM452.223 271.903C453.163 271.903 453.769 272.483 453.769 273.358H450.575C450.73 272.405 451.296 271.903 452.223 271.903ZM459.198 277.337C460.164 277.337 460.988 276.912 461.374 276.178L461.478 277.17H462.92V267.589H461.362V271.62C460.962 270.989 460.177 270.615 459.288 270.615C457.37 270.615 456.211 272.032 456.211 274.015C456.211 275.985 457.357 277.337 459.198 277.337ZM459.546 275.895C458.451 275.895 457.782 275.097 457.782 273.963C457.782 272.83 458.451 272.019 459.546 272.019C460.64 272.019 461.349 272.817 461.349 273.963C461.349 275.11 460.64 275.895 459.546 275.895Z" fill="#416BF5"/>
<path d="M395.698 340C395.698 336.686 398.384 334 401.698 334H464.698C468.012 334 470.698 336.686 470.698 340V353C470.698 356.314 468.012 359 464.698 359H401.698C398.384 359 395.698 356.314 395.698 353V340Z" fill="#416BF5" fill-opacity="0.1"/>
<path d="M406.463 347.755C408.343 347.755 409.579 346.48 409.579 344.664C409.579 342.823 408.356 341.587 406.463 341.587H402.741V351H404.389V347.755H406.463ZM406.141 343.055C407.235 343.055 407.853 343.621 407.853 344.651C407.853 345.682 407.248 346.287 406.115 346.287H404.389V343.055H406.141ZM414.726 344.613C414.468 344.548 414.249 344.523 414.03 344.523C413.18 344.523 412.575 344.948 412.305 345.579L412.215 344.651H410.734V351H412.305V347.909C412.305 346.673 413.013 346.068 414.146 346.068H414.726V344.613ZM415.202 347.806C415.202 349.79 416.631 351.155 418.601 351.155C420.572 351.155 422.001 349.79 422.001 347.806C422.001 345.823 420.572 344.458 418.601 344.458C416.631 344.458 415.202 345.823 415.202 347.806ZM416.773 347.806C416.773 346.647 417.52 345.862 418.601 345.862C419.683 345.862 420.43 346.647 420.43 347.806C420.43 348.965 419.683 349.751 418.601 349.751C417.52 349.751 416.773 348.965 416.773 347.806ZM422.873 347.806C422.873 349.828 424.135 351.167 426.066 351.167C427.728 351.167 428.964 350.15 429.157 348.669H427.573C427.406 349.365 426.852 349.751 426.066 349.751C425.062 349.751 424.444 349.004 424.444 347.806C424.444 346.609 425.114 345.849 426.118 345.849C426.865 345.849 427.393 346.222 427.573 346.944H429.144C428.977 345.411 427.792 344.445 426.054 344.445C424.174 344.445 422.873 345.836 422.873 347.806ZM433.172 351.167C434.833 351.167 435.992 350.33 436.263 348.94H434.808C434.627 349.545 434.061 349.88 433.198 349.88C432.155 349.88 431.563 349.313 431.447 348.193L436.237 348.18V347.703C436.237 345.72 435.027 344.445 433.121 344.445C431.254 344.445 429.953 345.823 429.953 347.819C429.953 349.79 431.279 351.167 433.172 351.167ZM433.134 345.733C434.074 345.733 434.679 346.313 434.679 347.188H431.485C431.64 346.235 432.206 345.733 433.134 345.733ZM437.005 349.068C437.005 350.317 438.01 351.167 439.593 351.167C441.164 351.167 442.259 350.369 442.259 349.081C442.259 348.103 441.718 347.613 440.649 347.369L439.503 347.098C438.962 346.969 438.679 346.738 438.679 346.377C438.679 345.901 439.04 345.617 439.658 345.617C440.263 345.617 440.624 345.965 440.637 346.506H442.13C442.117 345.27 441.152 344.445 439.722 344.445C438.254 344.445 437.198 345.192 437.198 346.441C437.198 347.459 437.752 348 438.898 348.257L440.044 348.528C440.611 348.656 440.778 348.888 440.778 349.21C440.778 349.674 440.379 349.97 439.645 349.97C438.924 349.97 438.512 349.622 438.499 349.068H437.005ZM442.966 349.068C442.966 350.317 443.97 351.167 445.554 351.167C447.125 351.167 448.22 350.369 448.22 349.081C448.22 348.103 447.679 347.613 446.61 347.369L445.464 347.098C444.923 346.969 444.64 346.738 444.64 346.377C444.64 345.901 445.001 345.617 445.619 345.617C446.224 345.617 446.584 345.965 446.597 346.506H448.091C448.078 345.27 447.112 344.445 445.683 344.445C444.215 344.445 443.159 345.192 443.159 346.441C443.159 347.459 443.713 348 444.859 348.257L446.005 348.528C446.572 348.656 446.739 348.888 446.739 349.21C446.739 349.674 446.34 349.97 445.606 349.97C444.885 349.97 444.473 349.622 444.46 349.068H442.966ZM452.262 351.167C453.923 351.167 455.082 350.33 455.353 348.94H453.897C453.717 349.545 453.15 349.88 452.288 349.88C451.245 349.88 450.652 349.313 450.536 348.193L455.327 348.18V347.703C455.327 345.72 454.116 344.445 452.21 344.445C450.343 344.445 449.043 345.823 449.043 347.819C449.043 349.79 450.369 351.167 452.262 351.167ZM452.223 345.733C453.163 345.733 453.769 346.313 453.769 347.188H450.575C450.73 346.235 451.296 345.733 452.223 345.733ZM459.198 351.167C460.164 351.167 460.988 350.742 461.374 350.008L461.478 351H462.92V341.419H461.362V345.45C460.962 344.819 460.177 344.445 459.288 344.445C457.37 344.445 456.211 345.862 456.211 347.845C456.211 349.815 457.357 351.167 459.198 351.167ZM459.546 349.725C458.451 349.725 457.782 348.927 457.782 347.794C457.782 346.66 458.451 345.849 459.546 345.849C460.64 345.849 461.349 346.647 461.349 347.794C461.349 348.94 460.64 349.725 459.546 349.725Z" fill="#416BF5"/>
<path d="M395.698 413.83C395.698 410.516 398.384 407.83 401.698 407.83H464.698C468.012 407.83 470.698 410.516 470.698 413.83V426.83C470.698 430.144 468.012 432.83 464.698 432.83H401.698C398.384 432.83 395.698 430.144 395.698 426.83V413.83Z" fill="#416BF5" fill-opacity="0.1"/>
<path d="M406.463 421.585C408.343 421.585 409.579 420.31 409.579 418.494C409.579 416.653 408.356 415.417 406.463 415.417H402.741V424.83H404.389V421.585H406.463ZM406.141 416.885C407.235 416.885 407.853 417.451 407.853 418.482C407.853 419.512 407.248 420.117 406.115 420.117H404.389V416.885H406.141ZM414.726 418.443C414.468 418.379 414.249 418.353 414.03 418.353C413.18 418.353 412.575 418.778 412.305 419.409L412.215 418.482H410.734V424.83H412.305V421.74C412.305 420.503 413.013 419.898 414.146 419.898H414.726V418.443ZM415.202 421.636C415.202 423.62 416.631 424.985 418.601 424.985C420.572 424.985 422.001 423.62 422.001 421.636C422.001 419.653 420.572 418.288 418.601 418.288C416.631 418.288 415.202 419.653 415.202 421.636ZM416.773 421.636C416.773 420.478 417.52 419.692 418.601 419.692C419.683 419.692 420.43 420.478 420.43 421.636C420.43 422.795 419.683 423.581 418.601 423.581C417.52 423.581 416.773 422.795 416.773 421.636ZM422.873 421.636C422.873 423.658 424.135 424.997 426.066 424.997C427.728 424.997 428.964 423.98 429.157 422.499H427.573C427.406 423.195 426.852 423.581 426.066 423.581C425.062 423.581 424.444 422.834 424.444 421.636C424.444 420.439 425.114 419.679 426.118 419.679C426.865 419.679 427.393 420.053 427.573 420.774H429.144C428.977 419.241 427.792 418.276 426.054 418.276C424.174 418.276 422.873 419.666 422.873 421.636ZM433.172 424.997C434.833 424.997 435.992 424.16 436.263 422.77H434.808C434.627 423.375 434.061 423.71 433.198 423.71C432.155 423.71 431.563 423.143 431.447 422.023L436.237 422.01V421.533C436.237 419.55 435.027 418.276 433.121 418.276C431.254 418.276 429.953 419.653 429.953 421.649C429.953 423.62 431.279 424.997 433.172 424.997ZM433.134 419.563C434.074 419.563 434.679 420.143 434.679 421.018H431.485C431.64 420.065 432.206 419.563 433.134 419.563ZM437.005 422.898C437.005 424.148 438.01 424.997 439.593 424.997C441.164 424.997 442.259 424.199 442.259 422.911C442.259 421.933 441.718 421.443 440.649 421.199L439.503 420.928C438.962 420.799 438.679 420.568 438.679 420.207C438.679 419.731 439.04 419.447 439.658 419.447C440.263 419.447 440.624 419.795 440.637 420.336H442.13C442.117 419.1 441.152 418.276 439.722 418.276C438.254 418.276 437.198 419.022 437.198 420.271C437.198 421.289 437.752 421.83 438.898 422.087L440.044 422.358C440.611 422.486 440.778 422.718 440.778 423.04C440.778 423.504 440.379 423.8 439.645 423.8C438.924 423.8 438.512 423.452 438.499 422.898H437.005ZM442.966 422.898C442.966 424.148 443.97 424.997 445.554 424.997C447.125 424.997 448.22 424.199 448.22 422.911C448.22 421.933 447.679 421.443 446.61 421.199L445.464 420.928C444.923 420.799 444.64 420.568 444.64 420.207C444.64 419.731 445.001 419.447 445.619 419.447C446.224 419.447 446.584 419.795 446.597 420.336H448.091C448.078 419.1 447.112 418.276 445.683 418.276C444.215 418.276 443.159 419.022 443.159 420.271C443.159 421.289 443.713 421.83 444.859 422.087L446.005 422.358C446.572 422.486 446.739 422.718 446.739 423.04C446.739 423.504 446.34 423.8 445.606 423.8C444.885 423.8 444.473 423.452 444.46 422.898H442.966ZM452.262 424.997C453.923 424.997 455.082 424.16 455.353 422.77H453.897C453.717 423.375 453.15 423.71 452.288 423.71C451.245 423.71 450.652 423.143 450.536 422.023L455.327 422.01V421.533C455.327 419.55 454.116 418.276 452.21 418.276C450.343 418.276 449.043 419.653 449.043 421.649C449.043 423.62 450.369 424.997 452.262 424.997ZM452.223 419.563C453.163 419.563 453.769 420.143 453.769 421.018H450.575C450.73 420.065 451.296 419.563 452.223 419.563ZM459.198 424.997C460.164 424.997 460.988 424.573 461.374 423.839L461.478 424.83H462.92V415.249H461.362V419.28C460.962 418.649 460.177 418.276 459.288 418.276C457.37 418.276 456.211 419.692 456.211 421.675C456.211 423.645 457.357 424.997 459.198 424.997ZM459.546 423.555C458.451 423.555 457.782 422.757 457.782 421.624C457.782 420.49 458.451 419.679 459.546 419.679C460.64 419.679 461.349 420.478 461.349 421.624C461.349 422.77 460.64 423.555 459.546 423.555Z" fill="#416BF5"/>
<path d="M395.698 487.661C395.698 484.347 398.384 481.661 401.698 481.661H464.698C468.012 481.661 470.698 484.347 470.698 487.661V500.661C470.698 503.974 468.012 506.661 464.698 506.661H401.698C398.384 506.661 395.698 503.974 395.698 500.661V487.661Z" fill="#416BF5" fill-opacity="0.1"/>
<path d="M406.463 495.416C408.343 495.416 409.579 494.141 409.579 492.325C409.579 490.484 408.356 489.247 406.463 489.247H402.741V498.661H404.389V495.416H406.463ZM406.141 490.715C407.235 490.715 407.853 491.282 407.853 492.312C407.853 493.342 407.248 493.948 406.115 493.948H404.389V490.715H406.141ZM414.726 492.273C414.468 492.209 414.249 492.183 414.03 492.183C413.18 492.183 412.575 492.608 412.305 493.239L412.215 492.312H410.734V498.661H412.305V495.57C412.305 494.334 413.013 493.729 414.146 493.729H414.726V492.273ZM415.202 495.467C415.202 497.45 416.631 498.815 418.601 498.815C420.572 498.815 422.001 497.45 422.001 495.467C422.001 493.484 420.572 492.119 418.601 492.119C416.631 492.119 415.202 493.484 415.202 495.467ZM416.773 495.467C416.773 494.308 417.52 493.523 418.601 493.523C419.683 493.523 420.43 494.308 420.43 495.467C420.43 496.626 419.683 497.412 418.601 497.412C417.52 497.412 416.773 496.626 416.773 495.467ZM422.873 495.467C422.873 497.489 424.135 498.828 426.066 498.828C427.728 498.828 428.964 497.811 429.157 496.33H427.573C427.406 497.025 426.852 497.412 426.066 497.412C425.062 497.412 424.444 496.665 424.444 495.467C424.444 494.269 425.114 493.51 426.118 493.51C426.865 493.51 427.393 493.883 427.573 494.604H429.144C428.977 493.072 427.792 492.106 426.054 492.106C424.174 492.106 422.873 493.497 422.873 495.467ZM433.172 498.828C434.833 498.828 435.992 497.991 436.263 496.6H434.808C434.627 497.206 434.061 497.54 433.198 497.54C432.155 497.54 431.563 496.974 431.447 495.853L436.237 495.841V495.364C436.237 493.381 435.027 492.106 433.121 492.106C431.254 492.106 429.953 493.484 429.953 495.48C429.953 497.45 431.279 498.828 433.172 498.828ZM433.134 493.394C434.074 493.394 434.679 493.973 434.679 494.849H431.485C431.64 493.896 432.206 493.394 433.134 493.394ZM437.005 496.729C437.005 497.978 438.01 498.828 439.593 498.828C441.164 498.828 442.259 498.03 442.259 496.742C442.259 495.763 441.718 495.274 440.649 495.029L439.503 494.759C438.962 494.63 438.679 494.398 438.679 494.038C438.679 493.561 439.04 493.278 439.658 493.278C440.263 493.278 440.624 493.626 440.637 494.166H442.13C442.117 492.93 441.152 492.106 439.722 492.106C438.254 492.106 437.198 492.853 437.198 494.102C437.198 495.119 437.752 495.66 438.898 495.918L440.044 496.188C440.611 496.317 440.778 496.549 440.778 496.871C440.778 497.334 440.379 497.63 439.645 497.63C438.924 497.63 438.512 497.283 438.499 496.729H437.005ZM442.966 496.729C442.966 497.978 443.97 498.828 445.554 498.828C447.125 498.828 448.22 498.03 448.22 496.742C448.22 495.763 447.679 495.274 446.61 495.029L445.464 494.759C444.923 494.63 444.64 494.398 444.64 494.038C444.64 493.561 445.001 493.278 445.619 493.278C446.224 493.278 446.584 493.626 446.597 494.166H448.091C448.078 492.93 447.112 492.106 445.683 492.106C444.215 492.106 443.159 492.853 443.159 494.102C443.159 495.119 443.713 495.66 444.859 495.918L446.005 496.188C446.572 496.317 446.739 496.549 446.739 496.871C446.739 497.334 446.34 497.63 445.606 497.63C444.885 497.63 444.473 497.283 444.46 496.729H442.966ZM452.262 498.828C453.923 498.828 455.082 497.991 455.353 496.6H453.897C453.717 497.206 453.15 497.54 452.288 497.54C451.245 497.54 450.652 496.974 450.536 495.853L455.327 495.841V495.364C455.327 493.381 454.116 492.106 452.21 492.106C450.343 492.106 449.043 493.484 449.043 495.48C449.043 497.45 450.369 498.828 452.262 498.828ZM452.223 493.394C453.163 493.394 453.769 493.973 453.769 494.849H450.575C450.73 493.896 451.296 493.394 452.223 493.394ZM459.198 498.828C460.164 498.828 460.988 498.403 461.374 497.669L461.478 498.661H462.92V489.08H461.362V493.111C460.962 492.48 460.177 492.106 459.288 492.106C457.37 492.106 456.211 493.523 456.211 495.506C456.211 497.476 457.357 498.828 459.198 498.828ZM459.546 497.386C458.451 497.386 457.782 496.587 457.782 495.454C457.782 494.321 458.451 493.51 459.546 493.51C460.64 493.51 461.349 494.308 461.349 495.454C461.349 496.6 460.64 497.386 459.546 497.386Z" fill="#416BF5"/>
<path d="M294.679 270.745C294.679 267.431 297.365 264.745 300.679 264.745H327.679C330.993 264.745 333.679 267.431 333.679 270.745V274.745C333.679 278.059 330.993 280.745 327.679 280.745H300.679C297.365 280.745 294.679 278.059 294.679 274.745V270.745Z" fill="#FDB513" fill-opacity="0.1"/>
<path d="M300.482 275.857C301.143 275.857 301.718 275.556 301.899 275.118L301.976 275.745H302.894V273.17C302.894 271.994 302.19 271.375 301.049 271.375C299.898 271.375 299.143 271.976 299.143 272.895H300.036C300.036 272.449 300.379 272.191 300.997 272.191C301.529 272.191 301.873 272.423 301.873 272.998V273.092L300.602 273.187C299.598 273.264 299.031 273.753 299.031 274.535C299.031 275.333 299.581 275.857 300.482 275.857ZM300.825 275.067C300.353 275.067 300.096 274.878 300.096 274.492C300.096 274.148 300.345 273.934 300.997 273.874L301.881 273.805V274.028C301.881 274.681 301.469 275.067 300.825 275.067ZM304.971 275.745V273.341C304.971 272.655 305.374 272.328 305.872 272.328C306.37 272.328 306.688 272.646 306.688 273.238V275.745H307.735V273.341C307.735 272.646 308.121 272.32 308.628 272.32C309.126 272.32 309.452 272.637 309.452 273.247V275.745H310.491V272.972C310.491 271.994 309.924 271.375 308.894 271.375C308.25 271.375 307.752 271.693 307.538 272.182C307.314 271.693 306.868 271.375 306.224 271.375C305.615 271.375 305.185 271.65 304.971 272.002L304.885 271.504H303.923V275.745H304.971ZM311.27 273.616C311.27 274.938 312.223 275.848 313.536 275.848C314.85 275.848 315.803 274.938 315.803 273.616C315.803 272.294 314.85 271.384 313.536 271.384C312.223 271.384 311.27 272.294 311.27 273.616ZM312.317 273.616C312.317 272.843 312.815 272.32 313.536 272.32C314.258 272.32 314.755 272.843 314.755 273.616C314.755 274.389 314.258 274.912 313.536 274.912C312.815 274.912 312.317 274.389 312.317 273.616ZM319.408 271.504V273.728C319.408 274.535 319.091 274.921 318.43 274.921C317.846 274.921 317.528 274.595 317.528 273.788V271.504H316.481V274.157C316.481 275.196 317.056 275.857 318.035 275.857C318.601 275.857 319.151 275.582 319.408 275.179L319.486 275.745H320.456V271.504H319.408ZM322.585 275.745V273.462C322.585 272.775 322.98 272.328 323.624 272.328C324.164 272.328 324.516 272.672 324.516 273.384V275.745H325.564V273.135C325.564 272.036 325.014 271.375 323.95 271.375C323.375 271.375 322.86 271.624 322.593 272.054L322.508 271.504H321.537V275.745H322.585ZM328.035 275.745V272.38H328.859V271.504H328.035V270.182H326.988V271.504H326.172V272.38H326.988V275.745H328.035Z" fill="#FDB513"/>
<path d="M294.679 344.575C294.679 341.261 297.365 338.575 300.679 338.575H327.679C330.993 338.575 333.679 341.261 333.679 344.575V348.575C333.679 351.889 330.993 354.575 327.679 354.575H300.679C297.365 354.575 294.679 351.889 294.679 348.575V344.575Z" fill="#FDB513" fill-opacity="0.1"/>
<path d="M300.482 349.687C301.143 349.687 301.718 349.386 301.899 348.948L301.976 349.575H302.894V347C302.894 345.824 302.19 345.205 301.049 345.205C299.898 345.205 299.143 345.806 299.143 346.725H300.036C300.036 346.279 300.379 346.021 300.997 346.021C301.529 346.021 301.873 346.253 301.873 346.828V346.922L300.602 347.017C299.598 347.094 299.031 347.583 299.031 348.365C299.031 349.163 299.581 349.687 300.482 349.687ZM300.825 348.897C300.353 348.897 300.096 348.708 300.096 348.322C300.096 347.978 300.345 347.764 300.997 347.704L301.881 347.635V347.858C301.881 348.511 301.469 348.897 300.825 348.897ZM304.971 349.575V347.171C304.971 346.485 305.374 346.158 305.872 346.158C306.37 346.158 306.688 346.476 306.688 347.068V349.575H307.735V347.171C307.735 346.476 308.121 346.15 308.628 346.15C309.126 346.15 309.452 346.467 309.452 347.077V349.575H310.491V346.802C310.491 345.824 309.924 345.205 308.894 345.205C308.25 345.205 307.752 345.523 307.538 346.012C307.314 345.523 306.868 345.205 306.224 345.205C305.615 345.205 305.185 345.48 304.971 345.832L304.885 345.334H303.923V349.575H304.971ZM311.27 347.446C311.27 348.768 312.223 349.678 313.536 349.678C314.85 349.678 315.803 348.768 315.803 347.446C315.803 346.124 314.85 345.214 313.536 345.214C312.223 345.214 311.27 346.124 311.27 347.446ZM312.317 347.446C312.317 346.673 312.815 346.15 313.536 346.15C314.258 346.15 314.755 346.673 314.755 347.446C314.755 348.219 314.258 348.742 313.536 348.742C312.815 348.742 312.317 348.219 312.317 347.446ZM319.408 345.334V347.558C319.408 348.365 319.091 348.751 318.43 348.751C317.846 348.751 317.528 348.425 317.528 347.618V345.334H316.481V347.987C316.481 349.026 317.056 349.687 318.035 349.687C318.601 349.687 319.151 349.412 319.408 349.009L319.486 349.575H320.456V345.334H319.408ZM322.585 349.575V347.292C322.585 346.605 322.98 346.158 323.624 346.158C324.164 346.158 324.516 346.502 324.516 347.214V349.575H325.564V346.965C325.564 345.867 325.014 345.205 323.95 345.205C323.375 345.205 322.86 345.454 322.593 345.884L322.508 345.334H321.537V349.575H322.585ZM328.035 349.575V346.21H328.859V345.334H328.035V344.012H326.988V345.334H326.172V346.21H326.988V349.575H328.035Z" fill="#FDB513"/>
<path d="M294.679 418.406C294.679 415.092 297.365 412.406 300.679 412.406H327.679C330.993 412.406 333.679 415.092 333.679 418.406V422.406C333.679 425.719 330.993 428.406 327.679 428.406H300.679C297.365 428.406 294.679 425.719 294.679 422.406V418.406Z" fill="#FDB513" fill-opacity="0.1"/>
<path d="M300.482 423.517C301.143 423.517 301.718 423.217 301.899 422.779L301.976 423.406H302.894V420.83C302.894 419.654 302.19 419.036 301.049 419.036C299.898 419.036 299.143 419.637 299.143 420.556H300.036C300.036 420.109 300.379 419.852 300.997 419.852C301.529 419.852 301.873 420.083 301.873 420.659V420.753L300.602 420.847C299.598 420.925 299.031 421.414 299.031 422.195C299.031 422.994 299.581 423.517 300.482 423.517ZM300.825 422.728C300.353 422.728 300.096 422.539 300.096 422.152C300.096 421.809 300.345 421.594 300.997 421.534L301.881 421.466V421.689C301.881 422.341 301.469 422.728 300.825 422.728ZM304.971 423.406V421.002C304.971 420.315 305.374 419.989 305.872 419.989C306.37 419.989 306.688 420.307 306.688 420.899V423.406H307.735V421.002C307.735 420.307 308.121 419.98 308.628 419.98C309.126 419.98 309.452 420.298 309.452 420.908V423.406H310.491V420.633C310.491 419.654 309.924 419.036 308.894 419.036C308.25 419.036 307.752 419.354 307.538 419.843C307.314 419.354 306.868 419.036 306.224 419.036C305.615 419.036 305.185 419.311 304.971 419.663L304.885 419.165H303.923V423.406H304.971ZM311.27 421.277C311.27 422.599 312.223 423.509 313.536 423.509C314.85 423.509 315.803 422.599 315.803 421.277C315.803 419.955 314.85 419.045 313.536 419.045C312.223 419.045 311.27 419.955 311.27 421.277ZM312.317 421.277C312.317 420.504 312.815 419.98 313.536 419.98C314.258 419.98 314.755 420.504 314.755 421.277C314.755 422.049 314.258 422.573 313.536 422.573C312.815 422.573 312.317 422.049 312.317 421.277ZM319.408 419.165V421.388C319.408 422.195 319.091 422.582 318.43 422.582C317.846 422.582 317.528 422.255 317.528 421.448V419.165H316.481V421.818C316.481 422.856 317.056 423.517 318.035 423.517C318.601 423.517 319.151 423.243 319.408 422.839L319.486 423.406H320.456V419.165H319.408ZM322.585 423.406V421.122C322.585 420.435 322.98 419.989 323.624 419.989C324.164 419.989 324.516 420.332 324.516 421.045V423.406H325.564V420.796C325.564 419.697 325.014 419.036 323.95 419.036C323.375 419.036 322.86 419.285 322.593 419.714L322.508 419.165H321.537V423.406H322.585ZM328.035 423.406V420.04H328.859V419.165H328.035V417.843H326.988V419.165H326.172V420.04H326.988V423.406H328.035Z" fill="#FDB513"/>
<path d="M294.679 492.235C294.679 488.922 297.365 486.235 300.679 486.235H327.679C330.993 486.235 333.679 488.922 333.679 492.235V496.235C333.679 499.549 330.993 502.235 327.679 502.235H300.679C297.365 502.235 294.679 499.549 294.679 496.235V492.235Z" fill="#FDB513" fill-opacity="0.1"/>
<path d="M300.482 497.347C301.143 497.347 301.718 497.046 301.899 496.609L301.976 497.235H302.894V494.66C302.894 493.484 302.19 492.866 301.049 492.866C299.898 492.866 299.143 493.467 299.143 494.385H300.036C300.036 493.939 300.379 493.681 300.997 493.681C301.529 493.681 301.873 493.913 301.873 494.488V494.583L300.602 494.677C299.598 494.754 299.031 495.244 299.031 496.025C299.031 496.823 299.581 497.347 300.482 497.347ZM300.825 496.557C300.353 496.557 300.096 496.368 300.096 495.982C300.096 495.639 300.345 495.424 300.997 495.364L301.881 495.295V495.518C301.881 496.171 301.469 496.557 300.825 496.557ZM304.971 497.235V494.832C304.971 494.145 305.374 493.819 305.872 493.819C306.37 493.819 306.688 494.136 306.688 494.729V497.235H307.735V494.832C307.735 494.136 308.121 493.81 308.628 493.81C309.126 493.81 309.452 494.128 309.452 494.737V497.235H310.491V494.462C310.491 493.484 309.924 492.866 308.894 492.866C308.25 492.866 307.752 493.183 307.538 493.673C307.314 493.183 306.868 492.866 306.224 492.866C305.615 492.866 305.185 493.14 304.971 493.492L304.885 492.994H303.923V497.235H304.971ZM311.27 495.106C311.27 496.428 312.223 497.338 313.536 497.338C314.85 497.338 315.803 496.428 315.803 495.106C315.803 493.784 314.85 492.874 313.536 492.874C312.223 492.874 311.27 493.784 311.27 495.106ZM312.317 495.106C312.317 494.334 312.815 493.81 313.536 493.81C314.258 493.81 314.755 494.334 314.755 495.106C314.755 495.879 314.258 496.403 313.536 496.403C312.815 496.403 312.317 495.879 312.317 495.106ZM319.408 492.994V495.218C319.408 496.025 319.091 496.411 318.43 496.411C317.846 496.411 317.528 496.085 317.528 495.278V492.994H316.481V495.647C316.481 496.686 317.056 497.347 318.035 497.347C318.601 497.347 319.151 497.072 319.408 496.669L319.486 497.235H320.456V492.994H319.408ZM322.585 497.235V494.952C322.585 494.265 322.98 493.819 323.624 493.819C324.164 493.819 324.516 494.162 324.516 494.875V497.235H325.564V494.626C325.564 493.527 325.014 492.866 323.95 492.866C323.375 492.866 322.86 493.115 322.593 493.544L322.508 492.994H321.537V497.235H322.585ZM328.035 497.235V493.87H328.859V492.994H328.035V491.672H326.988V492.994H326.172V493.87H326.988V497.235H328.035Z" fill="#FDB513"/>
<g clip-path="url(#clip0_56_3057)">
<path d="M486.689 267.032C487.479 267.032 488.119 266.391 488.119 265.601C488.119 264.811 487.479 264.17 486.689 264.17C485.898 264.17 485.258 264.811 485.258 265.601C485.258 266.391 485.898 267.032 486.689 267.032Z" fill="#565F73"/>
<path d="M486.689 274.186C487.479 274.186 488.119 273.545 488.119 272.755C488.119 271.965 487.479 271.324 486.689 271.324C485.898 271.324 485.258 271.965 485.258 272.755C485.258 273.545 485.898 274.186 486.689 274.186Z" fill="#565F73"/>
<path d="M486.689 281.34C487.479 281.34 488.119 280.699 488.119 279.909C488.119 279.119 487.479 278.478 486.689 278.478C485.898 278.478 485.258 279.119 485.258 279.909C485.258 280.699 485.898 281.34 486.689 281.34Z" fill="#565F73"/>
</g>
<g clip-path="url(#clip1_56_3057)">
<path d="M486.689 340.862C487.479 340.862 488.119 340.221 488.119 339.431C488.119 338.641 487.479 338 486.689 338C485.898 338 485.258 338.641 485.258 339.431C485.258 340.221 485.898 340.862 486.689 340.862Z" fill="#565F73"/>
<path d="M486.689 348.016C487.479 348.016 488.119 347.375 488.119 346.585C488.119 345.795 487.479 345.154 486.689 345.154C485.898 345.154 485.258 345.795 485.258 346.585C485.258 347.375 485.898 348.016 486.689 348.016Z" fill="#565F73"/>
<path d="M486.689 355.17C487.479 355.17 488.119 354.529 488.119 353.739C488.119 352.949 487.479 352.308 486.689 352.308C485.898 352.308 485.258 352.949 485.258 353.739C485.258 354.529 485.898 355.17 486.689 355.17Z" fill="#565F73"/>
</g>
<g clip-path="url(#clip2_56_3057)">
<path d="M486.689 414.692C487.479 414.692 488.119 414.051 488.119 413.261C488.119 412.471 487.479 411.83 486.689 411.83C485.898 411.83 485.258 412.471 485.258 413.261C485.258 414.051 485.898 414.692 486.689 414.692Z" fill="#565F73"/>
<path d="M486.689 421.846C487.479 421.846 488.119 421.205 488.119 420.415C488.119 419.625 487.479 418.984 486.689 418.984C485.898 418.984 485.258 419.625 485.258 420.415C485.258 421.205 485.898 421.846 486.689 421.846Z" fill="#565F73"/>
<path d="M486.689 429C487.479 429 488.119 428.359 488.119 427.569C488.119 426.779 487.479 426.138 486.689 426.138C485.898 426.138 485.258 426.779 485.258 427.569C485.258 428.359 485.898 429 486.689 429Z" fill="#565F73"/>
</g>
<g clip-path="url(#clip3_56_3057)">
<path d="M486.689 488.522C487.479 488.522 488.119 487.881 488.119 487.091C488.119 486.301 487.479 485.66 486.689 485.66C485.898 485.66 485.258 486.301 485.258 487.091C485.258 487.881 485.898 488.522 486.689 488.522Z" fill="#565F73"/>
<path d="M486.689 495.676C487.479 495.676 488.119 495.035 488.119 494.245C488.119 493.455 487.479 492.814 486.689 492.814C485.898 492.814 485.258 493.455 485.258 494.245C485.258 495.035 485.898 495.676 486.689 495.676Z" fill="#565F73"/>
<path d="M486.689 502.83C487.479 502.83 488.119 502.189 488.119 501.399C488.119 500.609 487.479 499.968 486.689 499.968C485.898 499.968 485.258 500.609 485.258 501.399C485.258 502.189 485.898 502.83 486.689 502.83Z" fill="#565F73"/>
</g>
<rect x="63.4529" y="336.283" width="20.6038" height="20.6038" fill="#51A57B"/>
<path d="M69.0331 344.439L81.4812 344.01L84.0567 336.283V346.585V356.887H63.4529L69.0331 344.439Z" fill="#00CA00"/>
<rect x="63.4529" y="410.113" width="20.6038" height="20.6038" fill="#3D3D3D"/>
<path d="M69.0331 418.269C73.145 415.67 78.0444 421.282 81.4812 417.84C83.7284 415.589 84.0567 410.113 84.0567 410.113V420.415V430.717H63.4529C63.4529 430.717 64.5296 421.115 69.0331 418.269Z" fill="#416BF5"/>
<rect x="63.4529" y="483.943" width="20.6038" height="20.6038" fill="#BC4930"/>
<path d="M69.0331 492.099C75.4717 498.108 83.6274 500.255 81.4812 491.67C80.7098 488.584 84.0567 483.943 84.0567 483.943V494.245V504.547H63.4529C63.4529 504.547 65.1385 488.464 69.0331 492.099Z" fill="#FDB513"/>
<rect x="48" y="40" width="240.062" height="186" rx="11.5848" fill="white"/>
<path opacity="0.6" d="M65.762 103.292H66.3386V102.509C67.528 102.4 68.2939 101.68 68.2939 100.607C68.2939 99.7063 67.7713 99.1387 66.69 98.8954L66.3386 98.8143V96.5797C66.9243 96.6608 67.2757 97.0302 67.3117 97.6069H68.1857C68.1227 96.5617 67.4289 95.8949 66.3386 95.7958V95.0209H65.762V95.8048C64.5906 95.904 63.8247 96.6338 63.8247 97.661C63.8247 98.589 64.3744 99.1837 65.4376 99.427L65.762 99.4991V101.743C65.0772 101.671 64.6537 101.292 64.6357 100.715H63.7346C63.7887 101.77 64.5726 102.445 65.762 102.518V103.292ZM65.6178 98.6431C64.9871 98.4899 64.6897 98.1565 64.6897 97.6339C64.6897 97.0573 65.0952 96.6698 65.762 96.5797V98.6791L65.6178 98.6431ZM66.5098 99.6793C67.1315 99.8235 67.4289 100.157 67.4289 100.679C67.4289 101.247 67.0144 101.635 66.3386 101.725V99.6433L66.5098 99.6793ZM71.2776 102.527C72.6833 102.527 73.6474 101.58 73.6474 100.229C73.6474 98.9765 72.7914 98.0484 71.4669 98.0484C70.9803 98.0484 70.5478 98.1836 70.2054 98.4449L70.6379 96.7149H73.2599V95.904H69.9982L69.2053 99.2468L69.9531 99.436C70.2505 99.0666 70.755 98.8053 71.3047 98.8053C72.2147 98.8053 72.7463 99.427 72.7463 100.265C72.7463 101.148 72.1787 101.734 71.2957 101.734C70.4667 101.734 69.9531 101.22 69.9531 100.382H69.0791C69.0791 101.68 69.9441 102.527 71.2776 102.527ZM74.4116 99.1657C74.4116 101.193 75.4118 102.536 77.0967 102.536C78.7727 102.536 79.7728 101.193 79.7728 99.1657C79.7728 97.1474 78.7276 95.7778 77.0967 95.7778C75.4568 95.7778 74.4116 97.1474 74.4116 99.1657ZM75.2856 99.1657C75.2856 97.5438 75.9524 96.5707 77.0967 96.5707C78.2411 96.5707 78.8988 97.5438 78.8988 99.1657C78.8988 100.77 78.2411 101.743 77.0967 101.743C75.9524 101.743 75.2856 100.77 75.2856 99.1657ZM80.6591 99.1657C80.6591 101.193 81.6592 102.536 83.3442 102.536C85.0201 102.536 86.0202 101.193 86.0202 99.1657C86.0202 97.1474 84.975 95.7778 83.3442 95.7778C81.7043 95.7778 80.6591 97.1474 80.6591 99.1657ZM81.5331 99.1657C81.5331 97.5438 82.1998 96.5707 83.3442 96.5707C84.4885 96.5707 85.1462 97.5438 85.1462 99.1657C85.1462 100.77 84.4885 101.743 83.3442 101.743C82.1998 101.743 81.5331 100.77 81.5331 99.1657ZM87.9427 102.418V101.166L88.6906 100.382L89.979 102.418H90.9522L89.2762 99.7694L90.9612 98.0124H89.898L87.9427 100.085V95.7868H87.0957V102.418H87.9427Z" fill="#565F73"/>
<path opacity="0.6" d="M65.762 125.819H66.3386V125.035C67.528 124.927 68.2939 124.206 68.2939 123.134C68.2939 122.233 67.7713 121.665 66.69 121.422L66.3386 121.341V119.106C66.9243 119.187 67.2757 119.557 67.3117 120.133H68.1857C68.1227 119.088 67.4289 118.421 66.3386 118.322V117.547H65.762V118.331C64.5906 118.43 63.8247 119.16 63.8247 120.187C63.8247 121.115 64.3744 121.71 65.4376 121.953L65.762 122.025V124.269C65.0772 124.197 64.6537 123.819 64.6357 123.242H63.7346C63.7887 124.296 64.5726 124.972 65.762 125.044V125.819ZM65.6178 121.169C64.9871 121.016 64.6897 120.683 64.6897 120.16C64.6897 119.584 65.0952 119.196 65.762 119.106V121.206L65.6178 121.169ZM66.5098 122.206C67.1315 122.35 67.4289 122.683 67.4289 123.206C67.4289 123.773 67.0144 124.161 66.3386 124.251V122.17L66.5098 122.206ZM73.9447 123.629V122.845H73.1698V118.43H72.0255L68.953 122.845V123.629H72.3229V124.945H73.1698V123.629H73.9447ZM69.9081 122.845L72.3229 119.367V122.845H69.9081ZM76.9091 125.053C78.3148 125.053 79.2789 124.107 79.2789 122.755C79.2789 121.503 78.4229 120.575 77.0984 120.575C76.6118 120.575 76.1793 120.71 75.8369 120.971L76.2694 119.241H78.8914V118.43H75.6297L74.8367 121.773L75.5846 121.962C75.882 121.593 76.3865 121.332 76.9362 121.332C77.8462 121.332 78.3778 121.953 78.3778 122.791C78.3778 123.674 77.8102 124.26 76.9272 124.26C76.0982 124.26 75.5846 123.746 75.5846 122.908H74.7106C74.7106 124.206 75.5756 125.053 76.9091 125.053ZM80.0431 121.692C80.0431 123.719 81.0433 125.062 82.7282 125.062C84.4042 125.062 85.4043 123.719 85.4043 121.692C85.4043 119.674 84.3591 118.304 82.7282 118.304C81.0883 118.304 80.0431 119.674 80.0431 121.692ZM80.9171 121.692C80.9171 120.07 81.5839 119.097 82.7282 119.097C83.8725 119.097 84.5303 120.07 84.5303 121.692C84.5303 123.296 83.8725 124.269 82.7282 124.269C81.5839 124.269 80.9171 123.296 80.9171 121.692ZM87.3268 124.945V123.692L88.0746 122.908L89.3631 124.945H90.3362L88.6603 122.296L90.3452 120.539H89.282L87.3268 122.611V118.313H86.4798V124.945H87.3268Z" fill="#565F73"/>
<path opacity="0.6" d="M65.762 148.345H66.3386V147.561C67.528 147.453 68.2939 146.732 68.2939 145.66C68.2939 144.759 67.7713 144.191 66.69 143.948L66.3386 143.867V141.632C66.9243 141.713 67.2757 142.082 67.3117 142.659H68.1857C68.1227 141.614 67.4289 140.947 66.3386 140.848V140.073H65.762V140.857C64.5906 140.956 63.8247 141.686 63.8247 142.713C63.8247 143.641 64.3744 144.236 65.4376 144.479L65.762 144.551V146.795C65.0772 146.723 64.6537 146.344 64.6357 145.768H63.7346C63.7887 146.822 64.5726 147.498 65.762 147.57V148.345ZM65.6178 143.695C64.9871 143.542 64.6897 143.209 64.6897 142.686C64.6897 142.11 65.0952 141.722 65.762 141.632V143.731L65.6178 143.695ZM66.5098 144.732C67.1315 144.876 67.4289 145.209 67.4289 145.732C67.4289 146.299 67.0144 146.687 66.3386 146.777V144.696L66.5098 144.732ZM70.9533 144.101C71.9895 144.101 72.5301 144.623 72.5301 145.407C72.5301 146.245 71.9805 146.786 71.1335 146.786C70.3135 146.786 69.7909 146.29 69.7909 145.443H68.9169C68.9169 146.795 69.836 147.579 71.1155 147.579C72.44 147.579 73.4311 146.741 73.4311 145.425C73.4311 144.254 72.5932 143.506 71.4849 143.371L73.2689 141.668V140.956H69.2233V141.74H72.1517L70.3045 143.515V144.101H70.9533ZM76.3812 147.579C77.7868 147.579 78.7509 146.633 78.7509 145.281C78.7509 144.029 77.8949 143.101 76.5704 143.101C76.0838 143.101 75.6513 143.236 75.3089 143.497L75.7414 141.767H78.3635V140.956H75.1017L74.3088 144.299L75.0567 144.488C75.354 144.119 75.8586 143.858 76.4082 143.858C77.3183 143.858 77.8499 144.479 77.8499 145.317C77.8499 146.2 77.2822 146.786 76.3992 146.786C75.5702 146.786 75.0567 146.272 75.0567 145.434H74.1827C74.1827 146.732 75.0476 147.579 76.3812 147.579ZM79.5152 144.218C79.5152 146.245 80.5153 147.588 82.2003 147.588C83.8762 147.588 84.8764 146.245 84.8764 144.218C84.8764 142.2 83.8311 140.83 82.2003 140.83C80.5604 140.83 79.5152 142.2 79.5152 144.218ZM80.3892 144.218C80.3892 142.596 81.056 141.623 82.2003 141.623C83.3446 141.623 84.0023 142.596 84.0023 144.218C84.0023 145.822 83.3446 146.795 82.2003 146.795C81.056 146.795 80.3892 145.822 80.3892 144.218ZM86.7988 147.471V146.218L87.5467 145.434L88.8351 147.471H89.8083L88.1323 144.822L89.8173 143.065H88.7541L86.7988 145.137V140.839H85.9518V147.471H86.7988Z" fill="#565F73"/>
<path opacity="0.6" d="M65.762 170.871H66.3386V170.087C67.528 169.979 68.2939 169.258 68.2939 168.185C68.2939 167.284 67.7713 166.717 66.69 166.474L66.3386 166.392V164.158C66.9243 164.239 67.2757 164.608 67.3117 165.185H68.1857C68.1227 164.14 67.4289 163.473 66.3386 163.374V162.599H65.762V163.383C64.5906 163.482 63.8247 164.212 63.8247 165.239C63.8247 166.167 64.3744 166.762 65.4376 167.005L65.762 167.077V169.321C65.0772 169.249 64.6537 168.87 64.6357 168.294H63.7346C63.7887 169.348 64.5726 170.024 65.762 170.096V170.871ZM65.6178 166.221C64.9871 166.068 64.6897 165.735 64.6897 165.212C64.6897 164.635 65.0952 164.248 65.762 164.158V166.257L65.6178 166.221ZM66.5098 167.257C67.1315 167.402 67.4289 167.735 67.4289 168.258C67.4289 168.825 67.0144 169.213 66.3386 169.303V167.221L66.5098 167.257ZM70.9533 166.627C71.9895 166.627 72.5301 167.149 72.5301 167.933C72.5301 168.771 71.9805 169.312 71.1335 169.312C70.3135 169.312 69.7909 168.816 69.7909 167.969H68.9169C68.9169 169.321 69.836 170.105 71.1155 170.105C72.44 170.105 73.4311 169.267 73.4311 167.951C73.4311 166.78 72.5932 166.032 71.4849 165.897L73.2689 164.194V163.482H69.2233V164.266H72.1517L70.3045 166.041V166.627H70.9533ZM74.2093 166.744C74.2093 168.771 75.2094 170.114 76.8944 170.114C78.5703 170.114 79.5704 168.771 79.5704 166.744C79.5704 164.726 78.5252 163.356 76.8944 163.356C75.2545 163.356 74.2093 164.726 74.2093 166.744ZM75.0833 166.744C75.0833 165.122 75.75 164.149 76.8944 164.149C78.0387 164.149 78.6964 165.122 78.6964 166.744C78.6964 168.348 78.0387 169.321 76.8944 169.321C75.75 169.321 75.0833 168.348 75.0833 166.744ZM80.4567 166.744C80.4567 168.771 81.4568 170.114 83.1418 170.114C84.8177 170.114 85.8179 168.771 85.8179 166.744C85.8179 164.726 84.7727 163.356 83.1418 163.356C81.5019 163.356 80.4567 164.726 80.4567 166.744ZM81.3307 166.744C81.3307 165.122 81.9975 164.149 83.1418 164.149C84.2861 164.149 84.9439 165.122 84.9439 166.744C84.9439 168.348 84.2861 169.321 83.1418 169.321C81.9975 169.321 81.3307 168.348 81.3307 166.744ZM87.7403 169.997V168.744L88.4882 167.96L89.7767 169.997H90.7498L89.0739 167.348L90.7588 165.591H89.6956L87.7403 167.663V163.365H86.8933V169.997H87.7403Z" fill="#565F73"/>
<path opacity="0.5" d="M110.558 204.675C110.558 205.48 111.047 206.046 111.935 206.046C112.765 206.046 113.325 205.518 113.325 204.682V201.316H112.694V204.656C112.694 205.139 112.463 205.46 111.935 205.46C111.42 205.46 111.169 205.132 111.169 204.675V204.443H110.558V204.675ZM115.193 206.046C115.702 206.046 116.133 205.821 116.294 205.46L116.358 205.969H116.873V203.993C116.873 203.143 116.346 202.731 115.567 202.731C114.756 202.731 114.215 203.163 114.215 203.819H114.743C114.743 203.439 115.033 203.214 115.541 203.214C115.966 203.214 116.281 203.401 116.281 203.929V204.019L115.29 204.096C114.55 204.154 114.119 204.514 114.119 205.093C114.119 205.666 114.518 206.046 115.193 206.046ZM115.367 205.576C114.975 205.576 114.73 205.409 114.73 205.074C114.73 204.765 114.949 204.559 115.483 204.508L116.288 204.443V204.611C116.288 205.203 115.94 205.576 115.367 205.576ZM118.316 205.969V204.302C118.316 203.69 118.644 203.285 119.211 203.285C119.674 203.285 119.97 203.542 119.97 204.18V205.969H120.575V204.044C120.575 203.24 120.195 202.731 119.365 202.731C118.921 202.731 118.522 202.944 118.323 203.304L118.258 202.822H117.711V205.969H118.316Z" fill="#565F73"/>
<path opacity="0.5" d="M133.38 203.993V203.42H131.552V201.895H133.727V201.316H130.921V205.969H131.552V203.993H133.38ZM135.501 206.046C136.28 206.046 136.808 205.666 136.962 204.99H136.396C136.293 205.351 135.984 205.544 135.514 205.544C134.915 205.544 134.568 205.177 134.523 204.514L136.956 204.508V204.283C136.956 203.349 136.37 202.731 135.475 202.731C134.561 202.731 133.937 203.414 133.937 204.398C133.937 205.377 134.574 206.046 135.501 206.046ZM135.475 203.24C136.01 203.24 136.351 203.587 136.351 204.109H134.536C134.613 203.555 134.948 203.24 135.475 203.24ZM138.178 205.969L138.223 205.396C138.429 205.827 138.848 206.046 139.343 206.046C140.257 206.046 140.824 205.364 140.824 204.411C140.824 203.439 140.283 202.731 139.382 202.731C138.867 202.731 138.442 202.95 138.236 203.362V201.232H137.631V205.969H138.178ZM138.243 204.385C138.243 203.742 138.616 203.279 139.234 203.279C139.852 203.279 140.219 203.742 140.219 204.385C140.219 205.036 139.852 205.499 139.234 205.499C138.616 205.499 138.243 205.042 138.243 204.385Z" fill="#565F73"/>
<path opacity="0.5" d="M151.491 205.969V203.98C151.491 203.33 151.478 202.854 151.446 202.628L152.797 205.969H153.389L154.747 202.616C154.715 202.944 154.709 203.259 154.709 204.128V205.969H155.327V201.316H154.696L153.093 205.229L151.491 201.316H150.873V205.969H151.491ZM157.227 206.046C157.736 206.046 158.167 205.821 158.328 205.46L158.392 205.969H158.907V203.993C158.907 203.143 158.38 202.731 157.601 202.731C156.79 202.731 156.249 203.163 156.249 203.819H156.777C156.777 203.439 157.067 203.214 157.575 203.214C158 203.214 158.315 203.401 158.315 203.929V204.019L157.324 204.096C156.584 204.154 156.153 204.514 156.153 205.093C156.153 205.666 156.552 206.046 157.227 206.046ZM157.401 205.576C157.009 205.576 156.764 205.409 156.764 205.074C156.764 204.765 156.983 204.559 157.517 204.508L158.322 204.443V204.611C158.322 205.203 157.974 205.576 157.401 205.576ZM161.547 202.796C161.425 202.77 161.335 202.757 161.225 202.757C160.794 202.757 160.479 202.976 160.35 203.304L160.311 202.828H159.745V205.969H160.35V204.302C160.35 203.697 160.704 203.349 161.277 203.349H161.547V202.796Z" fill="#565F73"/>
<path opacity="0.5" d="M171.017 205.969L171.429 204.81H173.386L173.804 205.969H174.467L172.762 201.316H172.06L170.361 205.969H171.017ZM172.33 202.32C172.363 202.223 172.395 202.114 172.408 202.049C172.42 202.12 172.453 202.229 172.485 202.32L173.199 204.263H171.622L172.33 202.32ZM174.983 207.378H175.588V205.454C175.794 205.84 176.212 206.052 176.714 206.052C177.647 206.052 178.175 205.332 178.175 204.373C178.175 203.407 177.615 202.731 176.714 202.731C176.212 202.731 175.787 202.957 175.575 203.388L175.53 202.822H174.983V207.378ZM175.594 204.398C175.594 203.742 175.967 203.285 176.585 203.285C177.203 203.285 177.57 203.748 177.57 204.398C177.57 205.042 177.203 205.505 176.585 205.505C175.967 205.505 175.594 205.042 175.594 204.398ZM180.644 202.796C180.522 202.77 180.431 202.757 180.322 202.757C179.891 202.757 179.575 202.976 179.447 203.304L179.408 202.828H178.842V205.969H179.447V204.302C179.447 203.697 179.801 203.349 180.374 203.349H180.644V202.796Z" fill="#565F73"/>
<path opacity="0.5" d="M191.394 205.969V203.98C191.394 203.33 191.381 202.854 191.349 202.628L192.7 205.969H193.292L194.65 202.616C194.618 202.944 194.612 203.259 194.612 204.128V205.969H195.23V201.316H194.599L192.996 205.229L191.394 201.316H190.776V205.969H191.394ZM197.131 206.046C197.639 206.046 198.07 205.821 198.231 205.46L198.295 205.969H198.81V203.993C198.81 203.143 198.283 202.731 197.504 202.731C196.693 202.731 196.152 203.163 196.152 203.819H196.68C196.68 203.439 196.97 203.214 197.478 203.214C197.903 203.214 198.218 203.401 198.218 203.929V204.019L197.227 204.096C196.487 204.154 196.056 204.514 196.056 205.093C196.056 205.666 196.455 206.046 197.131 206.046ZM197.304 205.576C196.912 205.576 196.667 205.409 196.667 205.074C196.667 204.765 196.886 204.559 197.42 204.508L198.225 204.443V204.611C198.225 205.203 197.877 205.576 197.304 205.576ZM199.27 207.378C199.431 207.417 199.599 207.443 199.798 207.443C200.281 207.443 200.596 207.217 200.808 206.677L202.295 202.822H201.671L200.738 205.357L199.824 202.822H199.187L200.454 206.136L200.345 206.439C200.197 206.838 199.965 206.883 199.676 206.883H199.27V207.378Z" fill="#565F73"/>
<path opacity="0.5" d="M210.315 204.675C210.315 205.48 210.805 206.046 211.693 206.046C212.523 206.046 213.083 205.518 213.083 204.682V201.316H212.452V204.656C212.452 205.139 212.221 205.46 211.693 205.46C211.178 205.46 210.927 205.132 210.927 204.675V204.443H210.315V204.675ZM216.206 202.822V204.482C216.206 205.158 215.904 205.512 215.35 205.512C214.887 205.512 214.597 205.254 214.597 204.579V202.822H213.992V204.778C213.992 205.55 214.404 206.046 215.138 206.046C215.601 206.046 216.02 205.821 216.2 205.492L216.264 205.969H216.805V202.822H216.206ZM218.288 205.969V204.302C218.288 203.69 218.616 203.285 219.182 203.285C219.646 203.285 219.942 203.542 219.942 204.18V205.969H220.547V204.044C220.547 203.24 220.167 202.731 219.337 202.731C218.893 202.731 218.494 202.944 218.294 203.304L218.23 202.822H217.683V205.969H218.288ZM222.743 206.046C223.521 206.046 224.049 205.666 224.204 204.99H223.637C223.534 205.351 223.225 205.544 222.755 205.544C222.157 205.544 221.809 205.177 221.764 204.514L224.197 204.508V204.283C224.197 203.349 223.611 202.731 222.717 202.731C221.803 202.731 221.179 203.414 221.179 204.398C221.179 205.377 221.816 206.046 222.743 206.046ZM222.717 203.24C223.251 203.24 223.592 203.587 223.592 204.109H221.777C221.854 203.555 222.189 203.24 222.717 203.24Z" fill="#565F73"/>
<path opacity="0.5" d="M230.267 204.675C230.267 205.48 230.756 206.046 231.644 206.046C232.475 206.046 233.035 205.518 233.035 204.682V201.316H232.404V204.656C232.404 205.139 232.172 205.46 231.644 205.46C231.13 205.46 230.879 205.132 230.879 204.675V204.443H230.267V204.675ZM236.158 202.822V204.482C236.158 205.158 235.855 205.512 235.302 205.512C234.839 205.512 234.549 205.254 234.549 204.579V202.822H233.944V204.778C233.944 205.55 234.356 206.046 235.09 206.046C235.553 206.046 235.971 205.821 236.152 205.492L236.216 205.969H236.757V202.822H236.158ZM238.252 205.969V201.232H237.647V205.969H238.252Z" fill="#565F73"/>
<path opacity="0.6" d="M65.1184 193.396H65.6951V192.613C66.8844 192.504 67.6503 191.784 67.6503 190.711C67.6503 189.81 67.1277 189.243 66.0465 188.999L65.6951 188.918V186.684C66.2807 186.765 66.6321 187.134 66.6682 187.711H67.5422C67.4791 186.666 66.7853 185.999 65.6951 185.9V185.125H65.1184V185.909C63.9471 186.008 63.1812 186.738 63.1812 187.765C63.1812 188.693 63.7308 189.288 64.794 189.531L65.1184 189.603V191.847C64.4336 191.775 64.0101 191.396 63.9921 190.819H63.0911C63.1451 191.874 63.929 192.549 65.1184 192.622V193.396ZM64.9742 188.747C64.3435 188.594 64.0462 188.261 64.0462 187.738C64.0462 187.161 64.4516 186.774 65.1184 186.684V188.783L64.9742 188.747ZM65.8663 189.783C66.488 189.927 66.7853 190.261 66.7853 190.783C66.7853 191.351 66.3708 191.739 65.6951 191.829V189.747L65.8663 189.783ZM68.4446 189.27C68.4446 191.297 69.4447 192.64 71.1297 192.64C72.8056 192.64 73.8057 191.297 73.8057 189.27C73.8057 187.251 72.7605 185.882 71.1297 185.882C69.4898 185.882 68.4446 187.251 68.4446 189.27ZM69.3186 189.27C69.3186 187.648 69.9853 186.675 71.1297 186.675C72.274 186.675 72.9317 187.648 72.9317 189.27C72.9317 190.874 72.274 191.847 71.1297 191.847C69.9853 191.847 69.3186 190.874 69.3186 189.27Z" fill="#565F73"/>
<path d="M63.8067 72.2394C63.8067 74.51 65.1943 76.1859 67.8974 76.1859C70.4023 76.1859 72.0242 74.6001 72.0242 72.2754V62.7785H69.7175V72.1493C69.7175 73.3026 69.1769 74.0415 67.8794 74.0415C66.5819 74.0415 66.0233 73.2485 66.0233 72.2394V71.4645H63.8067V72.2394ZM74.0021 71.4825C74.0021 74.2577 76.0024 76.1679 78.7596 76.1679C81.5167 76.1679 83.5171 74.2577 83.5171 71.4825C83.5171 68.7073 81.5167 66.7971 78.7596 66.7971C76.0024 66.7971 74.0021 68.7073 74.0021 71.4825ZM76.2006 71.4825C76.2006 69.8606 77.2458 68.7614 78.7596 68.7614C80.2733 68.7614 81.3185 69.8606 81.3185 71.4825C81.3185 73.1044 80.2733 74.2036 78.7596 74.2036C77.2458 74.2036 76.2006 73.1044 76.2006 71.4825ZM87.2961 75.9517L87.4402 74.5641C87.9628 75.5912 89.0981 76.1859 90.4317 76.1859C92.9906 76.1859 94.6666 74.2937 94.6666 71.5546C94.6666 68.7434 93.1168 66.7611 90.5758 66.7611C89.2243 66.7611 88.0349 67.3558 87.4582 68.3469V62.5442H85.2597V75.9517H87.2961ZM87.4763 71.4645C87.4763 69.8606 88.4674 68.7434 89.9812 68.7434C91.5309 68.7434 92.45 69.8787 92.45 71.4645C92.45 73.0503 91.5309 74.1676 89.9812 74.1676C88.4674 74.1676 87.4763 73.0683 87.4763 71.4645ZM103.905 75.9517V71.032H106.735L108.969 75.9517H111.492L108.987 70.5454C110.537 69.9147 111.366 68.6533 111.366 66.8872C111.366 64.2922 109.618 62.7785 106.626 62.7785H101.599V75.9517H103.905ZM103.905 64.8328H106.626C108.086 64.8328 108.951 65.5717 108.951 66.8872C108.951 68.2208 108.086 68.9956 106.626 68.9956H103.905V64.8328ZM116.696 76.1859C119.02 76.1859 120.642 75.0146 121.021 73.0683H118.984C118.732 73.9153 117.939 74.3839 116.732 74.3839C115.272 74.3839 114.443 73.5909 114.281 72.0231L120.985 72.0051V71.3383C120.985 68.5631 119.291 66.7791 116.624 66.7791C114.011 66.7791 112.191 68.7073 112.191 71.5005C112.191 74.2577 114.047 76.1859 116.696 76.1859ZM116.642 68.5812C117.957 68.5812 118.804 69.3921 118.804 70.6175H114.335C114.551 69.284 115.344 68.5812 116.642 68.5812ZM124.88 75.9517H127.043L130.755 67.0494H128.484L126.862 71.1401C126.484 72.1132 126.16 73.0503 126.033 73.609C125.925 73.1224 125.619 72.2033 125.24 71.1401L123.691 67.0494H121.348L124.88 75.9517ZM135.561 76.1859C137.886 76.1859 139.508 75.0146 139.886 73.0683H137.85C137.598 73.9153 136.805 74.3839 135.597 74.3839C134.138 74.3839 133.309 73.5909 133.147 72.0231L139.85 72.0051V71.3383C139.85 68.5631 138.156 66.7791 135.489 66.7791C132.876 66.7791 131.056 68.7073 131.056 71.5005C131.056 74.2577 132.912 76.1859 135.561 76.1859ZM135.507 68.5812C136.823 68.5812 137.67 69.3921 137.67 70.6175H133.201C133.417 69.284 134.21 68.5812 135.507 68.5812ZM143.808 75.9517V71.1581C143.808 69.7165 144.637 68.7794 145.989 68.7794C147.124 68.7794 147.863 69.5002 147.863 70.996V75.9517H150.062V70.4733C150.062 68.1667 148.908 66.7791 146.674 66.7791C145.466 66.7791 144.385 67.3017 143.826 68.2027L143.646 67.0494H141.61V75.9517H143.808ZM158.259 67.0494V71.7168C158.259 73.4107 157.592 74.2217 156.204 74.2217C154.979 74.2217 154.312 73.5369 154.312 71.8429V67.0494H152.114V72.6178C152.114 74.7983 153.321 76.1859 155.375 76.1859C156.565 76.1859 157.718 75.6093 158.259 74.7623L158.421 75.9517H160.457V67.0494H158.259ZM166.534 76.1859C168.859 76.1859 170.481 75.0146 170.859 73.0683H168.823C168.571 73.9153 167.778 74.3839 166.571 74.3839C165.111 74.3839 164.282 73.5909 164.12 72.0231L170.823 72.0051V71.3383C170.823 68.5631 169.129 66.7791 166.462 66.7791C163.849 66.7791 162.029 68.7073 162.029 71.5005C162.029 74.2577 163.885 76.1859 166.534 76.1859ZM166.48 68.5812C167.796 68.5812 168.643 69.3921 168.643 70.6175H164.174C164.39 69.284 165.183 68.5812 166.48 68.5812Z" fill="#1C233E"/>
<rect x="236.487" y="61.8823" width="38.268" height="16.09" rx="3.47891" fill="#C5CDD6" fill-opacity="0.5"/>
<path d="M241.214 71.7959V70.2008C241.214 69.6468 241.208 69.2267 241.166 68.9588L242.292 71.7959H243.01L244.143 68.9528C244.1 69.2693 244.1 69.5311 244.1 70.4261V71.7959H244.855V67.3455H244.088L242.651 70.8888L241.214 67.3455H240.459V71.7959H241.214ZM245.554 70.2861C245.554 71.2236 246.23 71.869 247.161 71.869C248.093 71.869 248.768 71.2236 248.768 70.2861C248.768 69.3485 248.093 68.7031 247.161 68.7031C246.23 68.7031 245.554 69.3485 245.554 70.2861ZM246.297 70.2861C246.297 69.7381 246.65 69.3667 247.161 69.3667C247.673 69.3667 248.026 69.7381 248.026 70.2861C248.026 70.834 247.673 71.2054 247.161 71.2054C246.65 71.2054 246.297 70.834 246.297 70.2861ZM250.1 71.7959V70.1765C250.1 69.6894 250.38 69.3728 250.837 69.3728C251.22 69.3728 251.47 69.6164 251.47 70.1217V71.7959H252.212V69.9451C252.212 69.1658 251.823 68.6971 251.068 68.6971C250.66 68.6971 250.295 68.8736 250.106 69.178L250.045 68.7884H249.357V71.7959H250.1ZM253.965 71.7959V69.4094H254.549V68.7884H253.965V67.8508H253.222V68.7884H252.644V69.4094H253.222V71.7959H253.965ZM255.754 71.7959V70.1521C255.754 69.7016 256.028 69.3728 256.497 69.3728C256.874 69.3728 257.124 69.6164 257.124 70.1217V71.7959H257.867V69.9451C257.867 69.1658 257.477 68.6971 256.734 68.6971C256.302 68.6971 255.949 68.8858 255.76 69.178V67.2664H255.011V71.7959H255.754ZM259.345 71.7959V67.2664H258.608V71.7959H259.345ZM259.862 73.1901C260.027 73.2327 260.21 73.257 260.417 73.257C260.91 73.257 261.226 73.0257 261.451 72.4656L262.925 68.7884H262.158L261.342 70.9801L260.569 68.7884H259.783L260.995 71.9237L260.91 72.149C260.782 72.5021 260.599 72.5691 260.307 72.5691H259.862V73.1901Z" fill="#565F73"/>
<path d="M265.327 69.71L267.057 71.521C267.459 71.9409 268.14 71.905 268.494 71.4452L269.834 69.71" stroke="#565F73" stroke-width="0.434864"/>
<rect opacity="0.4" x="110.429" y="99.2109" width="164.118" height="0.772318" fill="#C5CDD6"/>
<rect opacity="0.4" x="110.429" y="122.381" width="164.118" height="0.772318" fill="#C5CDD6"/>
<rect opacity="0.4" x="110.429" y="145.55" width="164.118" height="0.772318" fill="#C5CDD6"/>
<rect opacity="0.4" x="110.429" y="168.72" width="164.118" height="0.772318" fill="#C5CDD6"/>
<rect opacity="0.4" x="110.429" y="191.889" width="164.118" height="0.772318" fill="#C5CDD6"/>
<rect x="110.429" y="155.204" width="8.36678" height="37.9723" rx="2.57439" fill="#416BF5"/>
<rect x="130.381" y="178.374" width="8.36678" height="14.8028" rx="2.57439" fill="#416BF5"/>
<rect x="150.332" y="138.471" width="8.36678" height="54.7059" rx="2.57439" fill="#416BF5"/>
<rect x="170.284" y="115.945" width="8.36678" height="77.2318" rx="2.57439" fill="#416BF5"/>
<rect x="190.235" y="160.997" width="8.36678" height="32.1799" rx="2.57439" fill="#416BF5"/>
<rect x="210.187" y="99.8545" width="8.36678" height="93.3218" rx="2.57439" fill="#416BF5"/>
<rect x="230.138" y="130.748" width="8.36678" height="62.4291" rx="2.57439" fill="#416BF5"/>
<rect x="295" y="40" width="217" height="186" rx="11.5848" fill="white"/>
<path d="M410.026 190.064C406.131 193.909 399.869 193.909 395.974 190.064L377.036 171.366C370.674 165.085 375.121 154.25 384.061 154.25H421.939C430.879 154.25 435.326 165.085 428.964 171.366L410.026 190.064Z" fill="#1C233E"/>
<rect x="325" y="72" width="157" height="106" rx="18" fill="#1C233E"/>
<path d="M360.576 107.04V110.16H357.6V114H353.88V110.16H345.72V107.04L353.64 96.12H357.6V107.04H360.576ZM349.344 107.04H353.88V100.608L349.344 107.04ZM367.823 114.288C366.863 114.288 365.967 114.128 365.135 113.808C364.303 113.472 363.583 113.016 362.975 112.44C362.383 111.848 361.943 111.16 361.655 110.376L364.607 108.696C364.863 109.368 365.279 109.912 365.855 110.328C366.431 110.728 367.087 110.928 367.823 110.928C368.655 110.928 369.327 110.672 369.839 110.16C370.351 109.632 370.607 108.952 370.607 108.12C370.607 107.288 370.351 106.616 369.839 106.104C369.327 105.592 368.655 105.336 367.823 105.336C366.719 105.336 365.959 105.84 365.543 106.848L362.615 106.128L364.295 96.12H373.919V99.24L366.815 99.216L366.239 102.744C366.847 102.392 367.607 102.216 368.519 102.216C369.671 102.216 370.679 102.456 371.543 102.936C372.423 103.416 373.103 104.08 373.583 104.928C374.079 105.776 374.327 106.76 374.327 107.88C374.327 109.096 374.039 110.192 373.463 111.168C372.903 112.128 372.135 112.888 371.159 113.448C370.183 114.008 369.071 114.288 367.823 114.288ZM381.761 104.928C380.929 104.928 380.169 104.728 379.481 104.328C378.793 103.912 378.241 103.36 377.825 102.672C377.409 101.984 377.201 101.224 377.201 100.392C377.201 99.544 377.401 98.776 377.801 98.088C378.217 97.4 378.769 96.856 379.457 96.456C380.161 96.04 380.929 95.832 381.761 95.832C382.609 95.832 383.377 96.04 384.065 96.456C384.753 96.856 385.297 97.4 385.697 98.088C386.113 98.776 386.321 99.544 386.321 100.392C386.321 101.224 386.113 101.984 385.697 102.672C385.281 103.36 384.729 103.912 384.041 104.328C383.353 104.728 382.593 104.928 381.761 104.928ZM382.217 114L390.137 96.12H393.545L385.625 114H382.217ZM381.761 102.096C382.241 102.096 382.641 101.928 382.961 101.592C383.297 101.256 383.465 100.856 383.465 100.392C383.465 99.912 383.297 99.512 382.961 99.192C382.641 98.856 382.241 98.688 381.761 98.688C381.281 98.688 380.873 98.856 380.537 99.192C380.217 99.512 380.057 99.912 380.057 100.392C380.057 100.872 380.217 101.28 380.537 101.616C380.873 101.936 381.281 102.096 381.761 102.096ZM394.337 114.288C393.505 114.288 392.745 114.088 392.057 113.688C391.369 113.272 390.817 112.72 390.401 112.032C390.001 111.328 389.801 110.56 389.801 109.728C389.801 108.896 390.001 108.136 390.401 107.448C390.817 106.76 391.369 106.216 392.057 105.816C392.745 105.4 393.505 105.192 394.337 105.192C395.185 105.192 395.953 105.4 396.641 105.816C397.329 106.216 397.873 106.76 398.273 107.448C398.689 108.136 398.897 108.896 398.897 109.728C398.897 110.56 398.689 111.328 398.273 112.032C397.873 112.72 397.329 113.272 396.641 113.688C395.953 114.088 395.185 114.288 394.337 114.288ZM394.337 111.432C394.817 111.432 395.217 111.272 395.537 110.952C395.873 110.616 396.041 110.208 396.041 109.728C396.041 109.264 395.873 108.864 395.537 108.528C395.217 108.192 394.817 108.024 394.337 108.024C393.857 108.024 393.449 108.192 393.113 108.528C392.793 108.864 392.633 109.264 392.633 109.728C392.633 110.208 392.793 110.616 393.113 110.952C393.449 111.272 393.857 111.432 394.337 111.432Z" fill="#F5F7FB"/>
<circle cx="443.5" cy="103.5" r="8.5" fill="#00CA00"/>
<path d="M439.9 105.37H447.16C447.289 105.37 447.415 105.332 447.521 105.26C447.628 105.189 447.712 105.087 447.761 104.969C447.81 104.85 447.823 104.719 447.798 104.593C447.773 104.467 447.711 104.351 447.62 104.261L443.99 100.63C443.868 100.508 443.702 100.44 443.53 100.44C443.358 100.44 443.192 100.508 443.071 100.63L439.44 104.261C439.349 104.351 439.288 104.467 439.262 104.593C439.237 104.719 439.25 104.85 439.299 104.969C439.349 105.087 439.432 105.189 439.539 105.26C439.646 105.332 439.771 105.37 439.9 105.37Z" fill="white"/>
<rect x="345" y="138" width="107" height="18" rx="9" fill="#565F73"/>
<defs>
<clipPath id="clip0_56_3057">
<rect width="17.1698" height="17.1698" fill="white" transform="translate(478.104 264.17)"/>
</clipPath>
<clipPath id="clip1_56_3057">
<rect width="17.1698" height="17.1698" fill="white" transform="translate(478.104 338)"/>
</clipPath>
<clipPath id="clip2_56_3057">
<rect width="17.1698" height="17.1698" fill="white" transform="translate(478.104 411.83)"/>
</clipPath>
<clipPath id="clip3_56_3057">
<rect width="17.1698" height="17.1698" fill="white" transform="translate(478.104 485.66)"/>
</clipPath>
</defs>
</svg>
