<svg width="67" height="56" viewBox="0 0 67 56" fill="none" xmlns="http://www.w3.org/2000/svg">
<path d="M29.8916 0.707005L4.93404 11.034C3.54617 11.6083 3.56055 13.58 4.95712 14.1336L30.0187 24.0719C32.2206 24.9452 34.6729 24.9452 36.8748 24.0719L61.9368 14.1332C63.333 13.58 63.3481 11.6087 61.9595 11.0343L37.0027 0.706627C34.7258 -0.235542 32.1681 -0.235542 29.8912 0.706627" fill="#FCB400"/>
<path d="M35.6704 29.4988V54.3265C35.6704 55.507 36.8611 56.316 37.9588 55.8809L65.885 45.0412C66.1965 44.9178 66.4637 44.7036 66.6519 44.4264C66.8402 44.1493 66.9408 43.8219 66.9407 43.4869V18.6595C66.9407 17.4786 65.75 16.67 64.6523 17.1052L36.7261 27.9448C36.4147 28.0684 36.1475 28.2826 35.9593 28.5597C35.7711 28.8369 35.6704 29.1642 35.6704 29.4992" fill="#18BFFF"/>
<path d="M29.1491 30.7799L20.8612 34.7816L20.0197 35.1883L2.52451 43.5712C1.41587 44.1062 0 43.298 0 42.066V18.7635C0 18.3178 0.228538 17.933 0.53502 17.6435C0.660753 17.5183 0.803397 17.4114 0.958798 17.3257C1.37652 17.0748 1.97284 17.0079 2.47986 17.2084L29.0099 27.7204C30.3584 28.2554 30.4644 30.145 29.1491 30.7803" fill="#F82B60"/>
</svg>
