<svg width="56" height="56" viewBox="0 0 56 56" fill="none" xmlns="http://www.w3.org/2000/svg">
<g clip-path="url(#clip0_81_1864)">
<path d="M48.2092 45.2116C25.5405 56 11.4721 46.9737 2.46643 41.4913C1.90917 41.1458 0.962006 41.5721 1.7838 42.516C4.78403 46.1538 14.6164 54.9221 27.4506 54.9221C40.2936 54.9221 47.9339 47.9144 48.8897 46.6919C49.839 45.4798 49.1685 44.8112 48.209 45.2116H48.2092ZM54.5757 41.6957C53.9669 40.903 50.8741 40.7552 48.9276 40.9943C46.9782 41.2265 44.052 42.418 44.3064 43.1334C44.437 43.4013 44.7034 43.2811 46.0426 43.1607C47.3855 43.0267 51.1474 42.552 51.9313 43.5767C52.7189 44.6085 50.7315 49.5237 50.3685 50.3164C50.0178 51.1091 50.5025 51.3136 51.1612 50.7856C51.8109 50.2578 52.987 48.8911 53.7763 46.9569C54.5602 45.0122 55.0382 42.2993 54.5755 41.6957H54.5757Z" fill="#FF9900"/>
<path fill-rule="evenodd" clip-rule="evenodd" d="M32.967 23.198C32.967 26.0287 33.0385 28.3894 31.6078 30.9032C30.4529 32.9472 28.6237 34.2041 26.5799 34.2041C23.7899 34.2041 22.165 32.0785 22.165 28.9412C22.165 22.7482 27.714 21.6242 32.967 21.6242V23.198ZM40.2942 40.9081C39.8138 41.3372 39.1189 41.368 38.5774 41.0818C36.1656 39.0789 35.7363 38.1489 34.4079 36.2378C30.4224 40.3052 27.6018 41.5212 22.4309 41.5212C16.3197 41.5212 11.5574 37.7502 11.5574 30.1982C11.5574 24.3017 14.7562 20.2854 19.3035 18.3234C23.2483 16.5859 28.7566 16.2794 32.967 15.7993V14.859C32.967 13.1318 33.0997 11.088 32.0881 9.5961C31.1989 8.25732 29.5026 7.70544 28.0104 7.70544C25.2411 7.70544 22.768 9.12586 22.165 12.069C22.0423 12.7232 21.5621 13.3671 20.9081 13.3977L13.8567 12.6416C13.2641 12.5084 12.6101 12.0283 12.7736 11.1186C14.3984 2.57545 22.1138 0 29.022 0C32.5579 0 37.177 0.940266 39.967 3.61782C43.5029 6.91855 43.1656 11.323 43.1656 16.1159V27.439C43.1656 30.842 44.5759 32.3339 45.9043 34.1736C46.3744 34.8275 46.4767 35.6146 45.8839 36.1049C44.4021 37.3414 41.7654 39.6409 40.3144 40.9286L40.294 40.9081" fill="black"/>
<path d="M48.2092 45.2116C25.5405 56 11.4721 46.9737 2.46643 41.4913C1.90917 41.1458 0.962006 41.5721 1.7838 42.516C4.78403 46.1538 14.6164 54.9221 27.4506 54.9221C40.2936 54.9221 47.9339 47.9144 48.8897 46.6919C49.839 45.4798 49.1685 44.8112 48.209 45.2116H48.2092ZM54.5757 41.6957C53.9669 40.903 50.8741 40.7552 48.9276 40.9943C46.9782 41.2265 44.052 42.418 44.3064 43.1334C44.437 43.4013 44.7034 43.2811 46.0426 43.1607C47.3855 43.0267 51.1474 42.552 51.9313 43.5767C52.7189 44.6085 50.7315 49.5237 50.3685 50.3164C50.0178 51.1091 50.5025 51.3136 51.1612 50.7856C51.8109 50.2578 52.987 48.8911 53.7763 46.9569C54.5602 45.0122 55.0382 42.2993 54.5755 41.6957H54.5757Z" fill="#FF9900"/>
<path fill-rule="evenodd" clip-rule="evenodd" d="M32.967 23.198C32.967 26.0287 33.0385 28.3894 31.6078 30.9032C30.4529 32.9472 28.6237 34.2041 26.5799 34.2041C23.7899 34.2041 22.165 32.0785 22.165 28.9412C22.165 22.7482 27.714 21.6242 32.967 21.6242V23.198ZM40.2942 40.9081C39.8138 41.3372 39.1189 41.368 38.5774 41.0818C36.1656 39.0789 35.7363 38.1489 34.4079 36.2378C30.4224 40.3052 27.6018 41.5212 22.4309 41.5212C16.3197 41.5212 11.5574 37.7502 11.5574 30.1982C11.5574 24.3017 14.7562 20.2854 19.3035 18.3234C23.2483 16.5859 28.7566 16.2794 32.967 15.7993V14.859C32.967 13.1318 33.0997 11.088 32.0881 9.5961C31.1989 8.25732 29.5026 7.70544 28.0104 7.70544C25.2411 7.70544 22.768 9.12586 22.165 12.069C22.0423 12.7232 21.5621 13.3671 20.9081 13.3977L13.8567 12.6416C13.2641 12.5084 12.6101 12.0283 12.7736 11.1186C14.3984 2.57545 22.1138 0 29.022 0C32.5579 0 37.177 0.940266 39.967 3.61782C43.5029 6.91855 43.1656 11.323 43.1656 16.1159V27.439C43.1656 30.842 44.5759 32.3339 45.9043 34.1736C46.3744 34.8275 46.4767 35.6146 45.8839 36.1049C44.4021 37.3414 41.7654 39.6409 40.3144 40.9286L40.294 40.9081" fill="black"/>
</g>
<defs>
<clipPath id="clip0_81_1864">
<rect width="56" height="56" fill="white"/>
</clipPath>
</defs>
</svg>
