<svg width="56" height="56" viewBox="0 0 56 56" fill="none" xmlns="http://www.w3.org/2000/svg">
<path d="M3.81828 49.843H12.7273V28.2066L0 18.6611V46.0249C0 48.1344 1.70866 49.8432 3.81828 49.8432V49.843Z" fill="#4285F4"/>
<path d="M43.2727 49.843H52.1818C54.2914 49.843 56 48.1343 56 46.0248V18.6611L43.2727 28.2066V49.843Z" fill="#34A853"/>
<path d="M43.2727 11.6614V28.2069L56 18.6614V13.5706C56 8.85193 50.6133 6.15693 46.8364 8.98876L43.2727 11.6614Z" fill="#FBBC04"/>
<path fill-rule="evenodd" clip-rule="evenodd" d="M12.7273 28.2071V11.6616L28 23.1162L43.2727 11.6616V28.2071L28 39.6616L12.7273 28.2071Z" fill="#EA4335"/>
<path d="M0 13.5706V18.6614L12.7273 28.2069V11.6614L9.16366 8.98876C5.38672 6.15693 0 8.85193 0 13.5704V13.5706Z" fill="#C5221F"/>
</svg>
