<svg width="135" height="129" viewBox="0 0 135 129" fill="none" xmlns="http://www.w3.org/2000/svg">
<path fill-rule="evenodd" clip-rule="evenodd" d="M89.2402 24.2852C87.9197 23.8008 81.6141 21.4427 75.2087 18.9535C60.0214 13.1363 58.2454 13.4125 60.5384 20.9358C61.7864 25.0754 83.332 35.9831 96.459 39.1482C105.76 41.419 99.1433 27.8357 89.2402 24.2852ZM113.53 36.7865C109.343 35.9606 108.624 36.7559 109.902 40.5002C111.584 45.4268 122.977 50.119 124.234 46.3894C125.167 43.3207 119.135 37.8985 113.53 36.7865ZM105.15 61.8698C86.835 56.0751 94.5959 68.4978 97.5685 69.7934L105.364 73.2932C119.633 79.6438 124.787 77.4995 117.74 68.1337C115.479 65.055 115.809 65.2173 105.15 61.8698ZM43.9923 36.7601C31.7616 34.6092 29.3968 35.4165 31.8739 41.0617C33.3467 44.4095 35.1309 45.2856 45.9509 48.1381C55.5176 50.7032 57.1903 49.8022 55.0041 43.3976C53.5926 39.4238 51.4431 38.1223 43.9923 36.7601ZM67.8113 70.7649C59.8247 68.1554 55.8881 70.1592 58.5599 75.408C60.697 79.5741 79.4122 86.0573 80.8399 83.1497C83.1114 78.5238 78.5038 74.2109 67.8113 70.7649ZM88.4554 107.394C78.0427 106.217 82.12 114.617 93.4686 117.729C98.4502 119.109 100.257 118.602 100.171 115.771C100.012 111.92 94.6832 108.073 88.4554 107.394ZM42.6065 86.6844C13.0644 76.361 28.0656 92.9131 29.2551 93.4972C36.2587 96.7722 53.2545 102.247 55.4907 101.869C63.7445 100.427 56.107 91.4272 42.6065 86.6844ZM4.86362 76.0249C2.03269 76.1111 1.57722 76.8717 2.39154 80.2242C3.44368 84.5956 12.3915 88.0871 15.4005 85.2998C18.1476 82.7118 10.4606 75.9846 4.86362 76.0249Z" fill="#FDB513"/>
</svg>
