<svg width="133" height="133" viewBox="0 0 133 133" fill="none" xmlns="http://www.w3.org/2000/svg">
<path d="M43.3492 78.6012C42.0525 82.1922 40.7554 82.3587 39.2924 79.1667C38.1951 76.806 38.8272 70.6544 40.3567 68.5929C41.72 66.7309 38.927 65.7667 36.8655 67.3959C33.5072 70.0227 32.6425 78.3684 35.4354 81.5272C39.8909 86.6144 48.9681 83.6887 48.9681 77.1717C48.9681 74.3455 44.4797 75.4757 43.3492 78.6012Z" fill="#B1B8C4"/>
<path d="M65.1609 53.6305C63.0994 49.973 59.6746 50.7045 60.7054 54.5947C61.8691 58.9172 59.9739 62.9072 57.5466 61.278C55.4851 59.8815 54.7869 57.8865 54.7536 53.0985C55.1194 50.0727 53.9224 47.2132 52.4594 49.4742C47.5716 57.0885 50.7636 64.4038 59.0429 64.3705C64.7619 64.3373 67.9871 58.6512 65.1609 53.6305Z" fill="#B1B8C4"/>
<path d="M99.6743 59.8148C99.0093 60.3135 99.0426 60.912 99.8406 65.0683C100.672 69.3908 98.8763 71.1866 95.1191 69.8566C91.7276 68.6264 90.7966 70.621 94.0883 72.084C97.2803 73.4805 103.365 72.2835 104.795 69.956C107.422 65.6335 103.132 57.2213 99.6743 59.8148Z" fill="#B1B8C4"/>
<path d="M46.6074 42.2253C47.9042 37.5038 43.2162 36.207 41.5205 40.8288C40.4565 43.6883 38.3285 45.4176 35.868 45.4176C32.4763 45.4176 32.2435 39.3994 35.5684 35.7751C39.2924 31.6521 33.0416 31.9513 31.8778 32.716C28.1871 35.0436 26.4248 40.0644 28.0208 43.5889C30.9801 50.2056 44.6457 49.2078 46.6074 42.2253Z" fill="#B1B8C4"/>
<path d="M66.8234 91.7678C66.4244 92.2 65.8259 93.3305 65.4934 94.2615C63.5649 99.7145 59.0097 98.85 58.0122 92.865C57.6797 90.9033 55.6182 90.5708 54.9864 92.333C52.0937 100.579 66.1584 104.17 70.2814 96.2233C72.3429 92.1668 69.6497 88.7088 66.8234 91.7678Z" fill="#B1B8C4"/>
<path d="M83.7145 36.0739C83.6147 36.2069 83.7477 37.1382 84.047 38.1357C86.2747 45.9494 83.8142 48.9752 77.9622 45.6834C75.4685 44.2869 74.0055 44.9852 75.3687 46.9469C78.594 51.5354 88.9347 50.0059 90.1982 44.7524C91.362 39.8979 85.909 32.5495 83.7145 36.0739Z" fill="#B1B8C4"/>
<path d="M78.7269 70.1219C78.1284 70.5874 78.0619 71.0197 78.0619 73.9124C78.0619 79.9307 76.0669 80.9614 72.1434 76.9714C69.7162 74.5109 68.2532 74.4115 68.2532 76.6725C68.2532 82.325 80.0902 83.6883 82.8167 78.335C85.0112 73.9127 81.8857 67.6614 78.7269 70.1219Z" fill="#B1B8C4"/>
</svg>
