<svg width="56" height="56" viewBox="0 0 56 56" fill="none" xmlns="http://www.w3.org/2000/svg">
<path d="M11.7655 35.3876C11.7655 38.6254 9.12052 41.2704 5.88274 41.2704C2.64495 41.2704 0 38.6254 0 35.3876C0 32.1498 2.64495 29.5049 5.88274 29.5049H11.7655V35.3876Z" fill="#E01E5A"/>
<path d="M14.7297 35.3876C14.7297 32.1498 17.3747 29.5049 20.6125 29.5049C23.8503 29.5049 26.4952 32.1498 26.4952 35.3876V50.1173C26.4952 53.355 23.8503 56 20.6125 56C17.3747 56 14.7297 53.355 14.7297 50.1173V35.3876Z" fill="#E01E5A"/>
<path d="M20.6125 11.7655C17.3747 11.7655 14.7297 9.12052 14.7297 5.88274C14.7297 2.64495 17.3747 0 20.6125 0C23.8503 0 26.4952 2.64495 26.4952 5.88274V11.7655H20.6125Z" fill="#36C5F0"/>
<path d="M20.6124 14.7295C23.8502 14.7295 26.4951 17.3744 26.4951 20.6122C26.4951 23.85 23.8502 26.495 20.6124 26.495H5.88274C2.64495 26.495 0 23.85 0 20.6122C0 17.3744 2.64495 14.7295 5.88274 14.7295H20.6124Z" fill="#36C5F0"/>
<path d="M44.2346 20.6122C44.2346 17.3744 46.8796 14.7295 50.1174 14.7295C53.3551 14.7295 56.0001 17.3744 56.0001 20.6122C56.0001 23.85 53.3551 26.495 50.1174 26.495H44.2346V20.6122Z" fill="#2EB67D"/>
<path d="M41.2704 20.6124C41.2704 23.8502 38.6254 26.4951 35.3876 26.4951C32.1498 26.4951 29.5049 23.8502 29.5049 20.6124V5.88274C29.5049 2.64495 32.1498 0 35.3876 0C38.6254 0 41.2704 2.64495 41.2704 5.88274V20.6124Z" fill="#2EB67D"/>
<path d="M35.3876 44.2344C38.6254 44.2344 41.2704 46.8793 41.2704 50.1171C41.2704 53.3549 38.6254 55.9998 35.3876 55.9998C32.1498 55.9998 29.5049 53.3549 29.5049 50.1171V44.2344H35.3876Z" fill="#ECB22E"/>
<path d="M35.3876 41.2704C32.1498 41.2704 29.5049 38.6254 29.5049 35.3876C29.5049 32.1498 32.1498 29.5049 35.3876 29.5049H50.1173C53.355 29.5049 56 32.1498 56 35.3876C56 38.6254 53.355 41.2704 50.1173 41.2704H35.3876Z" fill="#ECB22E"/>
</svg>
