<svg width="56" height="56" viewBox="0 0 56 56" fill="none" xmlns="http://www.w3.org/2000/svg">
<path d="M34.9998 28.0122C35.0007 30.0315 34.6365 32.0342 33.9246 33.9238C32.0344 34.6355 30.0312 35.0003 28.0114 35.0007H27.9878C25.9079 34.998 23.9151 34.6178 22.0763 33.9246C21.3639 32.0349 20.9993 30.0318 21 28.0122V27.9878C20.999 25.9689 21.3629 23.9665 22.0741 22.0771C23.9642 21.364 25.9678 20.9991 27.988 21H28.0116C30.0315 20.999 32.0349 21.3639 33.9248 22.0769C34.6368 23.9661 35.001 25.9686 35 27.9875V28.012L34.9998 28.0122ZM55.6111 23.3334H39.2669L50.8233 11.7762C49.9162 10.502 48.9044 9.30574 47.7984 8.19984V8.19897C46.6924 7.09425 45.4964 6.08336 44.2229 5.17672L32.6657 16.7339V0.389812C31.1286 0.131234 29.5727 0.000848072 28.014 0L27.9851 0C26.3996 0.000875 24.8467 0.135625 23.3334 0.389812V16.7339L11.7762 5.17672C10.5025 6.08312 9.30707 7.09473 8.20247 8.20094L8.19634 8.20531C7.09221 9.30983 6.08183 10.5042 5.17562 11.7762L16.7337 23.3334H0.389812C0.389812 23.3334 0 26.4031 0 27.9904V28.0096C0 29.5969 0.134531 31.1524 0.389812 32.6666H16.7339L5.17584 44.2238C6.99402 46.7753 9.22469 49.006 11.7762 50.8242L23.3334 39.2661V55.6111C24.8688 55.8684 26.4228 55.9984 27.9797 56H28.0192C29.5761 55.9986 31.1301 55.8685 32.6655 55.6111V39.2661L44.2238 50.8242C45.497 49.9172 46.6927 48.906 47.7984 47.801L47.801 47.7984C48.9055 46.6925 49.9164 45.4968 50.8233 44.2238L39.2652 32.6666H55.6111C55.8655 31.155 55.9982 29.6041 56 28.0203V27.9797C55.9982 26.3959 55.8655 24.845 55.6111 23.3334Z" fill="#FF4A00"/>
</svg>
