<svg width="56" height="56" viewBox="0 0 56 56" fill="none" xmlns="http://www.w3.org/2000/svg">
<path d="M28 56C43.464 56 56 43.464 56 28C56 12.536 43.464 0 28 0C12.536 0 0 12.536 0 28C0 43.464 12.536 56 28 56Z" fill="#4A8CFF"/>
<path d="M10.0347 19.2338V32.3921C10.0416 33.8193 10.6148 35.1854 11.6284 36.1901C12.642 37.1948 14.0131 37.756 15.4403 37.7503H34.6206C34.8799 37.7516 35.1291 37.6499 35.3136 37.4677C35.498 37.2855 35.6026 37.0375 35.6045 36.7783V23.6199C35.5976 22.1927 35.0244 20.8267 34.0108 19.822C32.9972 18.8173 31.6261 18.2561 30.1989 18.2617H11.0245C10.8956 18.2603 10.7677 18.2844 10.6482 18.3325C10.5286 18.3807 10.4197 18.4519 10.3277 18.5422C10.2358 18.6325 10.1625 18.7401 10.1123 18.8588C10.062 18.9775 10.0356 19.1049 10.0347 19.2338ZM36.8255 24.3667L44.7442 18.5818C45.4318 18.0116 45.9652 18.1551 45.9652 19.1864V36.8257C45.9652 37.9993 45.3132 37.857 44.7442 37.4291L36.8255 31.6572V24.3667Z" fill="white"/>
</svg>
