<svg width="197" height="197" viewBox="0 0 197 197" fill="none" xmlns="http://www.w3.org/2000/svg">
<path d="M125.425 92.6469C125.144 91.7768 124.544 87.7074 124.082 83.5837C122.841 72.1838 122.196 73.1521 113.761 65.6959C110.82 63.1089 108.664 63.7418 103.244 62.6915C90.1418 60.1574 90.8741 72.4715 99.5611 78.6082C106.792 83.7071 109.217 87.0688 112.097 96.093C114.752 104.43 116.648 106.656 120.831 106.423C125.386 106.17 127.631 99.6107 125.425 92.6469ZM115.102 94.8068C112.294 85.4056 108.73 79.1701 103.868 75.5711C96.2315 69.8888 94.576 67.7897 97.4861 67.3013C98.963 67.0326 107.616 69.2083 109.021 70.1558L113.721 73.3442C120.309 77.7796 120.058 77.4671 120.932 85.624C121.335 89.5178 121.937 93.6337 122.231 94.7362C124.169 101.901 117.161 101.639 115.102 94.8068Z" fill="#565F73"/>
<path d="M123.098 157.209C126.568 154.219 132.282 149.658 135.729 147.089C156.227 131.728 159.278 121.208 150.617 95.4414C147.153 85.1442 147.173 83.8377 151.873 66.9319C157.892 45.2438 141.847 21.6604 122.306 28.2497C109.995 32.3852 110.183 32.4213 97.9539 29.6521C80.7693 25.8067 73.5833 26.5331 62.4886 33.2583C29.1608 53.483 32.8922 97.0536 68.7412 107.04C79.8706 110.15 82.7367 111.389 86.3701 114.683C92.7538 120.482 93.0149 122.659 87.9471 130.447C80.7752 141.476 79.307 151.116 83.4421 160.07C89.8035 173.842 104.945 172.813 123.098 157.209ZM90.7338 136.12C101.321 119.446 93.8316 106.342 70.0261 99.9747C55.4495 96.0774 52.0098 93.7514 46.5371 84.2188C37.1904 67.9085 48.5156 46.0648 71.0798 36.8362C79.4688 33.4319 86.8461 33.6274 102.461 37.7466C110.032 39.7495 111.803 39.744 117.801 37.7783C126.913 34.8 127.974 34.6011 131.595 35.1455C147.299 37.5347 151.794 50.432 147.171 67.893C143.044 83.3682 143.205 87.0891 148.343 102.328C154.087 119.259 151.599 126.484 135.94 138.312C128.87 143.647 125.212 146.602 119.434 151.679C96.0961 172.14 75.0863 160.722 90.7338 136.12Z" fill="#565F73"/>
<path d="M128.045 126.303C136.588 113.938 142.114 116.055 139.602 96.0542C138.423 86.6089 136.704 90.9006 134.099 72.5832C132.192 59.2622 128.87 48.1645 115.298 48.9201C111.441 49.1349 109.429 49.0137 106.924 48.4072C88.2547 43.852 68.0713 53.1345 68.8268 65.8669C69.3339 74.1375 73.5587 78.8443 86.119 85.0451C93.7419 88.8167 99.7358 94.3107 101.714 99.702C101.993 100.526 102.652 105.664 103.144 111.138C104.584 126.956 107.363 131.65 116.37 133.48C121.18 134.471 123.3 133.187 128.045 126.303ZM104.907 108.476C104.027 92.6732 100.345 87.6565 84.5075 80.3793C56.5156 67.4848 74.7012 45.7721 106.021 54.7982C110.617 56.1274 111.088 56.1945 114.741 55.6647C124.318 54.3389 128.794 60.1973 131.373 77.2107C132.84 86.8264 133.806 89.1038 135.852 94.8643C136.952 97.8801 137.48 103.166 137.077 105.985C136.711 108.617 130.034 114.303 124.641 122.11C115.453 135.442 106.094 128.97 104.907 108.476Z" fill="#565F73"/>
</svg>
