<svg width="140" height="40" viewBox="0 0 140 40" fill="none" xmlns="http://www.w3.org/2000/svg">
<path d="M50.2714 31.2544V11.4157H54.4161V31.2544H50.2714Z" fill="#C5CDD6"/>
<path d="M57.3679 31.2544V16.7149H61.1114V18.499C61.4858 17.7889 62.0295 17.2652 62.7426 16.9279C63.4556 16.5729 64.2756 16.3953 65.2026 16.3953C66.3079 16.3953 67.2705 16.6261 68.0905 17.0877C68.9283 17.5493 69.579 18.1972 70.0425 19.0316C70.506 19.8482 70.7377 20.8069 70.7377 21.9076V31.2544H66.7268V22.7597C66.7268 21.9253 66.4772 21.2596 65.9781 20.7625C65.4789 20.2477 64.8372 19.9903 64.0528 19.9903C63.2684 19.9903 62.6267 20.2477 62.1275 20.7625C61.6284 21.2596 61.3788 21.9253 61.3788 22.7597V31.2544H57.3679Z" fill="#C5CDD6"/>
<path d="M74.2899 31.2544V20.1767H71.8031V16.7149H74.2899V16.2888C74.2899 14.5668 74.798 13.2353 75.8141 12.2944C76.8302 11.3536 78.2474 10.8831 80.0657 10.8831C80.6005 10.8831 81.0729 10.9275 81.4829 11.0163V14.4248C81.1442 14.3715 80.8501 14.3449 80.6005 14.3449C79.0674 14.3449 78.3009 14.9929 78.3009 16.2888V16.7149H81.4562V20.1767H78.3009V31.2544H74.2899Z" fill="#C5CDD6"/>
<path d="M89.8338 31.5739C88.3899 31.5739 87.0707 31.2455 85.8764 30.5886C84.6998 29.9318 83.7639 29.0353 83.0687 27.8991C82.3735 26.7452 82.0258 25.4404 82.0258 23.9846C82.0258 22.5112 82.3735 21.2063 83.0687 20.0702C83.7639 18.934 84.6998 18.0375 85.8764 17.3806C87.0707 16.7238 88.3899 16.3953 89.8338 16.3953C91.2778 16.3953 92.588 16.7238 93.7646 17.3806C94.9589 18.0375 95.9037 18.934 96.599 20.0702C97.2942 21.2063 97.6418 22.5112 97.6418 23.9846C97.6418 25.4404 97.2942 26.7452 96.599 27.8991C95.9037 29.0353 94.9589 29.9318 93.7646 30.5886C92.588 31.2455 91.2778 31.5739 89.8338 31.5739ZM89.8338 27.979C90.9391 27.979 91.8215 27.6062 92.4811 26.8606C93.1585 26.115 93.4972 25.1563 93.4972 23.9846C93.4972 22.8307 93.1585 21.8809 92.4811 21.1353C91.8215 20.3719 90.9391 19.9903 89.8338 19.9903C88.7464 19.9903 87.864 20.3719 87.1866 21.1353C86.5092 21.8809 86.1705 22.8307 86.1705 23.9846C86.1705 25.1563 86.5092 26.115 87.1866 26.8606C87.864 27.6062 88.7464 27.979 89.8338 27.979Z" fill="#C5CDD6"/>
<path d="M106.259 31.4142C104.494 31.4142 103.121 30.9437 102.141 30.0028C101.178 29.0442 100.697 27.7127 100.697 26.0084V20.1767H98.1835V16.7149H98.3707C99.9216 16.7149 100.697 15.9693 100.697 14.478V12.3477H104.708V16.7149H108.131V20.1767H104.708V26.0084C104.708 27.4819 105.537 28.2187 107.195 28.2187C107.444 28.2187 107.756 28.192 108.131 28.1388V31.281C107.542 31.3698 106.918 31.4142 106.259 31.4142Z" fill="#C5CDD6"/>
<path d="M117.017 31.5739C115.573 31.5739 114.254 31.2455 113.06 30.5886C111.883 29.9318 110.948 29.0353 110.252 27.8991C109.557 26.7452 109.209 25.4404 109.209 23.9846C109.209 22.5112 109.557 21.2063 110.252 20.0702C110.948 18.934 111.883 18.0375 113.06 17.3806C114.254 16.7238 115.573 16.3953 117.017 16.3953C118.461 16.3953 119.772 16.7238 120.948 17.3806C122.143 18.0375 123.087 18.934 123.783 20.0702C124.478 21.2063 124.825 22.5112 124.825 23.9846C124.825 25.4404 124.478 26.7452 123.783 27.8991C123.087 29.0353 122.143 29.9318 120.948 30.5886C119.772 31.2455 118.461 31.5739 117.017 31.5739ZM117.017 27.979C118.123 27.979 119.005 27.6062 119.665 26.8606C120.342 26.115 120.681 25.1563 120.681 23.9846C120.681 22.8307 120.342 21.8809 119.665 21.1353C119.005 20.3719 118.123 19.9903 117.017 19.9903C115.93 19.9903 115.048 20.3719 114.37 21.1353C113.693 21.8809 113.354 22.8307 113.354 23.9846C113.354 25.1563 113.693 26.115 114.37 26.8606C115.048 27.6062 115.93 27.979 117.017 27.979Z" fill="#C5CDD6"/>
<path d="M124.999 31.2544L130.133 23.958L124.972 16.7149H129.625L132.486 20.869L135.347 16.7149H140L134.839 23.958L139.947 31.2544H135.294L132.486 27.0736L129.678 31.2544H124.999Z" fill="#C5CDD6"/>
<path d="M1.05319e-07 21.878V28.1824C-0.000148034 28.7897 0.155982 29.3868 0.45349 29.9169C0.750998 30.447 1.17995 30.8923 1.69942 31.2103L15.6814 39.7685C15.925 39.9152 16.2034 39.9951 16.4881 39.9998C16.7729 40.0045 17.0538 39.934 17.3022 39.7954C17.5506 39.6568 17.7578 39.4551 17.9024 39.2109C18.0471 38.9666 18.1242 38.6885 18.1258 38.4049V31.4629C18.1252 31.0183 18.0073 30.5817 17.784 30.1967C17.5606 29.8117 17.2397 29.4919 16.8533 29.2692L2.07796 20.691C1.86814 20.5689 1.62969 20.5041 1.3867 20.5032C1.1437 20.5022 0.904755 20.5651 0.693975 20.6856C0.483195 20.806 0.308043 20.9796 0.186197 21.189C0.0643514 21.3984 0.000124507 21.6361 1.05319e-07 21.878Z" fill="#416BF5"/>
<path d="M6.75741 11.3748V20.0252L20.0467 27.9859C20.3477 28.1659 20.5968 28.4205 20.7697 28.7248C20.9425 29.0291 21.0334 29.3728 21.0333 29.7224V37.7192L24.8913 35.4613V21.1441C24.8915 20.7034 24.7755 20.2704 24.5551 19.8882C24.3346 19.5061 24.0173 19.1883 23.6348 18.9665L8.66221 10.284C8.46955 10.1727 8.25089 10.1139 8.02819 10.1135C7.80549 10.1132 7.58662 10.1711 7.39357 10.2817C7.20051 10.3923 7.04009 10.5515 6.92842 10.7434C6.81675 10.9352 6.75777 11.153 6.75741 11.3748Z" fill="#416BF5"/>
<path d="M13.2047 1.17631V9.65432L26.6108 17.639C26.9115 17.8193 27.1604 18.074 27.3332 18.3782C27.5061 18.6824 27.5971 19.026 27.5975 19.3755V33.8451L30.9037 31.9201C30.9988 31.8649 31.0779 31.7859 31.133 31.691C31.1881 31.596 31.2173 31.4884 31.2178 31.3787L31.2903 11.0499C31.2899 10.6109 31.1741 10.1796 30.9543 9.79894C30.7346 9.4183 30.4186 9.10159 30.0378 8.88031L14.9887 0.145639C14.8067 0.0472882 14.6024 -0.00282052 14.3953 0.000122554C14.1883 0.00306563 13.9854 0.0589617 13.8063 0.162445C13.6272 0.265929 13.4778 0.413526 13.3724 0.591069C13.2671 0.768613 13.2093 0.970142 13.2047 1.17631Z" fill="#416BF5"/>
</svg>
