<svg width="140" height="40" viewBox="0 0 140 40" fill="none" xmlns="http://www.w3.org/2000/svg">
<path d="M1.11316e-07 21.878V28.1824C-0.000156463 28.7897 0.164864 29.3868 0.479311 29.9169C0.793758 30.447 1.24714 30.8922 1.79618 31.2103L16.5742 39.7685C16.8318 39.9152 17.126 39.995 17.4269 39.9998C17.7279 40.0045 18.0248 39.934 18.2874 39.7954C18.5499 39.6568 18.7689 39.4551 18.9218 39.2109C19.0747 38.9666 19.1562 38.6885 19.1579 38.4049V31.4629C19.1572 31.0183 19.0326 30.5817 18.7965 30.1967C18.5605 29.8117 18.2213 29.4919 17.8128 29.2692L2.19628 20.691C1.97451 20.5689 1.72249 20.5041 1.46565 20.5032C1.20882 20.5022 0.95627 20.5651 0.733489 20.6856C0.510707 20.806 0.325582 20.9796 0.196799 21.189C0.0680154 21.3984 0.000131596 21.6361 1.11316e-07 21.878Z" fill="#416BF5"/>
<path d="M7.14218 11.3748V20.0252L21.1882 27.9859C21.5063 28.1659 21.7695 28.4205 21.9523 28.7248C22.135 29.0291 22.231 29.3728 22.231 29.7224V37.7192L26.3085 35.4613V21.1441C26.3088 20.7034 26.1862 20.2704 25.9532 19.8882C25.7202 19.5061 25.3848 19.1883 24.9806 18.9665L9.15543 10.284C8.95181 10.1727 8.72069 10.1139 8.48531 10.1135C8.24994 10.1132 8.0186 10.1712 7.81455 10.2817C7.61051 10.3923 7.44095 10.5515 7.32292 10.7434C7.20489 10.9352 7.14256 11.153 7.14218 11.3748Z" fill="#416BF5"/>
<path d="M13.9566 1.17631V9.65432L28.126 17.639C28.4438 17.8193 28.7068 18.074 28.8895 18.3782C29.0722 18.6824 29.1684 19.026 29.1688 19.3755V33.8451L32.6632 31.9201C32.7638 31.8649 32.8474 31.7859 32.9056 31.691C32.9638 31.596 32.9947 31.4884 32.9952 31.3787L33.0718 11.0499C33.0714 10.6109 32.949 10.1796 32.7168 9.79894C32.4846 9.4183 32.1506 9.10159 31.7481 8.88031L15.8421 0.145639C15.6497 0.0472882 15.4338 -0.00282052 15.2149 0.000122554C14.9961 0.00306563 14.7817 0.0589617 14.5924 0.162445C14.4031 0.265929 14.2452 0.413526 14.1338 0.591069C14.0225 0.768613 13.9614 0.970142 13.9566 1.17631Z" fill="#416BF5"/>
<path d="M46.3032 31.531V11.9309H50.6312V31.531H46.3032Z" fill="#1E2431"/>
<path d="M53.7135 31.531V17.1664H57.6226V18.929C58.0135 18.2275 58.5813 17.7101 59.3259 17.3768C60.0705 17.026 60.9268 16.8506 61.8947 16.8506C63.0488 16.8506 64.054 17.0787 64.9103 17.5347C65.7852 17.9907 66.4647 18.6309 66.9487 19.4552C67.4326 20.262 67.6746 21.2091 67.6746 22.2966V31.531H63.4863V23.1385C63.4863 22.3141 63.2257 21.6564 62.7045 21.1653C62.1833 20.6567 61.5131 20.4023 60.6941 20.4023C59.875 20.4023 59.2049 20.6567 58.6837 21.1653C58.1625 21.6564 57.9018 22.3141 57.9018 23.1385V31.531H53.7135Z" fill="#1E2431"/>
<path d="M71.3839 31.531V20.5865H68.7872V17.1664H71.3839V16.7454C71.3839 15.0441 71.9144 13.7287 72.9755 12.7991C74.0365 11.8695 75.5164 11.4047 77.4151 11.4047C77.9736 11.4047 78.4669 11.4486 78.895 11.5363V14.9038C78.5413 14.8512 78.2342 14.8249 77.9736 14.8249C76.3727 14.8249 75.5723 15.4651 75.5723 16.7454V17.1664H78.8671V20.5865H75.5723V31.531H71.3839Z" fill="#1E2431"/>
<path d="M87.6153 31.8467C86.1075 31.8467 84.73 31.5222 83.4828 30.8732C82.2542 30.2243 81.2769 29.3386 80.5509 28.216C79.825 27.076 79.462 25.7869 79.462 24.3487C79.462 22.8929 79.825 21.6038 80.5509 20.4813C81.2769 19.3588 82.2542 18.473 83.4828 17.8241C84.73 17.1751 86.1075 16.8506 87.6153 16.8506C89.1231 16.8506 90.4912 17.1751 91.7198 17.8241C92.967 18.473 93.9536 19.3588 94.6796 20.4813C95.4056 21.6038 95.7685 22.8929 95.7685 24.3487C95.7685 25.7869 95.4056 27.076 94.6796 28.216C93.9536 29.3386 92.967 30.2243 91.7198 30.8732C90.4912 31.5222 89.1231 31.8467 87.6153 31.8467ZM87.6153 28.295C88.7694 28.295 89.6908 27.9267 90.3796 27.19C91.0869 26.4534 91.4406 25.5062 91.4406 24.3487C91.4406 23.2086 91.0869 22.2703 90.3796 21.5336C89.6908 20.7794 88.7694 20.4023 87.6153 20.4023C86.4798 20.4023 85.5583 20.7794 84.851 21.5336C84.1436 22.2703 83.7899 23.2086 83.7899 24.3487C83.7899 25.5062 84.1436 26.4534 84.851 27.19C85.5583 27.9267 86.4798 28.295 87.6153 28.295Z" fill="#1E2431"/>
<path d="M104.767 31.6888C102.924 31.6888 101.491 31.224 100.467 30.2944C99.4615 29.3473 98.9589 28.0319 98.9589 26.3481V20.5865H96.3342V17.1664H96.5296C98.1491 17.1664 98.9589 16.4297 98.9589 14.9564V12.8517H103.147V17.1664H106.721V20.5865H103.147V26.3481C103.147 27.8039 104.013 28.5318 105.744 28.5318C106.005 28.5318 106.33 28.5054 106.721 28.4528V31.5573C106.107 31.645 105.455 31.6888 104.767 31.6888Z" fill="#1E2431"/>
<path d="M116.001 31.8467C114.493 31.8467 113.116 31.5222 111.869 30.8732C110.64 30.2243 109.663 29.3386 108.937 28.216C108.211 27.076 107.848 25.7869 107.848 24.3487C107.848 22.8929 108.211 21.6038 108.937 20.4813C109.663 19.3588 110.64 18.473 111.869 17.8241C113.116 17.1751 114.493 16.8506 116.001 16.8506C117.509 16.8506 118.877 17.1751 120.106 17.8241C121.353 18.473 122.339 19.3588 123.065 20.4813C123.791 21.6038 124.154 22.8929 124.154 24.3487C124.154 25.7869 123.791 27.076 123.065 28.216C122.339 29.3386 121.353 30.2243 120.106 30.8732C118.877 31.5222 117.509 31.8467 116.001 31.8467ZM116.001 28.295C117.155 28.295 118.077 27.9267 118.765 27.19C119.473 26.4534 119.826 25.5062 119.826 24.3487C119.826 23.2086 119.473 22.2703 118.765 21.5336C118.077 20.7794 117.155 20.4023 116.001 20.4023C114.866 20.4023 113.944 20.7794 113.237 21.5336C112.529 22.2703 112.176 23.2086 112.176 24.3487C112.176 25.5062 112.529 26.4534 113.237 27.19C113.944 27.9267 114.866 28.295 116.001 28.295Z" fill="#1E2431"/>
<path d="M124.336 31.531L129.697 24.3223L124.308 17.1664H129.166L132.154 21.2705L135.142 17.1664H140L134.611 24.3223L139.944 31.531H135.086L132.154 27.4005L129.222 31.531H124.336Z" fill="#1E2431"/>
</svg>
