<svg width="133" height="133" viewBox="0 0 133 133" fill="none" xmlns="http://www.w3.org/2000/svg">
<path fill-rule="evenodd" clip-rule="evenodd" d="M66.0435 14.0004C61.8207 15.1309 55.4367 18.9214 49.618 23.7426C7.55667 58.6883 12.0121 109.495 57.997 118.871C94.4057 126.286 130.449 60.5171 102.219 38.1731C84.597 24.2082 57.0327 39.9021 51.9122 66.7681C47.5565 89.7106 70.1332 106.436 85.1622 91.4399C100.657 75.9786 100.49 54.3658 84.8297 54.2328C72.6602 54.1331 65.4782 72.9526 76.1515 76.9426C82.469 79.3033 89.917 71.9551 84.9627 68.2643C83.3335 67.0341 82.2362 67.3001 81.671 68.9626C80.5737 72.4206 76.9162 74.8811 76.3177 72.5868C74.5555 66.0698 84.9295 54.3326 89.0192 58.2228C94.838 63.7423 89.917 79.5693 79.3102 89.3781C63.6162 103.908 50.0502 79.9687 61.2887 57.5249C74.223 31.6895 101.421 28.6969 106.376 52.5703C111.729 78.2726 84.6635 116.211 61.721 114.981C32.3279 113.418 17.2656 83.3934 32.4276 53.5349C40.3412 37.9074 57.332 21.0494 69.9337 16.3279C74.9877 14.4326 71.7292 12.5041 66.0435 14.0004Z" fill="#51A57B"/>
</svg>
