<svg width="117" height="117" viewBox="0 0 117 117" fill="none" xmlns="http://www.w3.org/2000/svg">
<path d="M55.8808 41.2474C55.3323 41.3917 52.792 41.6226 50.2229 41.7669C43.1218 42.1422 43.6991 42.5752 38.7918 47.5402C37.0887 49.2722 37.4062 50.6289 36.5691 53.9486C34.5485 61.9734 42.198 61.9445 46.2971 56.7774C49.7033 52.4763 51.8683 51.0908 57.555 49.6186C62.8086 48.2619 64.252 47.165 64.252 44.567C64.252 41.7381 60.2685 40.1216 55.8808 41.2474ZM56.8622 47.7136C50.9446 49.128 46.961 51.1197 44.5651 54.0064C40.7836 58.5384 39.4269 59.491 39.2248 57.6725C39.1093 56.7487 40.7547 51.4661 41.3898 50.6289L43.5259 47.8289C46.4992 43.903 46.2971 44.0474 51.3776 43.7876C53.8024 43.6721 56.3715 43.4414 57.0642 43.2971C61.5674 42.3445 61.1633 46.6744 56.8622 47.7136Z" fill="#FDB513"/>
<path d="M95.7741 44.9138C94.0421 42.6623 91.4153 38.9674 89.9431 36.7447C81.1388 23.5239 74.7305 21.2722 58.4787 25.7465C51.9838 27.5362 51.1755 27.4785 40.8702 23.9857C27.6494 19.5114 12.4946 28.6331 15.9008 40.9591C18.0369 48.7242 18.0658 48.6088 15.9296 56.0852C12.9564 66.5926 13.1585 71.0668 16.94 78.168C28.3133 99.5002 55.4189 98.6918 62.8375 76.84C65.1468 70.0564 66.0128 68.3245 68.1778 66.1884C71.9882 62.4358 73.3449 62.3492 77.9924 65.7554C84.5739 70.5761 90.4915 71.8174 96.1782 69.5658C104.925 66.1019 104.809 56.6913 95.7741 44.9138ZM81.6007 64.2256C71.6418 57.0956 63.2705 61.2811 58.5076 75.8009C55.5921 84.6917 54.0333 86.7412 47.9425 89.8011C37.5217 95.0259 24.3875 87.2609 19.4513 72.972C17.6328 67.6606 18.0081 63.0997 21.0968 53.5738C22.5978 48.9551 22.6555 47.8581 21.6452 44.0766C20.1153 38.3322 20.0287 37.6684 20.4906 35.4457C22.5112 25.8044 30.6515 23.4662 41.3032 26.9301C50.7426 30.0188 53.0519 30.0476 62.6644 27.3919C73.3449 24.4187 77.7326 26.2085 84.5162 36.3117C87.576 40.8726 89.2791 43.2396 92.2235 46.9923C104.088 62.1471 96.2937 74.7618 81.6007 64.2256Z" fill="#FDB513"/>
<path d="M76.8088 40.7856C69.4478 35.0701 70.9489 31.7214 58.4786 32.5874C52.5899 32.9916 55.1878 34.204 43.7568 35.1854C35.4432 35.9071 28.4576 37.5813 28.4576 46.0103C28.4576 48.4062 28.3132 49.6476 27.8513 51.1775C24.3874 62.5797 29.439 75.3963 37.3484 75.3675C42.4866 75.3386 45.5465 72.885 49.8187 65.322C52.4167 60.7323 56.0249 57.2105 59.4311 56.1713C59.9507 56.027 63.155 55.796 66.5612 55.6805C76.4046 55.3341 79.4067 53.7753 80.8501 48.2618C81.6294 45.3175 80.9078 43.9609 76.8088 40.7856ZM64.9735 54.4971C55.159 54.4971 51.9259 56.6042 46.8743 66.159C37.9257 83.0458 25.1091 71.0376 31.7772 51.9569C32.7587 49.1569 32.8164 48.8681 32.6143 46.5876C32.1236 40.6123 35.9051 38.0433 46.5279 37.033C52.5321 36.4556 53.9755 35.936 57.6126 34.868C59.5178 34.2907 62.8086 34.1464 64.5405 34.4928C66.1571 34.8103 69.4478 39.1402 74.0953 42.7485C82.0335 48.897 77.7036 54.4683 64.9735 54.4971Z" fill="#FDB513"/>
</svg>
