<svg width="96" height="96" viewBox="0 0 96 96" fill="none" xmlns="http://www.w3.org/2000/svg">
<path fill-rule="evenodd" clip-rule="evenodd" d="M47.6706 10.1055C44.6226 10.9215 40.0146 13.6574 35.8146 17.1374C5.45457 42.3614 8.6705 79.0337 41.8626 85.8017C68.1426 91.1537 94.1586 43.6814 73.7826 27.5534C61.0626 17.4735 41.1666 28.8014 37.4706 48.1934C34.3266 64.7534 50.6226 76.8257 61.4706 66.0017C72.6546 54.8417 72.5346 39.2414 61.2306 39.1454C52.4466 39.0734 47.2626 52.6574 54.9666 55.5374C59.5266 57.2414 64.9026 51.9374 61.3266 49.2734C60.1506 48.3854 59.3586 48.5774 58.9506 49.7774C58.1586 52.2734 55.5186 54.0494 55.0866 52.3934C53.8146 47.6894 61.3026 39.2174 64.2546 42.0254C68.4546 46.0094 64.9026 57.4334 57.2466 64.5134C45.9186 75.0014 36.1266 57.7217 44.2386 41.5217C53.5746 22.8736 73.2066 20.7135 76.7826 37.9454C80.6466 56.4974 61.1106 83.8814 44.5506 82.9934C23.3345 81.8654 12.4625 60.1937 23.4065 38.6417C29.1186 27.3617 41.3826 15.1935 50.4786 11.7855C54.1266 10.4175 51.7746 9.02547 47.6706 10.1055Z" fill="#C5CDD6"/>
</svg>
