<svg width="91" height="91" viewBox="0 0 91 91" fill="none" xmlns="http://www.w3.org/2000/svg">
<path d="M40.5459 34.7241C42.1434 33.4866 51.0534 27.4341 52.6734 26.5116C54.0459 25.7466 54.3609 25.4544 54.6534 24.6894C55.4409 22.5968 56.6559 15.7566 57.1284 10.7166C57.3759 8.21914 55.8009 6.86927 53.8434 7.92677C53.4159 8.15177 52.2009 8.75927 51.1434 9.27677C50.0859 9.77177 47.0259 11.7068 44.3259 13.5518C38.2734 17.7143 38.4534 15.6443 37.4184 26.0394C37.1934 28.4469 35.4159 38.7066 40.5459 34.7241ZM41.4684 20.6617C41.4684 19.9417 42.2334 19.3118 47.0934 16.0268C49.5009 14.3843 51.8409 12.7641 52.2684 12.4041C53.3259 11.5491 53.3709 11.5717 53.1459 12.9442C51.9534 20.2117 51.1434 22.0343 50.3559 24.1719C45.3609 26.7144 39.7359 30.9441 39.5334 30.8316C39.4434 30.6966 41.4684 22.5292 41.4684 20.6617Z" fill="#51A57B"/>
<path d="M38.4984 58.552C40.1859 58.552 51.1209 48.7645 52.1559 48.022C54.2934 46.492 56.9484 34.387 55.3059 33.622C54.6309 33.307 54.7659 33.2845 53.1459 33.6895C52.4484 33.8695 49.5459 35.1745 46.6884 36.6145C40.1859 39.877 40.8609 38.7745 40.0959 40.7095C38.0934 45.7495 36.8109 55.6718 36.2934 56.5043C35.7759 57.2468 37.1934 58.552 38.4984 58.552ZM40.4334 51.127C41.3109 48.3595 42.2334 44.4895 42.8859 41.8345C51.0984 38.122 52.4934 37.0643 52.4934 37.5368C52.4934 38.0993 51.6159 39.292 50.5809 46.447C48.6459 47.6395 44.5959 50.0243 42.0534 51.9368C39.3759 53.9393 39.5334 54.007 40.4334 51.127Z" fill="#51A57B"/>
<path d="M31.6358 43.4542C29.7683 40.2817 26.5508 43.6344 26.1008 43.9719C21.0833 47.7519 19.0133 50.1594 16.3583 52.4769C14.9858 53.6919 15.7508 53.3544 13.6808 60.6894C11.3858 68.8344 12.6683 70.5669 19.1933 65.6394C23.2433 62.5794 23.4683 62.6242 27.9233 59.4292C29.8358 58.0792 29.6333 56.7067 30.6683 53.0167C31.9058 48.6292 32.3108 44.5792 31.6358 43.4542ZM25.8308 56.5719C25.5833 58.1244 23.4233 57.9894 19.3283 60.9144C16.3583 63.0519 17.7758 62.2417 18.5183 56.4367L18.7883 54.3219C26.4383 48.2244 28.1933 46.0419 28.1933 46.8519C28.1933 46.8519 26.0108 55.4469 25.8308 56.5719Z" fill="#51A57B"/>
<path d="M74.2283 16.8817C70.7858 18.9967 61.8533 25.7018 61.0208 26.4218C60.3233 27.0068 59.6483 27.5018 59.5358 27.5018C58.7033 27.5018 59.3333 30.6743 58.7033 35.9843C57.7358 44.2193 58.2533 46.0865 66.4658 41.204C67.9508 40.3265 70.1783 39.2468 71.4608 38.7743C75.3533 37.3343 75.0833 37.6043 75.2408 35.3768C75.3083 34.3193 75.7133 32.1593 76.0958 30.5393C77.0183 26.8043 77.7383 22.6416 77.9633 20.0541C78.3008 16.3866 76.4558 15.5092 74.2283 16.8817ZM73.8683 23.4968C73.1933 27.0068 71.4383 34.1165 71.3483 34.904C71.2358 35.8265 67.9058 36.5915 63.5633 39.0665C61.3133 40.349 61.4933 40.5518 61.9658 37.2893C62.4383 34.1168 62.7308 30.9893 62.9333 28.8518C62.9333 28.8518 71.4158 22.8893 72.4058 22.1468C74.5883 20.5043 74.4533 20.4143 73.8683 23.4968Z" fill="#51A57B"/>
<path d="M65.7684 44.6918C60.7284 47.8868 57.5784 50.0018 57.3084 50.0018C56.4984 50.0018 53.9334 61.6568 54.2034 64.0643C54.2934 64.8068 54.4959 66.8768 54.4959 67.0118C54.7434 68.8793 59.8959 66.4043 67.2309 60.8468C69.2784 59.2943 69.5484 59.1593 70.4034 59.2043C71.7759 59.2718 72.1584 58.5293 72.6534 54.9518C74.2959 42.7793 72.6534 40.3268 65.7684 44.6918ZM68.6034 57.1118C68.5809 57.1343 67.1634 57.8768 65.4309 58.7993C59.1309 62.1068 57.3084 63.8618 57.5109 63.0068C57.6234 62.5568 58.5684 55.8968 58.9059 53.2418C58.9959 52.5893 59.1534 52.2518 59.5134 52.0718C59.7834 51.9368 69.4584 46.2668 69.4584 46.2668C69.4809 46.2893 69.0309 57.1118 68.6034 57.1118Z" fill="#51A57B"/>
<path d="M48.8933 55.199C47.9933 55.7615 43.3583 59.0915 40.6808 61.1165C36.7208 64.109 36.1583 64.9642 34.8533 70.0267C34.4258 71.6917 33.8183 73.8742 33.5033 74.8642C30.8033 83.4367 33.7733 83.819 35.6858 82.5365C37.0358 81.614 45.0683 74.9092 46.8233 73.2442C48.1283 71.9842 48.5783 71.6917 49.0058 71.7817C50.3783 72.0517 50.8508 70.8815 51.7058 64.9865C52.4033 60.149 53.0558 52.6115 48.8933 55.199ZM48.9833 59.7442C48.7583 61.2517 47.5433 68.4742 47.5433 69.1717C47.5433 69.5542 36.4508 77.2717 36.6308 76.5967C38.2958 70.0267 38.0258 65.7517 38.7683 65.7517C39.1508 65.7517 40.0958 65.1217 45.6083 61.1842C49.5008 58.3942 49.1633 58.5292 48.9833 59.7442Z" fill="#51A57B"/>
<path d="M18.2034 44.9843C19.0584 44.5343 21.3759 42.3966 24.4808 39.8991C32.2883 33.5766 32.6258 33.1268 33.7958 27.2768C35.0783 20.7967 35.6408 12.9666 30.5108 17.1291C29.0258 18.3441 20.5434 24.8016 19.3059 25.6566C17.5734 26.8716 15.6834 40.5291 15.0084 43.4991C14.7609 44.6466 16.8984 45.6368 18.2034 44.9843ZM21.5109 28.5143C29.7683 22.2817 30.8933 21.3817 30.8933 21.7642C30.8933 22.0342 29.3633 28.8968 29.2283 30.2468C29.0933 31.7318 24.4358 34.9491 18.9234 39.6066C18.2034 40.1916 19.0134 39.2468 21.5109 28.5143Z" fill="#51A57B"/>
</svg>
